<svg xmlns="http://www.w3.org/2000/svg" width="255.39" height="247.044" viewBox="0 0 255.39 247.044">
  <g id="bank_alfalah-ic" data-name="bank alfalah-ic" transform="translate(-666.61 -456.094)">
    <path id="Path_70785" data-name="Path 70785" d="M871.106,544.086c.534,1.784,1.953,2.784,3.362,3.793,1.417,1.228,3.33,1.944,4.052,3.9a5.083,5.083,0,0,0,3.1,4.1,8.35,8.35,0,0,1,1.085.369,6.028,6.028,0,0,1,1.388,1,14.821,14.821,0,0,1,1.928,2.175c1.115,1.91,3.1,3.214,3.79,5.413a5.321,5.321,0,0,0,2.214,3.076,21.432,21.432,0,0,1,3.633,3.764c.777,2.6,3.032,4,4.755,5.824.389.44.557,1.036,1.016,1.427l.1-.013c1.148.583,2.549.841,3,2.324a7.357,7.357,0,0,0,3.05,3.865,11.728,11.728,0,0,1,2.481,1.583,48.665,48.665,0,0,1,5.194,8.715,6.1,6.1,0,0,0,1.513,4.281,12.4,12.4,0,0,1,2.542,6.728,28.542,28.542,0,0,1,.019,8.4c-1.746,3.7-1.66,7.977-3.633,11.606-.9,3.207-3.79,5.618-3.67,9.236-2.365,5-5.493,9.3-10.731,11.644a4.264,4.264,0,0,0-3.642,2.34,5.156,5.156,0,0,1-.821.906c-1.672,1.353-3.375,2.642-5.6,2.92-4.144.811-7.862,3.1-12.128,3.5-1.737-.4-4.31-.349-1.711-3.12,2.166-1.442,1.318-2.847-.078-4.217-1.439-1.413-3.114-2.6-4.186-4.364a7.182,7.182,0,0,1-.476-1.143c-1.083-4.032-3.919-7.47-3.911-11.9,0-1.55-2.059-1.435-2.741-2.562-.976-3.512-2.561-6.835-2.644-10.618-.063-2.876-2.524-4.519-4.229-6.5-5.065-5.69-9.505-11.883-14.295-17.794a26.149,26.149,0,0,0-7.426-5.316c-1.863-1.158-3.993-1.24-6.077-1.509a29.451,29.451,0,0,0-14.232-.078,10.655,10.655,0,0,1-3.055,1.033c-2.942.309-6.662-1.33-7.93,3.182-1.638.954-3.328,1.635-4.724-.265-1.383-1.882-.05-3.142,1.058-4.65,2.743-3.735,5.407-7.256,6.127-12.386.57-4.055,4.256-7.519,7.734-10.238,1.227-.959,2.482-1.675,2.457-3.367-.052-3.526,1.536-6.592,2.613-9.806,3.3-3.459,7.212-6.55,6.858-12.122a3.4,3.4,0,0,1,1.23-2.28c3.709-2.628,6.217-6.385,8.962-9.876a35.181,35.181,0,0,1,2.87-3.9c2.31-2.237,2.484-2.206,5.2.576.155-.134-.052-.273-.191-.6-.658-1.538-2.781-3.288-1.1-4.691,1.549-1.29,3.139.693,4.471,1.8a4.953,4.953,0,0,1,.626,1.031,5.735,5.735,0,0,0,3.977,4.53,5.738,5.738,0,0,1,2.283,2.872,4.678,4.678,0,0,0,2.256,3.035c3.3,2.2,5.778,5.325,8.6,8.058,1.078.883,2.1,1.832,3.184,2.711A1.441,1.441,0,0,1,871.106,544.086Z" fill="#da291d"/>
    <path id="Path_70786" data-name="Path 70786" d="M696.57,645.246l-3.582,1.852c-.638.914-1.4,1.558-2.619,1.187-2.507-.9-4.454-2.047-.843-4.065,2.163-1.209,1.535-2.849,1.247-4.555,1.588-2.947,3.617-1.041,5.193-.489-.672-2.073-.663-4.692.61-5.992,3.16-3.227,4.252-7.72,7.358-10.881,2.179-4.341,6.772-7.109,7.869-12.145a6.012,6.012,0,0,1,2.988-5.55,6.248,6.248,0,0,0,2.8-6.577c-.244-1.366-.571-3.051.753-3.666,4.779-2.224,5.1-7.289,7.443-11.053.312-.5-.228-.069.192-.379,4.636-3.42,5.187-9.673,9.075-13.393,4.38-4.192,6.115-9.66,8.67-14.753.733-1.463,1.147-3.156,2.491-4.124a16.273,16.273,0,0,0,5.887-8.63c5.3-3.878,5.82-10.937,10.231-15.419a3.255,3.255,0,0,0,.817-2.028c.174-3.015,1.094-5.069,4.431-6.179,2.437-.81,3.952-3.419,4.952-5.969a9.594,9.594,0,0,1,.589-1.168c1.311-1.09,1.124-4.385,4.207-2.88a14.393,14.393,0,0,1-3.514,10.206c-1.381,1.744-3.008,3.361-2.74,5.869a8.63,8.63,0,0,1-2.624,6.418c-4.248,4.249-6.257,10-9.584,14.889-1.879,2.759-2.321,6.138-5.985,7.919-2.12,1.031-2.038,4.442-3.229,6.682-1.609,3.025-3.044,6.071-5.424,8.641a15.5,15.5,0,0,0-3.513,7.145c-.269,1.158-.247,2.734-1.274,3.236-3.362,1.643-3.393,5.289-5.165,7.74-3.629,5.017-7.507,9.666-9.9,15.581-1.083,2.675-3.686,4.918-4.516,8.013a2.726,2.726,0,0,1-.883,1.53c-5.127,3.728-6.222,9.862-8.969,15a11.679,11.679,0,0,1-2.045,2.89c-3.938,3.9-3.929,3.909-1.1,8.022-.4,2.2-3.28,2.136-3.838,4.2C700.995,643.6,699.23,645.433,696.57,645.246Z" fill="#9a1d09"/>
    <path id="Path_70787" data-name="Path 70787" d="M784.244,459.108c-.11-1.4,1.659-.782,1.918-1.786,2.343-.828,4.694-.414,7.045-.043,1.545,1.246,3.1,2.486,3.635,4.538-.6,1-3.725-.271-2.3,2.689.407.847-.516,1.975-1.2,2.765-5.651,6.552-9.179,14.516-14.1,21.574a32.932,32.932,0,0,0-4.713,10.75c-.475,2-1.3,3.63-3.3,4.441-1.159.285-1.641,1.96-3.143,1.563-1.569-2.569-5.463-3.081-5.9-6.654.308-1.514,1.167-2.928.833-4.565a7.857,7.857,0,0,1,2.437-4.837l.89-.871a2.182,2.182,0,0,1,.86-.685,3.256,3.256,0,0,0,1.925-2.659,107.589,107.589,0,0,1,12.231-20.9C782.768,462.9,784.912,461.769,784.244,459.108Z" fill="#8d1a06"/>
    <path id="Path_70788" data-name="Path 70788" d="M762.751,498.5c-.062,2.041,1.709,2.506,2.951,3.421,1.276.94,2.793,1.716,2.415,3.725-.164.076-.329.152-.493.23-.887.027-1.679-.605-2.59-.357-2.211,3.066-.067,7.065-2.205,10.13-3.51,1.712-6.365,3.9-6.257,8.344.018.739-.158,1.811-.756,2.014-4.883,1.654-4.166,7.091-6.965,10.117-1.8,1.206-2.932,4.074-5.912,2.42-.148-.082-.249.007-.08.284a5.3,5.3,0,0,1,.009,5.525c-1.881,2.6-1.756,6.3-4.568,8.4a8.384,8.384,0,0,0-3.584,4.14c-.674,1.715-2.43,2.358-4.083,2.951a2.593,2.593,0,0,1-1.9-.279,2.343,2.343,0,0,1-.523-1.167,22.075,22.075,0,0,1,3.651-7.2c2.9-.881-.162-1.823.015-2.733a1.519,1.519,0,0,1,.514-1.658c2.139-.776,2.644-2.735,3.312-4.576.138-.118.277-.236.413-.357a11.54,11.54,0,0,1,1.6-.466c1.316-.678,1.148-1.889,1.107-3.051-.019-1.907,1.167-3.488,1.426-5.324a52.489,52.489,0,0,1,4.749-8.9c1.654-1.331,2.1-3.563,3.669-4.953l-.047.074c.416-1.019.549-2.23,1.808-2.681H750.4c1.485-2.817,2.323-5.946,4.128-8.609.182-.345.39-.675.6-1.005.752-1.128,1.182-2.439,1.963-3.554,2.484-1.286,1.769-4.9,4.413-6.07A1.385,1.385,0,0,1,762.751,498.5Z" fill="#8c1a06"/>
    <path id="Path_70789" data-name="Path 70789" d="M825.379,492.973l2.29,2.082c1.083.349,1.08,1.335,1.294,2.2a3.424,3.424,0,0,1-.465,1.88c-3.567-.4.227,2.221-1.118,2.737a2.2,2.2,0,0,1-2.4.694c-.109-.023-.924-1.453-.68-.03.589,3.423-2,4.608-3.954,6.3-2.284-.118-3.785.506-3.325,3.257a3.322,3.322,0,0,1-.736,2.96c-4.158,3.668-5.279,9.573-9.7,13.016a3.6,3.6,0,0,0-1.512,3.083c.1,2.763-1.1,5.214-1.814,7.784a6.83,6.83,0,0,1-.654,1.808c-4.839,4.319-7.9,9.654-10.29,15.712a11.355,11.355,0,0,1-10.051,7.372,4.507,4.507,0,0,1,.733-4.236c2.894-3.782,4.068-8.548,7.19-12.181a33.045,33.045,0,0,0,7.381-14.45c.567-2.536,3.409-3.833,3.351-6.624,1.028-4.8,2.1-9.578,6.846-12.314a4.442,4.442,0,0,0,2.028-2.82c.91-3.288,2.516-5.848,5.876-7.331,2.914-1.286,1.374-5.729,4.441-7.169-1.446-.186-2.512-.773-2.568-2.426a2.681,2.681,0,0,1,.376-1.125c1.552-.492,2.255-1.861,3.134-3.057C823.592,489.408,824.223,491.584,825.379,492.973Z" fill="#bb2314"/>
    <path id="Path_70790" data-name="Path 70790" d="M710.875,583.462l2.677-4.491c1.14-1.376,1.608-3.314,3.434-4.115,2.79-1.473,2.54-5.226,5.126-6.852,2.227.44,1.986,2.73,3.045,4.05a2.2,2.2,0,0,1,.287,1.134c-.344,1.025-1.255,1.473-2.053,2.035-1.555,1.454-1.682,3.259-1.289,5.2-.5,3.874-3.149,6.606-5.32,9.512a11.164,11.164,0,0,0-1.976,4.255c-1.5,1.171-2.655,2.725-4.2,3.846-.335.243-1.083-.035-1.074.518.018,1.172,2.283,3.538-1.462,2.454a5.451,5.451,0,0,1-2.459,4.324,4.067,4.067,0,0,1-2.568.412,3.314,3.314,0,0,1-2.2-1.4,2.61,2.61,0,0,1-.211-1.273c1.519-3.7,4.163-6.745,6.023-10.251,1.909-1.977,2.678-4.487,3.3-7.07A3.232,3.232,0,0,1,710.875,583.462Z" fill="#8d1b07"/>
    <path id="Path_70791" data-name="Path 70791" d="M687.688,623.74c1.7-.669,1.794-2.094,1.693-3.609a1.972,1.972,0,0,1,1.046-1.322c2.008-.421,2.387-2.256,3.205-3.716,1.281-1.44,2.429-3.149,4.8-2.4,3.46,5.283,3.262,7.744-1.139,12.058-.9.886-1.959,1.148-.4,2.677,1.765,1.73.872,3.967-1.231,4.623-2.827.882-3.694,3.179-5.036,5.231-2.626,1.743-3.995-1.411-6.139-1.571a1.973,1.973,0,0,1-1.055-2.064c1.488-2.271,1.751-4.93,2.338-7.491A3.2,3.2,0,0,1,687.688,623.74Z" fill="#901b07"/>
    <path id="Path_70792" data-name="Path 70792" d="M684.035,633.555a1.848,1.848,0,0,0,.9,1.787c2.423,2.133,2.65,4.852.606,6.957-1.757,1.809-.4,4.865-3.139,6,2.171.605,4.518-3.262,6.36.422-2.349,3.147-6.265,3.433-9.393,5.162-.737.389-2.295-1.295-2.307.937-.973,1.839-3.021,1.723-4.553,2.545a3.932,3.932,0,0,1-2.484.156,3.468,3.468,0,0,1-1.053-.711c-.483-1.641,1.235-2.779.995-4.364,1.987-2.553,3.148-5.658,5.38-8.046l1.684-2.447c1.059-2.269,1.815-4.7,3.537-6.615l0-1.515a2.389,2.389,0,0,1,1.665-1.492A1.791,1.791,0,0,1,684.035,633.555Z" fill="#8e1c0a"/>
    <path id="Path_70793" data-name="Path 70793" d="M817.251,484.395a1.69,1.69,0,0,1,.573-.078c1.045.357.962,1.219.93,2.059-1.34,2.151,1.581,4.654-.545,6.744h0c-1.79.782-3.559,1.712-5.6.813a7.378,7.378,0,0,1-1.014-6.1,4.291,4.291,0,0,1,3.881-3.452A3.66,3.66,0,0,1,817.251,484.395Z" fill="#af2212"/>
    <path id="Path_70794" data-name="Path 70794" d="M697.307,606.718l1.09-1.691a.791.791,0,0,1,1.045-.213,3.491,3.491,0,0,1,1.088,2.112c-.45,1.83-.951,3.664.112,5.473-.3,2.033-1.1,2.089-2.293.582-2.081-.1-2.819,2.046-4.461,2.681a.82.82,0,0,1-1.123.008,1.886,1.886,0,0,1,.954-2.715l1.074-1.716c.7-.831.813-2.011,1.655-2.754Z" fill="#881b09"/>
    <path id="Path_70795" data-name="Path 70795" d="M895.133,571.976l1.706.951,1.549,1.764c1,.937,2.433,1.616,2.055,3.391C897.473,577.091,896.268,574.563,895.133,571.976Z" fill="#b5261e"/>
    <path id="Path_70796" data-name="Path 70796" d="M814.58,481.71l2.545,1.909a6.012,6.012,0,0,0,.126.776l-.828.664C815.041,484.365,813.614,483.7,814.58,481.71Z" fill="#84170a"/>
    <path id="Path_70797" data-name="Path 70797" d="M669.973,656.9l-1.06.769a.983.983,0,0,1,.055-.859Z" fill="#500b04"/>
    <path id="Path_70798" data-name="Path 70798" d="M769.906,502.959c1.247.035,2.589-.073,2.894-1.5.681-3.18,3.495-6.182,3.646-8.514.365-5.665,5.335-7.894,6.93-12.351,1.7-4.756,5.364-8.367,7.966-12.607,1-1.631,2.756-2.609,2.182-5.367-.454-2.182,2.237-.107,3.318-.807l1.8,2.4a3.835,3.835,0,0,1,.63,3.324,11.562,11.562,0,0,0-2.261,6.056c-.226,5.771-5.119,9.076-7.74,13.6-3.479,6-7.011,11.96-12.168,16.817-2.124,2-2.773,5.089-3.614,7.9h0c-1.2,1.258-2.157,2.713-3.308,4.007-1.887,2.124-3.626,2.2-5.092-.471a4.729,4.729,0,0,1,1.187-4.15C768.717,508.982,769.309,506,769.906,502.959Z" fill="#951c08"/>
    <path id="Path_70799" data-name="Path 70799" d="M798.534,468.072q.052-1.929.1-3.857a1.013,1.013,0,0,1,.789.331,26.134,26.134,0,0,0,3.721,4.323l-.043-.016c.608,1.365.144,2.329-1.3,2.407C799.708,471.374,798.864,469.922,798.534,468.072Z" fill="#9b2011"/>
    <path id="Path_70800" data-name="Path 70800" d="M784.244,459.108c2.141,3.462-.574,4.284-2.894,5.319Z" fill="#761a14"/>
    <path id="Path_70801" data-name="Path 70801" d="M793.207,457.279l-7.045.043A5.745,5.745,0,0,1,793.207,457.279Z" fill="#6e1e16"/>
    <path id="Path_70802" data-name="Path 70802" d="M803.148,468.869c-2.447-.4-3.133-2.321-3.721-4.323,1.348.025,1.515,1.6,2.591,1.977Z" fill="#87281b"/>
    <path id="Path_70803" data-name="Path 70803" d="M767.293,488.676l.895-2.707.931-.641C769.868,487.185,770.315,488.877,767.293,488.676Z" fill="#710e02"/>
    <path id="Path_70804" data-name="Path 70804" d="M831.625,587.038c2.26-.01,4.589-.26,6.262,1.788a4.381,4.381,0,0,1,1.769,1.974c4.924,11.111,9.858,22.208,13.833,33.724,1.474,4.272,4.289,8.031,6.424,12.059,4.765,4.374,5.727,10.43,7.121,16.27a4.642,4.642,0,0,1-2.307,5.281c-3.038.974-5.224-1.141-5.248-3.253-.08-6.963-5.158-11.588-7.32-17.518a15.52,15.52,0,0,1-1.01-2.908c.474-5.267-3.287-8.959-5.1-13.356-.838-2.027-2.181-3.832-2.294-6.135a4.462,4.462,0,0,0-.847-2.5c-4.653-5.981-5.466-13.53-8.274-20.26C833.837,590.3,831.428,589.435,831.625,587.038Z" fill="#c62517"/>
    <path id="Path_70805" data-name="Path 70805" d="M813.746,587.939l2.68-.894c.824-.685,1.758-.412,2.672-.31,1.416.482,2.973.172,4.372.785,1.113.487,2.351.959,2.232,2.426-.6,7.489,5.418,12.148,7.809,18.352.241.624,1.182,1.009,1.351,1.728,3.072,13.03,10.713,24.311,14.215,37.176.595,2.187.652,4.126-1.516,5.507a13.125,13.125,0,0,1-5.1,1.788,1.7,1.7,0,0,1-1.224-.446,2.073,2.073,0,0,1,.481-2.4c1.364-1.3,2.582-2.753,1.132-4.619-2.405-3.094-3.512-6.87-5.579-10.133-.619-3.925-1.61-7.356-4.569-10.628-1.842-2.037-2.138-6.153-2.88-9.355-.919-3.959-2.9-7.435-4.579-10.919-1.992-4.125-4.546-7.807-4.891-12.639-.27-3.78-4.309-2.871-6.554-4.238a.857.857,0,0,1-.249-.778C813.612,588.073,813.676,587.939,813.746,587.939Z" fill="#b42213"/>
    <path id="Path_70806" data-name="Path 70806" d="M873.664,644.286c0,.3,0,.6,0,.893,1.869,2.793.417,7.247,4.473,8.946-.345.451-1.071,1.05-.964,1.327.311.806,1.218.344,1.869.474.13,2.015-1.663,1.039-2.473,1.593a4.017,4.017,0,0,1-1.373-.1c-5.193-1.015-7.256-4.685-7.983-9.466-.134-.881.112-1.985-.4-2.616-3.646-4.471-4.885-9.866-6.351-15.253-2.063-7.575-7.33-13.718-9.776-21.209-1.256-3.846-4.064-7.1-5.375-11.057-.421-1.27-1.413-2.305-.267-3.621,3.455.674,3.655,4.332,5.732,6.321,2.829,2.71,4.065,6.9,8.046,8.682.507.227.371,1.891.532,2.888,3.54,5.278,3.559,11.788,6.065,17.471.952,2.159,1.7,4.329,3.235,6.142C870.222,638.616,871.506,641.706,873.664,644.286Z" fill="#d22719"/>
    <path id="Path_70807" data-name="Path 70807" d="M845.043,594.193c-.06,2.782,1.785,5.689,2.9,7.134,4.618,5.982,5.9,13.49,10.116,19.719,2.318,3.423,5.014,8.436,4.882,13.584-.027,1.038-.344,2.612.19,3.038,5.079,4.045,4.978,10.363,7.024,15.695,1.037,2.7,4.158,1.379,5.3,3.437-1,1.249-2.606.69-3.826,1.287a15.216,15.216,0,0,1-2.779.488c-1.416-.106-2.957.379-4.127-.879,3.027-4.1.026-7.923-.624-11.819-.566-3.394-2.781-6.036-4.748-8.747-3.42-11.394-9.774-21.509-14.128-32.479-1.912-4.815-3.278-9.816-6.443-14.034l-.895-1.791C840.756,589.971,843.576,591.18,845.043,594.193Z" fill="#cd2618"/>
    <path id="Path_70808" data-name="Path 70808" d="M821.786,551.261c.344,4.157-2.666,7.743-1.97,12.022.212,1.307-1.368,1.922-2.5,2.092-1.687.254-2.014,1.46-2.928,2.589-3.247,4.011-5.783,7.853-5.929,13.449-.046,1.795-3.454,4.171-4.972,6.6-.6.955-2.6.943-1.648,2.934.93,1.939,2.206.733,3.389.61.441-.046.887-.045,1.331-.066q.084.3.169.607c-.951,1.97-3.1,1.979-4.7,2.9a7.273,7.273,0,0,1-3.739.9c-3.262-1.444-2.772-3.742-1.136-5.991,2.148-2.951,3.637-6.332,6.078-9.08a6.565,6.565,0,0,0,1.334-4.53c.218-2.6,1.1-5.2,2.95-6.779,4.916-4.2,6.162-10.619,9.939-15.47,1.064-1.367,1.487-3.316,3.773-3.157Z" fill="#d7291b"/>
    <path id="Path_70809" data-name="Path 70809" d="M819.1,587.046h-2.676a23.163,23.163,0,0,1,15.2-.007c5.276,3.835,5.768,10.184,7.909,15.591.891,2.251.663,4.845,2.879,6.649a6.48,6.48,0,0,1,1.957,3.428,44.814,44.814,0,0,0,7.346,16.058c1.143,1.632.314,3.778.482,5.682-3.953-1.26-4.049-5.5-6.2-8.152-.672-.827-.869-2.127-1.456-3.135-.526-1.171-.9-2.4-1.435-3.571-1.608-3.167-1.88-6.934-4.379-9.7-4.019-3.851-4.482-9.149-5.526-14.127-.869-4.142-2.775-6.594-6.832-7.479C823.978,587.656,821.468,587.769,819.1,587.046Z" fill="#c12415"/>
    <path id="Path_70810" data-name="Path 70810" d="M844.136,514.684c2.111,1.681,4.383,3.229,5.064,6.1l-3.964-2.3a25.549,25.549,0,0,0,4.322,7.849c-1.549.639-1.986.036-2.453-.545-3.29-4.1-5.074-4.13-7.122.488-1.115,2.516-1.7,4.97-4.824,5.663-.415.093-.745,1.187-.868,1.863-.462,2.554-2.008,3.46-4.455,3.146-.1-.188-.2-.377-.3-.564-.13-3.131-.2-6.2,2.875-8.277.881-.6.716-1.873.838-2.892.125-1.034.182-2.4,1.148-2.743,4.534-1.594,5.258-5.3,5.531-9.338.972-1.086,1.726-.511,2.382.358C842.788,514.123,842.966,515.142,844.136,514.684Z" fill="#d5291c"/>
    <path id="Path_70811" data-name="Path 70811" d="M868.3,636.235c-4.244-1.5-3.044-5.9-4.643-8.813-2.6-4.746-3-10.186-4.3-15.338,3.572,1.778,5.78,4.448,5.348,8.65-.339,3.29,2.942,5.825,1.809,9.239C868.6,631.635,870.137,633.452,868.3,636.235Z" fill="#d5291b"/>
    <path id="Path_70812" data-name="Path 70812" d="M878.139,654.125c-3.476.422-4.822-1.19-4.5-4.57.139-1.446.024-2.916.024-4.376,2.056,1.619,4.281,3.09,5.74,5.312C880.456,652.09,881.225,653.848,878.139,654.125Z" fill="#d6291c"/>
    <path id="Path_70813" data-name="Path 70813" d="M829.836,536.949a21.472,21.472,0,0,0-.837,4.679c.211,5.254-3.422,7.467-7.213,9.633h0c-1.187-1.646-.2-3.148.449-4.56,1.342-2.918,3.646-5.31,4.475-8.56a1.922,1.922,0,0,1,3.127-1.192Z" fill="#d6291b"/>
    <path id="Path_70814" data-name="Path 70814" d="M868.3,636.235c.7-2.458-1.48-4.093-1.788-6.262,1.43-.714,3.361-.37,3.25.968-.417,5.043,3.4,8.69,3.9,13.345C869.859,642.946,869.3,639.441,868.3,636.235Z" fill="#d5291b"/>
    <path id="Path_70815" data-name="Path 70815" d="M865.267,537.094q1.033,1.718,2.068,3.433c-3.794-3.244-7.619-6.452-11.335-9.784-.375-.336-.089-1.411-.11-2.144a.629.629,0,0,1,.785.287Z" fill="#da2b1e"/>
    <path id="Path_70816" data-name="Path 70816" d="M876.349,656.806c.983-.034,2.035.143,2.7-.88,4.507-.386,8.286-3.5,12.912-3.438a38.343,38.343,0,0,1-16.5,5.911.64.64,0,0,1-.257-.792C875.536,657.274,876.017,657.147,876.349,656.806Z" fill="#c23128"/>
    <path id="Path_70817" data-name="Path 70817" d="M813.746,587.939c-.008.294-.015.589-.023.883a3.864,3.864,0,0,1-1.734,1.529,26.039,26.039,0,0,1-3.763,1.693,1.688,1.688,0,0,1-1.634-.514l-.034-.035c-.236-1.032-2.466-1.911.405-3.062C809.363,587.471,811.5,588.134,813.746,587.939Z" fill="#d7281c"/>
    <path id="Path_70818" data-name="Path 70818" d="M917.815,620.211a13.722,13.722,0,0,1-2.165,7.071c-.773.172-1.23.045-.84-.886,1.769-3.378,1.079-7.545,3.443-10.733C919.326,617.3,918.958,618.791,917.815,620.211Z" fill="#be2417"/>
    <path id="Path_70819" data-name="Path 70819" d="M914.81,626.4l.84.886c-1.067,2.96-2.1,5.939-4.337,8.285C910.093,631.6,914.029,629.6,914.81,626.4Z" fill="#c0241c"/>
    <path id="Path_70820" data-name="Path 70820" d="M849.629,521.422c1.9.146,2.552,1.811,3.61,2.979.415.543,1.241.9.828,1.818C850.674,526.39,849.832,524.2,849.629,521.422Z" fill="#d5291c"/>
    <path id="Path_70821" data-name="Path 70821" d="M904.427,640.23c-.451-1.527-.558-2.663,1.033-2.986a2.352,2.352,0,0,1,1.426.381C906.786,638.916,905.8,639.5,904.427,640.23Z" fill="#db2718"/>
    <path id="Path_70822" data-name="Path 70822" d="M881.678,556.891c-2.139-.825-4.254-1.67-3.836-4.619l.337-.14C879.537,553.577,882.005,554.207,881.678,556.891Z" fill="#ba241d"/>
    <path id="Path_70823" data-name="Path 70823" d="M900.524,646.909a6.247,6.247,0,0,1-3.673,2.537C897.306,647.487,898.413,646.471,900.524,646.909Z" fill="#af231a"/>
    <path id="Path_70824" data-name="Path 70824" d="M904.169,581.6l2.41,1.932a1.842,1.842,0,0,1,.549,2.457C905.6,584.885,903.9,583.905,904.169,581.6Z" fill="#b11a15"/>
    <path id="Path_70825" data-name="Path 70825" d="M888.915,565.394l1.647.417.978,2.409C889.709,568.165,889.433,566.667,888.915,565.394Z" fill="#b82c23"/>
    <path id="Path_70826" data-name="Path 70826" d="M910.984,597.044a11.116,11.116,0,0,1,.757,2.643c-.006.434-.688.514-1,.133C910.246,599.2,910.225,598.471,910.984,597.044Z" fill="#d52616"/>
    <path id="Path_70827" data-name="Path 70827" d="M914.608,596c.825,1.025,1.615,2.061,1.06,3.5C914.764,598.5,913.428,597.634,914.608,596Z" fill="#af2a20"/>
    <path id="Path_70828" data-name="Path 70828" d="M804.887,471.608a18.089,18.089,0,0,1,4.432,4.4c-1.189,8.229-7.523,13.981-10.313,21.444-2.974,3.428-6.7,6.311-7.489,11.255a3.781,3.781,0,0,1-2.2,2.7c-2.839,1.134-3.057,4.089-4.578,5.987-3.657,4.566-5.408,10.053-8.433,14.7-2.469,3.794-3.581,7.985-5.786,11.754-1.237,2.115-2.42,3.959-4.575,5.226-2.456,1.443-4.013,3.5-3.409,6.626a3.735,3.735,0,0,1-2.17,4.437c-2.4,1.088-3.523,3.044-4.247,5.382-4.27,3.415-5.71,8.813-9.011,12.909-3.749,6.028-8.978,11.067-11.793,17.712a40.954,40.954,0,0,1-9.536,17.331c-3.256,3.517-4.994,7.959-7.637,11.726-2.224,3.17-2.957,7.035-5.582,9.842.669.7.177,1.384.028,2.07-1.9,1.3-3.777,2.671-6.239,2.663q-.43-.3-.27-.574c.1-.177.206-.267.308-.267-.261-.505-.388-1.234-.8-1.48-3.435-2.042-3.9-3.779-.9-6.085,4.677-3.6,6.365-8.7,8.006-13.921.088-.281.028-.745.2-.843,5.536-3.175,6.1-10.068,10.536-14.069.642-.58,1.6-1.45,1.527-2.075-.458-3.7,1.762-6.141,3.885-8.513,2.719-3.039,6.3-5.506,5.517-10.382a.878.878,0,0,1,.436-.729c6.875-1.517,4.409-9.176,8.366-12.67,4.107-3.627,5.889-8.624,7.422-13.72.245-.812.9-2.043,1.491-2.121,4.381-.578,4.05-4.289,5.428-7.132,1.42-2.929,4.587-4.845,5.269-8.472.519-2.764,2.988-4.679,4.716-6.551a7.719,7.719,0,0,0,2.425-5.744c5.581-4.92,8.091-11.962,12.316-17.818a6.478,6.478,0,0,0,.857-3.85c.036-1.04-.087-2.369.645-2.968,6.183-5.058,6.919-13.651,12.44-19.051,2.444-2.39,3.006-6.119,6.1-7.961C803.1,472.281,803.62,471.131,804.887,471.608Z" fill="#a11e0c"/>
    <path id="Path_70829" data-name="Path 70829" d="M698.349,612.981c.973.452,1.838.687,1.789-.9-.672-2.972,3.832-4,2.682-7.153l2.684,0c4.935-1.95,5.585-7.471,8.944-10.734-1.629-3.157,1.086-5.285,2.6-6.7,2.393-2.229,2.929-5.169,4.557-7.613,1.238-1.576.3-3.877,1.788-5.367l1.789-1.789c.667-2.73,1.609-4.847,4.51-6.455,3.2-1.774,4-5.983,5.254-9.3a22.811,22.811,0,0,1,2.758-4.816c2.566-2.086,1.843-6,4.473-8.05,2.532,2.632,2.844-.655,4.053-1.533,2.29-2.117,3.327-5.032,4.87-7.623.7-1.18,1.178-2.979,3.123-1.362.877,3.108-1.514,5.723-1.313,8.729-.506,3.891-2.645,6.625-5.738,8.965-3.281,2.482-3.632,6.918-5.345,10.32a32.5,32.5,0,0,1-5.273,7.768c-2.317,2.494-5.027,4.823-3.772,8.846a1.084,1.084,0,0,1-.986,1.577c-6.838.9-5.774,7.591-8.228,11.619-.874,1.435-.922,2.835-3.013,2.853-1.505.013-2.946,1.031-2.245,2.536,2.119,4.553-.187,7.514-3.718,9.187-2.472,1.171-.414,3.34-1.933,4.308-4.79,2.652-5.3,8.043-7.789,12.17-.307.51.031-.167-.261.353-2.689,3.3-3.73,7.591-7.068,10.655a4.153,4.153,0,0,0,1.579,6.7c-3.077.609-5.334-2.737-7.929-.355-.869,1.6-2.53,2.306-3.471.823-1.586-2.5,1.528-2.429,2.577-3.506.808-2.434.284-5.87,4.567-5.612a2.1,2.1,0,0,0,2.024-2.022c-.005-2.045-1.409-2.976-4.169-2.806C699.328,622.889,700.347,620.052,698.349,612.981Z" fill="#941c07"/>
    <path id="Path_70830" data-name="Path 70830" d="M804.887,471.608c-4.084,4.33-7.008,9.53-10.53,14.2-3.461,4.59-3.668,11.4-9.669,14.226-.5.237-.33,1.915-.471,2.924-2.261,1.954-2.907,6.062-7.155,5.367-2.388,0-1.532,3.238-3.577,3.578-1.086-3.674.733-6.943,2.995-8.944,6.629-5.864,9.576-14.16,14.855-20.85,2.7-3.427,5.427-6.608,4.393-11.519-.288-1.37,1.629-1.91,2.806-2.519,1.615-.276,2.219,5.368,4.571.781Z" fill="#9a1d09"/>
    <path id="Path_70831" data-name="Path 70831" d="M752.911,542.316c-2.475-3.259,1.257-5.9.9-8.945,2.432-4.48,3.947-9.531,8.05-12.973,1.075-1.555.5-3.885,2.372-5.064a1.157,1.157,0,0,1,1.206.147c1.793,1.594,3.28,1.607,4.429-.761.729-1.5,1.751-2.732,3.621-2.817-.962,4.213-3.061,7.469-7.582,8.375-1.269.254-1.343.957-1.335,1.827.031,3.6-1,6.627-4.281,8.584-.449.268-1.033.961-.962,1.349C760.31,537.447,755.488,539.176,752.911,542.316Z" fill="#951c08"/>
    <path id="Path_70832" data-name="Path 70832" d="M690.3,637.13c-.212,1.4-2.715,1.583-2.127,2.912.634,1.431,1.994.079,3.021-.229,4.49,4.574-1.033,4.519-2.91,6.225-.009,1.339,2.517-.036,2.032,1.8-.3,1.028-1.084.825-1.83.726-2.185-1.581-3.553.333-5.09,1.265-1.175.711-2.359,1-3.141-.192-1.1-1.678.666-2.062,1.609-2.382,1.313-.446,1.634-.73.688-1.962a1.561,1.561,0,0,1,.737-2.277c3.948-1.88,2.246-4.878,1.644-7.675,1.036-1.269,1.847-.512,2.392.412A2.854,2.854,0,0,0,690.3,637.13Z" fill="#951c0a"/>
    <path id="Path_70833" data-name="Path 70833" d="M777.062,508.326c3.306-.561,3.8-4.874,7.155-5.367a7.542,7.542,0,0,1-2.356,5.872c-2.914,3.212-3.312,8.026-6.565,11.252-1.674,1.66-3.2,3.376-5.39,4.344-.05-1.644-.065-3.248,1.343-4.487C774.747,516.86,775.7,512.487,777.062,508.326Z" fill="#9c1d0b"/>
    <path id="Path_70834" data-name="Path 70834" d="M704.61,622.818c-.149-2.867,3.363-5.066,1.392-8.411-.414-.7,1.133-2.081,2.34-2.154,1.754-.106,2.953-1.152,4.318-1.958.175,2.032-.137,3.9-2.078,5.015C707.594,617.035,707.44,620.986,704.61,622.818Z" fill="#981b08"/>
    <path id="Path_70835" data-name="Path 70835" d="M706.39,638.934c0,.281-.011.562-.037.842l-3.375,1.918C702.646,638.958,705.005,639.548,706.39,638.934Z" fill="#7b1308"/>
    <path id="Path_70836" data-name="Path 70836" d="M765.434,515.481h-.9a1.379,1.379,0,0,1-1.426.377l-.363-.378c.052-2.925.2-5.851.123-8.772-.048-1.9.818-2.7,2.559-2.854.757.8,1,2.377,2.685,1.787h0l1.789-2.683C772.516,508.6,766.16,511.034,765.434,515.481Z" fill="#921a07"/>
    <path id="Path_70837" data-name="Path 70837" d="M761.91,497.757c.439-1.022.525-2.233,1.563-2.937,1.838,1.634.119,2.569-.722,3.676Z" fill="#700e05"/>
    <path id="Path_70838" data-name="Path 70838" d="M762.75,520.848c-4.485,3.1-4.3,9.536-8.944,12.523-1.978,1.505-2.73,3.811-3.817,5.891-.824,1.575-1.6,3.163-3.339,3.948-2.506-3.161-1.049-5.331,1.789-7.156-.02-1.786,1.269-3.258,1.619-4.6.859-3.3,1.405-6.019,5.372-6.618.237-.036-.054-2.268.253-3.382.977-3.551,2.967-6.049,7.067-5.973h0C763.924,517.271,762.657,519.06,762.75,520.848Z" fill="#921b07"/>
    <path id="Path_70839" data-name="Path 70839" d="M737.705,552.155c-1.594,4.148-2.916,8.379-5.031,12.353-.952,1.789-1.086,3.193-3.728,3.286-2.5.088-1.279,4.148-3.763,4.934h0c-2.807-5.317-1.573-9.968,2.337-14.178a.871.871,0,0,1,1.243-.134l0,.9a2.21,2.21,0,0,1,.623,1.134c.1.429.169.864.29,1.287.212-.421.022-.894.175-1.325a2.812,2.812,0,0,1,.7-1.1C734.164,558.155,733.767,552.988,737.705,552.155Z" fill="#8f1b08"/>
    <path id="Path_70840" data-name="Path 70840" d="M748.439,536.054c-2.463,1.919-2.07,4.552-1.789,7.156-1.16,1.949-2.213,4.435-4.472.895,1.265-2.27-.241-4.578.1-7.208C745.053,540.6,746.2,535.487,748.439,536.054Z" fill="#901b08"/>
    <path id="Path_70841" data-name="Path 70841" d="M728.761,558.415l-.89.005a1.326,1.326,0,0,1-.78-.888c.741-2.768,2.388-5.038,4.023-7.314,1.056-.415,1.268.163,1.225,1.041A25.164,25.164,0,0,1,728.761,558.415Z" fill="#8a1b07"/>
    <path id="Path_70842" data-name="Path 70842" d="M736.078,542.371c1.292-3.318,2.593-6.632,5.106-9.279.274,2.135-1.688,3.609-1.676,5.667a3.351,3.351,0,0,1-1.8,3.551Z" fill="#7b1f13"/>
    <path id="Path_70843" data-name="Path 70843" d="M732.339,551.259l-1.225-1.041,1.3-1.632c.892.963,3.146,1.084,2.591,2.823C734.595,552.691,733.251,551.549,732.339,551.259Z" fill="#8f1b08"/>
    <path id="Path_70844" data-name="Path 70844" d="M730.55,559.311v3.6c-2.524-.412-2.025-2.068-1.787-3.6Z" fill="#8a1b07"/>
    <path id="Path_70845" data-name="Path 70845" d="M737.707,542.31l1.8-3.551C740.438,540.719,740.4,542.187,737.707,542.31Z" fill="#931c0a"/>
    <path id="Path_70846" data-name="Path 70846" d="M768.117,505.642c-2.352,1.593-2.279-.457-2.685-1.787Z" fill="#8d1a06"/>
    <path id="Path_70847" data-name="Path 70847" d="M812.841,494.014c1.7-.858,3.341-2.018,5.367-.894-.258,2.68,1.526,2.755,3.432,2.717.777-.015,1.532.2,1.7,1.07.115.582-.153,1.441-.855,1.183-4.058-1.494-3.382,2.085-4.041,3.89-.6,1.651.19,3.484-3.139,3.3-2.295-.128-3.739,2.982-4.247,5.6-.438,2.254-1.592,3.487-3.73,4.859-3.416,2.193-4.814,6.3-5.224,10.473-2.179,1.581-3.752,3.788-5.623,5.675-1.338,1.349-2.931,2.71-1.5,5.674,1.042,2.161-1.516,4.925-3.424,6.76-4.557,4.382-8.252,9.255-10.371,15.293a12.59,12.59,0,0,1-4.145,5.184,15.63,15.63,0,0,0-5.376,8.937c-1.246,5.459-6.28,9.043-7,14.713a1.828,1.828,0,0,1-1.1,1.349c-4.564,1.291-5.127,5.326-6.639,8.947-1.916,4.59-5.434,8.307-7.774,12.764-1.241,2.364-4.633,3.6-4.1,7.151a3.391,3.391,0,0,1-2.476.4c-4.905-.866-2.2-4.138-2.094-6.6.045-4.671,3.09-7.764,5.864-10.959.752-.866,2.151-1.223,2.547-2.4,2.968-8.766,9.8-15.392,13.19-23.923,1-2.519,3.668-3.83,4.729-6.384,1.481-3.567,4.458-6.637,3.319-11.029-.176-.679.554-1.322,1.215-1.727,2.735-.791,4.971-2.047,5.118-5.34a2.346,2.346,0,0,1,.644-1.635c8.494-7.684,11.46-19.237,19.221-27.43,1.857-1.96.584-4.64,1.529-6.817,1.4-3.128,4.28-4.86,6.648-7.077,2.573-4.464,7.886-7.3,7.87-13.3C812.527,494.3,812.684,494.158,812.841,494.014Z" fill="#b42212"/>
    <path id="Path_70848" data-name="Path 70848" d="M744.856,618.338c1.495-2.63-3.222-1.505-2.388-4.162.9-2.876,3.595.512,4.515-1.76,2.706-6.69,9.97-11.033,9.837-19.241-.027-1.635,1.169-2.486,2.986-2.61,2.7-.186,4.622-1.888,4.595-4.505a8.341,8.341,0,0,1,2.53-5.906c3.124-3.115,3.888-6.993,4.729-10.868.6-2.774,3.072-3.43,4.714-4.945,3.771-3.477,4.432-8.688,7.541-12.591,2.059-2.587,3.626-5.573,6.362-7.587,1.887-1.387,2.5-3.6,3.714-5.417a1.676,1.676,0,0,0,.369-1.172c-1.222-3.639-.585-5.195,2.985-7.989,1.539-1.205,1.687-4.321,4.762-3.37-.032.74.237,1.736-.142,2.184-5.064,5.989-5.5,14.384-11.006,20.292-3.924,4.21-6.151,9.789-8.53,15.092a1.633,1.633,0,0,1,.237,1.893c-3.915,2.3-5.628,5.926-6.042,10.271-.238,2.491-1.466,4.147-3.244,5.968a21.14,21.14,0,0,0-6.04,10.512,4.679,4.679,0,0,1-2.238,3.156,22.432,22.432,0,0,0-7.165,9.259c-.847,1.977-1.078,4.238-3.1,5.679-1.25.89.96,1.835.381,2.924-.529,1.459-1.727,2.531-2.316,3.959a13,13,0,0,1-5.336,2.73c-1.011-.328-2.155.917-3.1-.261A1.363,1.363,0,0,1,744.856,618.338Z" fill="#b92313"/>
    <path id="Path_70849" data-name="Path 70849" d="M802.107,540.526v-1.788c1.758-1.915,3-4.025,2.73-6.773-.073-.739-.02-1.719.615-2.051,4.878-2.551,5.6-8.228,9.038-11.87a8.983,8.983,0,0,0,2.878-5.863A4.487,4.487,0,0,1,820,508.327c.986-2.371,4.228-3.355,3.812-6.769-.108-.885,2.385,1.584,3.343-.391a1.548,1.548,0,0,1,1.937-.143c1.873,3.823-1.151,5.812-3.3,7.757-1.661,1.5-2.827,2.89-2.9,5.146a5.5,5.5,0,0,1-1.542,4.068c-4.045,3.5-4.778,9.083-8.4,12.9-1.9,2.005-2.253,5.091-3.223,7.724-1.848,2.726-4.633,3.553-7.707,3.794A1.414,1.414,0,0,1,802.107,540.526Z" fill="#c12516"/>
    <path id="Path_70850" data-name="Path 70850" d="M809.263,538.737c-.23-3.721,1.651-6.627,3.386-9.724,3.265-5.828,8.745-10.477,9.3-17.793.247-3.231,4.379-3.291,5.724-6.071a9.049,9.049,0,0,0,1.262-3.983c-.486-.5-1.47-.751-.89-1.783l.121-2.113,2.557,1.226c-.2,2.171,2.672,2.46,2.742,4.466-.844,1.325.186,2.715-.137,4.061a2.513,2.513,0,0,1-.845,1.619c-3.511.426-4.967,2.982-5.774,5.928-.659,2.407-2.149,4.016-3.758,5.819-3.5,3.926-7.169,7.874-7.57,13.639-.232,3.317-2.421,4.842-5.61,5.084Q809.518,538.926,809.263,538.737Z" fill="#c42517"/>
    <path id="Path_70851" data-name="Path 70851" d="M802.107,540.526v1.79c.549,3.385-2.1,5.643-3.469,8.084-2.381,4.247-3.558,9.216-7.2,12.764-3.016,2.937-4,7.4-7.439,10.054a2.037,2.037,0,0,1-2.046-.741c-1.063-2.388-1.167-4.707.475-6.9v-1.789c3.225-2,7.653-3.524,8.573-7.1.879-3.41,3.162-5.854,4.124-9.094C796.112,544.266,799.3,542.429,802.107,540.526Z" fill="#be2415"/>
    <path id="Path_70852" data-name="Path 70852" d="M820,508.327c-1.672,6.937-6.112,12.422-9.635,18.391-.819,1.389-1.283,2.907-3.3,3.232-1.843.3-1.321,2.056-1.357,3.309-.075,2.593-1.06,4.529-3.6,5.479.744-2.817,2.354-5.437,1.842-8.545-.087-.525.1-1.486.432-1.629,4.154-1.8,4.492-6.4,7.023-9.35,2.339-2.725,5.388-4.667,4.492-9.32C815.335,506.973,817.763,506.712,820,508.327Z" fill="#be2315"/>
    <path id="Path_70853" data-name="Path 70853" d="M820.914,489.54a.553.553,0,0,1,.106.632c-.079,1.8,1.3,4.99-2.811,2.948-.011-1.446.1-2.879-.947-4.137-1.212-1.457-.127-2,1.131-2.379l-.005.005C818.9,487.867,820.038,488.592,820.914,489.54Z" fill="#b61f10"/>
    <path id="Path_70854" data-name="Path 70854" d="M828.048,499.383l.89,1.783h-1.786l-2.528-3.381.313-.479Z" fill="#bd1f0d"/>
    <path id="Path_70855" data-name="Path 70855" d="M806.592,591.53l1.762-.028c1.819-.847,3.587-1.054,5.221.411-1.01,3.664.173,6.66,2.466,9.579,1.575,2,1.271,4.846,2.213,7.2,3.335,4.66,3.549,10.545,6.106,15.566a33.607,33.607,0,0,0,3.274,5.656c1.289,6.864,4.945,12.892,6.9,19.523.37,1.255,1.233,2.381.856,3.8a.8.8,0,0,1-1.234.046,6.444,6.444,0,0,1-5.266-3.487c-1.207-3.381-2.71-6.578-5.408-9.081-.65-.6-1.5-1.3-1.621-2.092-.806-5.533-3.867-10.038-6.405-14.81-2.661-5-2.973-10.991-6.58-15.651-1.3-1.673-.753-4.02-1.458-6.012-1.113-3.145-4.169-4.884-5.306-7.94C803.292,592.79,805.566,593.2,806.592,591.53Z" fill="#a11e0c"/>
    <path id="Path_70856" data-name="Path 70856" d="M802.113,594.208c4.426,2.444,6.6,6.324,7.147,11.235.05.441-.119,1.2.068,1.29,5,2.446,3.713,7.916,5,11.8,2.041,6.134,7.962,10.427,7.637,17.621-.108,2.39,2.5,4.217,4.335,5.9a8.456,8.456,0,0,1,2.587,7.74c-.579-.083-1.35.044-1.708-.282-5.9-5.365-13.2-9.328-16.921-16.87,1.641-2.818,2.441-5.23-.482-8.165-1.645-1.652-.241-5.057-1.559-7.425.244-6.438-3.576-11.387-6.151-16.783a5.034,5.034,0,0,1-.635-1.031c-.241-1.777-1.8-2.28-3.03-3.108a.724.724,0,0,1,.2-1.005Z" fill="#9a1d0a"/>
    <path id="Path_70857" data-name="Path 70857" d="M802.107,598.667v.9a2.448,2.448,0,0,1-2.809.641c5.583,4.442,7.08,11.246,9.964,17.248.306,1.764,2.714,2.943.807,5.434-1.045,1.366,1.9,2.053,2.469,3.6.67,1.84,4.4,3.936-.949,4.5-.5.052-.888,1.079-1.328,1.654-1.019-2.024-4.1-2.165-4.41-4.838.153-1.975-3.757-2.653-1.49-5.653.767-1.014-2.3-.931-3.286-1.9-.579-1.473.582-2.941.063-4.377-.409-1.13.492-3.194-2.191-2.863-1.131.139-1.528-1.038-1.267-2.3.945-4.575-.677-8.4-3.653-11.785-.527-1.352.54-1.878,1.318-2.559a2.766,2.766,0,0,1,2.359-.548C799.279,596.6,801.254,596.768,802.107,598.667Z" fill="#931b07"/>
    <path id="Path_70858" data-name="Path 70858" d="M801.221,620.129c4.006-.741,3.9-.759,3.218,3.394-.245,1.5,3.16,2.083,1.413,4.281-2.36-.456-2.41-3.473-4.585-4.136l-1.153-2.552A1.276,1.276,0,0,1,801.221,620.129Z" fill="#8e1805"/>
    <path id="Path_70859" data-name="Path 70859" d="M842.355,654.119c1.25-1.206,2.9-1.4,4.48-1.786,1.283-.179,2.428-1.813,3.865-.371.788,1.467-1.725,1.446-1.221,2.772,1.055,1.145,4.578-.029,3.163,3.373-2.6.6-4.967-1.449-7.581-.642l-1.8-.68c-.407-.671-.182-1.529-.658-2.178C842.513,654.448,842.434,654.283,842.355,654.119Z" fill="#ae2211"/>
    <path id="Path_70860" data-name="Path 70860" d="M871.034,658.679a37.674,37.674,0,0,1-17.134.108q.241-.3.482-.61c1.659-1.005,3.508-.715,5.307-.787,2.99,1.029,6.092.757,9.169.774C869.614,658.207,870.427,658.006,871.034,658.679Z" fill="#983227"/>
    <path id="Path_70861" data-name="Path 70861" d="M834.157,653.281l.993-.166c2.378-1.375,4.384-.38,6.33,1q.437.006.875.008l0,.01a1.724,1.724,0,0,1,.032,2.483A20.2,20.2,0,0,1,834.157,653.281Z" fill="#932215"/>
    <path id="Path_70862" data-name="Path 70862" d="M845.061,657.465c2.734-1.912,5.336.864,8.034.225a.686.686,0,0,1,.888-.2.675.675,0,0,1,.2.6c-.042.21-.089.315-.142.315l-.14.38A23.416,23.416,0,0,1,845.061,657.465Z" fill="#942111"/>
    <path id="Path_70863" data-name="Path 70863" d="M871.034,658.679l-1.854-.168c-.285-.189-.374-.369-.27-.542s.2-.254.3-.254l2.666-.026a3.56,3.56,0,0,1,3.559.01q0,.351.02.7Z" fill="#a82b1f"/>
    <path id="Path_70864" data-name="Path 70864" d="M842.384,656.612q-.016-1.241-.032-2.483c3.647-.259,1.42,1.492.908,2.656Z" fill="#a71e05"/>
    <path id="Path_70865" data-name="Path 70865" d="M714.448,594.194c-2.047,4.356-3,9.626-8.944,10.734.2-1.91,3.384-3.107.75-5.454,1.845-.33,1.71,1.552,2.946,1.491.493-1.775-1.383-2.516-1.743-4.5C711.439,599.88,711.246,592.941,714.448,594.194Z" fill="#901c09"/>
    <path id="Path_70866" data-name="Path 70866" d="M727.091,557.532l.78.888c-.042.288.019.661-.139.852-3.325,4.022-3.251,8.677-2.551,13.455-2.747-.383-1.346-3.252-2.684-4.479-1.548-1.206.888-2.36.047-3.557l.9-2.68Z" fill="#891c08"/>
    <path id="Path_70867" data-name="Path 70867" d="M702.82,604.93c.993,2.217,3.168,4.75-1.588,5.339-.433.053-.732,1.184-1.094,1.814-2.45-1.792-.778-3.592-.01-5.39a2.16,2.16,0,0,1,.942-2.655Z" fill="#901c09"/>
    <path id="Path_70868" data-name="Path 70868" d="M704.7,594.225l1.631-1.854c.859-.252,1.242,0,.974.926a44.528,44.528,0,0,1-6.251,9.853,1.474,1.474,0,0,1-1.177-.837,1.049,1.049,0,0,1,.131-.948Z" fill="#74190e"/>
    <path id="Path_70869" data-name="Path 70869" d="M722.544,564.691c1.543,1.207-.364,2.367-.047,3.557-1.866,2.3-1.7,6.1-5.256,7.148C717.753,571.206,720.32,568.034,722.544,564.691Z" fill="#77180e"/>
    <path id="Path_70870" data-name="Path 70870" d="M723.394,574.517c-.6,1.786,1.447,4.457-1.788,5.367C721.715,577.933,719.047,575.057,723.394,574.517Z" fill="#901c0c"/>
    <path id="Path_70871" data-name="Path 70871" d="M707.3,593.3q-.488-.462-.974-.926l2-4.142c.917-.642,1.138-2.067,2.493-2.217C710.345,588.777,709.863,591.539,707.3,593.3Z" fill="#891d09"/>
    <path id="Path_70872" data-name="Path 70872" d="M700.277,602.256l.776.894a8.48,8.48,0,0,0,.017.887l-.942,2.656c-.756-.4-.842-1.133-.926-1.867A2.543,2.543,0,0,1,700.277,602.256Z" fill="#690a01"/>
    <path id="Path_70873" data-name="Path 70873" d="M682.368,632.7c1.022-2.417,1.923-4.915,4.314-6.411a12.182,12.182,0,0,1-2.647,7.27Z" fill="#7b190d"/>
    <path id="Path_70874" data-name="Path 70874" d="M690.35,619.266c.254-1.685,2.016-2.228,2.709-3.579q.414-.024.829-.025C693.711,617.848,693.7,620.2,690.35,619.266Z" fill="#73180d"/>
    <path id="Path_70875" data-name="Path 70875" d="M678.668,653.212l-1.5,1.055-1.3-.688C676.723,652.839,677.545,651.878,678.668,653.212Z" fill="#760800"/>
    <path id="Path_70876" data-name="Path 70876" d="M801.221,620.129l-1.107.987c-3.749-4.207-7.449-8.477-13.116-10.225-1.845-2.242-4.518-2.069-7.013-2.381-1.547-.193-3.194.366-4.633-.636-.722-1.435.513-1.874,1.285-2.554,2.412-1.249,4.881-2.393,7.279-3.675,1.99-1,4.072-1.8,6.077-2.772a6.449,6.449,0,0,1,2.319-.889,2.1,2.1,0,0,1,1.71.661c3.885-.192,4.056,4.012,4.374,5.534.492,2.348,2.839,5.444-.372,7.831,1.97,1.082,2.366-1.422,4.091-.9C801.173,614.047,803.912,617.263,801.221,620.129Z" fill="#8d1a06"/>
    <path id="Path_70877" data-name="Path 70877" d="M774.256,609.316c-3.837,1.258-8.069,1.331-11.491,3.832a3.378,3.378,0,0,1-2.525.343c-2.5-1.871-1.795-3.121.775-4.02a15.968,15.968,0,0,1,3.112-1.045c3.36.036,6.28-3.033,9.868-1.41a1.629,1.629,0,0,1,.809,1.086A1.312,1.312,0,0,1,774.256,609.316Z" fill="#bc2919"/>
    <path id="Path_70878" data-name="Path 70878" d="M774.37,608.687l-.023-1.086a.605.605,0,0,1,.888-.013,45.866,45.866,0,0,1,10.348.839c1.772.364,2.4.8,1.414,2.464-1.727-.7-3.776-.3-5.34-1.558C779.3,608.354,776.751,609.44,774.37,608.687Z" fill="#781c0e"/>
    <path id="Path_70879" data-name="Path 70879" d="M712.672,635.347c-1.084-.29-2.14,1.293-3.256.086a1.916,1.916,0,0,1,2.151-1.828c1.555-.038,2.583.111,1.239-2.03-.652-1.039,1.088-3.628,1.383-3.862,5.734-4.55,7.189-12.066,12.436-17.146a25.783,25.783,0,0,0,7.5-14.583c2.9-3.357,5.6-6.95,10-8.565a2,2,0,0,1,1.072.586,2.95,2.95,0,0,1,.38,1.79,4.355,4.355,0,0,1-.346,1.147,8.6,8.6,0,0,0-1.323,3.762,7.83,7.83,0,0,1-2.259,3.38c-1.273,1.173-2.605,2.3-3.083,4.08-1.451,3.263-5.685,4.913-5.115,9.468.163,1.3-2.123,1.855-3.2,2.853-1.281,1.193-3.217,1.829-3.688,3.714-.612,2.454-2,5.355,2.382,5.9.592.072.891.717.864,1.379a3.011,3.011,0,0,1-2.2,1.019c-.868.184-1.809-.273-2.593.308.279.753,1.049.57,1.551.862,1.111.62.515,1.493.346,2.3-2.552,2.08-5.631,2.908-8.737,3.672C716.321,634.116,714.82,635.775,712.672,635.347Z" fill="#a61f0d"/>
    <path id="Path_70880" data-name="Path 70880" d="M729.655,625.5c-1.576-1.838-4.059-.12-5.616-1.306.438-5.573,2.452-10.017,7.9-12.166.263-.1.723-.375.7-.435-1.773-5.137,3.859-6.6,5.064-10.245a2.041,2.041,0,0,1,2.4-.4c.995,2.863-.858,5.426-2.2,7.049-2.075,2.512-2.024,4.992-2.136,7.716a7.175,7.175,0,0,1-1.309,2.3c-.885,1.269-1.517,2.751-.889,4.177.774,1.759,2.318.474,3.537.475.806,0,1.916-.32,1.566,1.208a15.757,15.757,0,0,1-8.971,4.374c-.151-.147-.3-.3-.454-.442A1.894,1.894,0,0,1,729.655,625.5Z" fill="#ac1f0e"/>
    <path id="Path_70881" data-name="Path 70881" d="M738.675,623.883c-.227-.168-.472-.5-.679-.48-1.91.2-4.439,2.683-5.516.313a5.606,5.606,0,0,1,2.077-7.311c.223-.135.313-.49.465-.742,1.7-1.8,3.412-3.567,6.261-2.684.121,1.819-2.268,4.058.9,5.368,1.265,1.728-.86,2.424-1.116,3.684a4.963,4.963,0,0,1-.609.943C740.294,624.123,739.382,623.8,738.675,623.883Z" fill="#b12112"/>
    <path id="Path_70882" data-name="Path 70882" d="M759.455,613.993a7.73,7.73,0,0,0-.25.788l-6.3,2.623c-1.506-2.247.291-2.815,1.795-3.532C756.3,613.23,757.9,612.614,759.455,613.993Z" fill="#bc2919"/>
    <path id="Path_70883" data-name="Path 70883" d="M740.455,622.974l-.074-1.059c.9-2.065,2.5-2.4,4.479-1.806.9-.245,1.817-1.391,2.707.025A16.966,16.966,0,0,1,740.455,622.974Z" fill="#a31c10"/>
    <path id="Path_70884" data-name="Path 70884" d="M712.672,635.347c1.769-.8,3.379-2.1,5.517-1.709-1.333,2.016-3.675,2.407-5.6,3.474C711.674,636.481,712.6,635.933,712.672,635.347Z" fill="#891f0f"/>
    <path id="Path_70885" data-name="Path 70885" d="M726.926,629.966c-.942-.628-.02-1.176.075-1.759.8-1.585,1.663-1.455,2.573-.1l.13.148C729.138,629.412,727.794,629.3,726.926,629.966Z" fill="#891a0f"/>
    <path id="Path_70886" data-name="Path 70886" d="M832.52,508.326v-1.789a14.552,14.552,0,0,1,2.8-1.232c3.585,2.518,6.113,6.031,8.815,9.379-2.934,2.706-1.762-2.41-3.559-1.869-5.254,1.733-7.513,5.9-8.736,10.857a9.482,9.482,0,0,1-1.522,3.65,126.531,126.531,0,0,0-13.834,22.091c-1.409,2.964-3.936,5.2-5.8,7.881a26.273,26.273,0,0,0-3.93,7.934c-.9,3.2-2,6.281-5.7,7.346-.419.12-1.063.448-1.062.736.008,4.821-4.528,7.386-5.684,11.584-.352,1.276-.148,2.881-1.26,3.705-4.691,3.472-6.668,9.02-10.358,13.245a4.033,4.033,0,0,1-1.082.716,3.123,3.123,0,0,1-2.89-1.043c.417-2.467-.284-5.14,1.328-7.4a4.761,4.761,0,0,1,.995-.685c.252-.146.7-.276.72-.46.592-5.946,4.982-9.512,8.481-13.638,2.057-5.025,4.4-9.915,6.678-14.834.845-1.821,1.644-3.535,3.3-4.6,5.453-3.5,7.812-9.057,9.76-14.794a9.827,9.827,0,0,1,3.288-5.152c5.054-3.622,6.671-9.312,9.055-14.544.423-.93.227-2.309,1.041-2.892C828.307,518.974,829.843,513.291,832.52,508.326Z" fill="#cc2619"/>
    <path id="Path_70887" data-name="Path 70887" d="M835.321,505.3c-.144,2.2-1.334,2.032-2.8,1.232-.01-1.278-1.273-2.887.947-3.575Z" fill="#d02a1d"/>
    <g id="Group_25768" data-name="Group 25768">
      <path id="Path_70888" data-name="Path 70888" d="M687.653,690.026c-.913-.626-1.934-1.1-2.99-1.691,2.193-2.775,4.941-5.04,3.2-8.835s-5.236-4.036-8.682-4.144c-4.136-.134-8.28-.027-12.567-.027,1.692,8.324.627,16.353.94,24.337.045,1.164-.734,3.07,1.477,3.007,5.468-.152,11.018.806,16.4-.984a6.687,6.687,0,0,0,4.789-5.863A5.762,5.762,0,0,0,687.653,690.026Zm-12.54-12.62c5.916.349,8.906,1.817,8.789,5.245-.116,3.6-2.479,4.771-7.545,5.281-5.048.519-4.869-2.256-4.484-5.648C672.079,680.154,670.575,677.137,675.113,677.406Zm6.149,22.654c-1.029.08-2.068.009-4.171.009-4.976-.126-7.026-2.99-5.209-8.772a2.337,2.337,0,0,1,.555-1.136c2.085-1.629,11.385.366,12.728,2.7C687.116,696.247,685.227,699.747,681.262,700.06Z" fill="#030303"/>
      <path id="Path_70889" data-name="Path 70889" d="M793.16,678.275c.531-.925-1.989-2.139.129-2.781,1.694-.514,3.571-.66,4.57,1.451q5.412,11.438,10.8,22.884c.392.838,1.538,2.03.2,2.642-1.239.566-2.974.811-3.928-.85a12.685,12.685,0,0,1-1.191-2.875c-.63-2.253-2.054-2.976-4.318-2.76a30.206,30.206,0,0,1-5.8,0c-3.942-.39-6.772.479-7.643,4.978-.369,1.906-2.2,2.125-4.377,1.463a90.026,90.026,0,0,1,7.813-16.492,4.922,4.922,0,0,1,2.249,2.779c.35,1.1-.2,2.151-.125,3.22,2.7.561,5.379,1.2,7.865-.6.118-.359.261-.7.4-1.048.275-.676,1.076-1.019,1.139-1.932-.533.609-.981,1.28-1.887,1.037-2.366-1.719-2.743-4.562-3.942-6.938C794.832,680.894,793.83,679.662,793.16,678.275Z" fill="#030303"/>
      <path id="Path_70890" data-name="Path 70890" d="M735.67,686.411c-2.881-3.107-5.614-.609-8.406.2-2.844.828-2.094,3.146-2.133,5.1-.055,2.822-.1,5.651.027,8.468.086,1.856-.4,2.639-2.433,2.622-1.953-.017-2-.982-2.091-2.481-.328-5.289,1-10.676-.946-15.88a1.162,1.162,0,0,1,1.085-1.585c1.259-.084,3.271-1.413,3.626-.225,1.166,3.908,3.377,1.072,4.737.8,3.848-.784,7.943-2.57,10.28,2.111,2.547,5.1,1.146,10.707.733,16.077-.1,1.28-1.977,1.561-3.333.621-.942-3.887-.146-7.842-.466-11.749C736.238,689.122,737.057,687.569,735.67,686.411Z" fill="#030303"/>
      <path id="Path_70891" data-name="Path 70891" d="M861.831,700.731c-2.381-3.258-1.5-6.579-1.468-9.828.045-3.75-.859-6.6-4.4-8.243a21.893,21.893,0,0,0-7.751-.045h-.018c-1.691.09-4.394-.2-3.974,2.041.412,2.175,2.712.268,4.162.161,1.781-.125,3.428-.3,5.183.564a3.837,3.837,0,0,1,2.255,4.35c-.233,2.1-2.076,1.119-3.2,1.378-2.444.564-5.066.161-7.42,1.28a5.875,5.875,0,0,0-3.742,5.523c.009,2.756,1.54,4.242,4.216,4.609a10.633,10.633,0,0,0,5.845-.018c2.372-.5,4.681-3.016,7.205.09C859.074,703.04,862.914,702.217,861.831,700.731Zm-12.325-.376c-2.1.564-4.448-.555-4.35-3.106.161-4.52,3.983-3.293,6.758-3.723,1.468.465,3.92-1.4,4.063,2.247C856.174,700.892,852.048,699.675,849.506,700.355Z" fill="#030303"/>
      <path id="Path_70892" data-name="Path 70892" d="M832.515,685.42c0,4.911-.015,9.821,0,14.731,0,1.378.144,2.616-1.937,2.644-1.988.026-2.534-.706-2.475-2.6.123-4.013-.04-8.036.069-12.05.056-2.054-.1-3.588-2.771-3.167-.674.106-1.612.251-1.76-.783-.2-1.369.955-1.327,1.768-1.324,2.022.009,2.627-.791,2.832-2.9.629-6.5,8.262-10.108,14.094-6.918.8.436,1.115.971.776,1.752s-.7,1.764-1.85,1.56a22.606,22.606,0,0,1-3.445-.863c-3.8-1.313-5.1.369-5.361,4-.2,2.8,1.086,2.974,3.364,3.2,1.452.146,4.447-2.22,4.492,1.785C837.828,685.771,835,684.2,832.515,685.42Z" fill="#030303"/>
      <path id="Path_70893" data-name="Path 70893" d="M895.109,690.76c.063-3.777-1.011-6.543-4.654-8-.063-.044-.116-.08-.179-.116-.734-.448-1.629-.609-2.086.09-1.02,1.584,1.2,1.87,1.468,3,2.032,4.9,1.978,4.923-3.231,5.522-2.032.233-4.1.162-6.077,1.084-2.739,1.279-4.332,3.177-3.831,6.247.474,2.918,2.613,4.153,5.379,4.368a14.221,14.221,0,0,0,7.357-1.235c.788-.367,1.782-1.567,2.721-.314,1.88,2.5,3.482.931,5.46-.2C893.793,698.243,895.056,694.314,895.109,690.76Zm-10.49,9.595a3.073,3.073,0,0,1-3.831-3.231c-.071-4.708,3.724-2.981,6.006-3.607,1.719.295,4.064-1.155,4.064,2.354C890.867,700.516,887.188,699.854,884.619,700.355Z" fill="#030303"/>
      <path id="Path_70894" data-name="Path 70894" d="M714.2,700.776c-2.488-3.92-.6-8.074-1.154-12.057-.412-2.962-.931-5.6-4.529-6.095a20.388,20.388,0,0,0-7.617.054c-1.773-.063-4.458.188-4.1,1.915.484,2.363,2.793.564,4.323.251,5.084-1.047,7.465.7,7.9,5.791-1.128.9-2.444.653-3.724.617a4.289,4.289,0,0,0-1.924.323c-.009,0-.009.009-.018.009s-.009.009-.018.009a7.327,7.327,0,0,0-4.341.438c-2.381,1.253-4.7,2.739-4.332,5.916.278,2.417.94,4.762,4.18,4.61a9.578,9.578,0,0,0,5.173-.018c2.515-.555,4.9-3.025,7.635.036C712.312,703.309,714.746,701.635,714.2,700.776Zm-11.618-.385c-2.712.806-4.215-1.19-4.26-3.616-.072-4.592,3.786-2.533,6.041-3.3,1.638.743,4.852-1.718,4.691,2.56C708.884,700.472,705.071,699.657,702.582,700.391Z" fill="#030303"/>
      <path id="Path_70895" data-name="Path 70895" d="M865.687,674.291c6-2.573,6-2.567,5.986,3.524-.016,7.279-.034,14.558,0,21.836.009,1.74.13,3.186-2.4,3.151s-1.933-1.685-1.941-3.038c-.033-5.942-.081-11.885.016-17.826C867.393,679.227,867.245,676.622,865.687,674.291Z" fill="#030303"/>
      <path id="Path_70896" data-name="Path 70896" d="M818.986,687.782c-.005,3.725.077,7.454-.044,11.176-.049,1.508,1.054,3.71-2.112,3.826-3.211.118-2.228-2.079-2.246-3.61-.072-6.11-.01-12.22-.039-18.331-.006-1.469.2-2.95-.476-4.394-.381-.812-1.481-1.887-.084-2.686a5.169,5.169,0,0,1,4.278-.776c1.27.454.69,1.783.7,2.724C819.023,679.734,818.99,683.758,818.986,687.782Z" fill="#030303"/>
      <path id="Path_70897" data-name="Path 70897" d="M905.94,683.637c1.11,1.927,2.321.548,3.381.016,7.677-3.855,13.58-1.669,12.565,8.566a72.366,72.366,0,0,0-.037,7.6c.01,1.507.255,2.907-2.111,2.981-2.336.073-2.26-1.184-2.231-2.785.053-2.98.049-5.962.012-8.942-.077-6.1-1.344-6.984-7.264-5.176-.561.171-1.141.277-1.713.413-.96-.115-1.921.538-2.883,0C904.432,685.613,904.515,684.822,905.94,683.637Z" fill="#030303"/>
      <path id="Path_70898" data-name="Path 70898" d="M905.94,683.637c-.59,1.507-.59,1.507,2.6,2.671a4.281,4.281,0,0,0-2.374,4.325c.176,3.27-.014,6.558.073,9.835.046,1.753-.637,2.326-2.357,2.289-1.7-.035-1.878-.941-1.873-2.282q.039-9.615-.01-19.23c-.008-1.463.2-2.924-.455-4.392-.406-.907-2-2.012-.478-3.035a5.114,5.114,0,0,1,4.271-.844c1.554.491.814,2.045.834,3.1C906.22,678.592,906.033,681.116,905.94,683.637Z" fill="#030303"/>
      <path id="Path_70899" data-name="Path 70899" d="M754.568,690.416c2.482-2.31,5.014-4.569,7.429-6.948,1.8-1.77,3.278-1.644,4.706.4-.108.225-.154.525-.329.659-7.709,5.917-7.706,5.911-.986,13.285,1.261,1.384,2.464,2.819,3.886,4.451-3.228,1.049-5.447.526-7.252-2-1.463-2.043-3.282-3.829-4.8-5.836-.991-1.309-1.95-1.684-3.288-.618a1.5,1.5,0,0,1-.636-1.126C753.255,691.669,754.325,691.275,754.568,690.416Z" fill="#030303"/>
      <path id="Path_70900" data-name="Path 70900" d="M753.8,692.594l.13,1.218-1.692,1.529c-1.6,2.245,1.147,5.111-1.039,7.274a3.009,3.009,0,0,1-3.043-.2c-1.336-5.2-.349-10.5-.6-15.743-.141-2.927.009-5.871-.15-8.8a3.547,3.547,0,0,0-.77-1.343c-1.355-4.8,2.58-2.866,4.483-3.518.96,5.3.266,10.643.393,15.964C751.555,690.786,751.7,692.229,753.8,692.594Z" fill="#030303"/>
      <path id="Path_70901" data-name="Path 70901" d="M791.222,689.011a3.562,3.562,0,0,1-1.8-3.076,17.511,17.511,0,0,1,3.743-7.66c1.66.677,3.057,1.543,2.641,3.7C794.059,684.181,794.384,687.731,791.222,689.011Z" fill="#030303"/>
      <path id="Path_70902" data-name="Path 70902" d="M890.451,682.76c-4.011-.008-.314,2.04-.794,2.974a9.02,9.02,0,0,0-7.637-.394c-1.18.424-3.36,1.254-3.685-.692-.269-1.613,1.859-1.815,3.246-2.009C884.537,682.226,887.525,680.66,890.451,682.76Z" fill="#030303"/>
      <path id="Path_70903" data-name="Path 70903" d="M753.8,692.594c-2.357,1.27-2.722-.006-2.707-2.022.046-5.853.021-11.707.024-17.561,1.847,5.363.553,10.892.753,16.335.121,3.3,1.328,1.922,2.7,1.07Z" fill="#030303"/>
      <path id="Path_70904" data-name="Path 70904" d="M735.67,686.411c2.339,2.506.819,5.559,1.111,8.343a69.88,69.88,0,0,1,.035,7.481C735.377,697.037,737.2,691.6,735.67,686.411Z" fill="#030303"/>
      <path id="Path_70905" data-name="Path 70905" d="M832.515,685.42c2.4-2,5.188-.69,7.795-.935C837.859,686.024,835.033,684.436,832.515,685.42Z" fill="#030303"/>
      <path id="Path_70906" data-name="Path 70906" d="M855.957,682.663c-2.591.79-5.173-.177-7.762-.044A8.6,8.6,0,0,1,855.957,682.663Z" fill="#030303"/>
      <path id="Path_70907" data-name="Path 70907" d="M708.515,682.626c-2.54-.161-5.071.84-7.616.055A8.191,8.191,0,0,1,708.515,682.626Z" fill="#030303"/>
      <path id="Path_70908" data-name="Path 70908" d="M752.133,697.056c-.847,1.7.877,3.875-1.011,5.375.479-2.347-1.159-5.027,1.118-7.09Z" fill="#030303"/>
      <path id="Path_70909" data-name="Path 70909" d="M709.022,690.631c-1.608,2-3.75.839-5.678.957Z" fill="#030303"/>
      <path id="Path_70910" data-name="Path 70910" d="M845.67,702.521l5.844-.017A7.441,7.441,0,0,1,845.67,702.521Z" fill="#030303"/>
      <path id="Path_70911" data-name="Path 70911" d="M698.852,702.557l5.167-.016A5.963,5.963,0,0,1,698.852,702.557Z" fill="#030303"/>
      <path id="Path_70912" data-name="Path 70912" d="M800.273,690.905c-1.047-.239-.781-1.16-.962-1.849,1.146-.04.712-2.469,1.78-1.68C802.849,688.675,801.15,689.839,800.273,690.905Z" fill="#030303"/>
      <path id="Path_70913" data-name="Path 70913" d="M748.438,702.446c-1.746-1.01-.774-2.664-.812-3.979-.213-7.289-.269-14.583-.379-21.875,1.806.893,1.164,2.577,1.174,3.958C748.476,687.848,748.442,695.147,748.438,702.446Z" fill="#030303"/>
    </g>
    <path id="Path_70914" data-name="Path 70914" d="M798.529,496.7c1.19-2.6.792-5.8,3.507-7.87,3.464-2.645,4.451-6.577,4.855-10.762.093-.96,2.287-.517,2.428-2.053q1.379,1.394,2.758,2.785c.226,1.494,2.707,1.05,2.5,2.913q.921,1.676,1.843,3.349c-1.308.747-3.753-.02-3.583,2.693-1.775,3.617-5.975,5.56-6.785,9.845a7.193,7.193,0,0,1-6.232,3.231C797.485,500.052,797.759,498.452,798.529,496.7Z" fill="#a8200f"/>
    <path id="Path_70915" data-name="Path 70915" d="M805.685,497.592c.085-2.477-.786-5.248,3.214-5.882,1.794-.284,1.047-4.124,3.941-3.958-1.482,2.088.552,4.175,0,6.262h0a3.458,3.458,0,0,1-1.554.92c-2.555-.454-2.757,3.131-5.126,3Z" fill="#ac200f"/>
    <path id="Path_70916" data-name="Path 70916" d="M820.914,489.54c-1.821-.133-2.774-1.014-2.526-2.93C820.068,486.864,821.3,487.5,820.914,489.54Z" fill="#af2212"/>
    <path id="Path_70917" data-name="Path 70917" d="M869.212,657.715q-.018.4-.032.8-4.914.028-9.828.06c-1.111-.995-2.744.144-3.833-.935.058-.154-.481-3.591-.569-3.921-.49-1.849-.413-3.813-1.316-5.59-1.2-2.366-2.513-4.7-2.775-7.439a3.036,3.036,0,0,0-1.253-2.277c-4.672-3.147-4.2-8.511-5.683-13.041a3.417,3.417,0,0,1,1.119-2.551c1.8,3.082,3.7,6.113,5.331,9.278.492.953.8,1.877,1.825,2.35,2.116,3.673,2.691,8.082,6.445,11.063,1.422,1.128,1.336,4.49,1.443,6.856.144,3.182,1.142,5.244,4.639,5.331Z" fill="#c02416"/>
    <path id="Path_70918" data-name="Path 70918" d="M838.782,590.617A9.448,9.448,0,0,1,843.151,596c2.514,7.353,5.236,14.692,9.205,21.326,2.26,3.778,2.324,8.517,6.12,11.684,2.181,1.82.556,5.369.877,8.119a32.765,32.765,0,0,1-6.785-11.709q-6.03-16.877-13.622-33.039A5.339,5.339,0,0,1,838.782,590.617Z" fill="#c82617"/>
    <path id="Path_70919" data-name="Path 70919" d="M845.041,625.5a6.529,6.529,0,0,0,1.767,5.269c.758.927,2.131,1.7.547,3.252-.964.946-.272,1.912.99,2.234,2.846.725,3.577,2.524,4.032,5.429.677,4.319,3.947,7.991,3.906,12.687,0,.328,1.418.668,2.255,1.036-.868.862-2.889.329-2.76,2.285a1.235,1.235,0,0,1-1.8.027q-.442-.012-.885-.031c-.7-2.221-3.638-.685-4.476-2.671.279-1.106,3.366-.335,1.792-2.681-1.191-.925-2.385.426-3.577-.005,4.236-3.417-.028-6.551-.608-9.6-1.5-7.864-6.589-14.415-8.825-22.188-.936-3.254-1.924-7.32-3.611-9.765-3.373-4.888-5.373-10.383-8.555-15.251-1.106-1.692-2.481-2.983-.706-5.03.93-1.071-.118-1.335-.932-1.8-1.421-.818-3.31-.269-4.495-1.645l8.05-.005c.766.635,2.183.478,2.4,1.737,1.017,5.825,6.142,10.178,5.878,16.457a.674.674,0,0,0,.107.428C840.861,611.245,840.737,619.434,845.041,625.5Z" fill="#ba2314"/>
    <path id="Path_70920" data-name="Path 70920" d="M811.926,589.713a1.892,1.892,0,0,1,1.8-.891c6.981.041,7.468.407,8.019,7.493a10.037,10.037,0,0,0,2.379,5.6c4.992,5.718,6.935,13.159,8.682,19.768,1.4,5.294,7.918,9,5.084,15.441-2.877.995-2.735-1.507-3.165-2.957-.657-2.212-1.384-4.236-3.659-5.266a3.309,3.309,0,0,1-.878-.952c-.577-3.249-2.571-5.9-3.758-8.9-.889-4.384-1.861-8.623-5.047-12.183a12.251,12.251,0,0,1-3.223-8.193C818.362,593.774,815.818,591.435,811.926,589.713Z" fill="#ae2110"/>
    <path id="Path_70921" data-name="Path 70921" d="M830.73,628.185c2.8-.087,3.953,1.379,4.654,4.031.443,1.678-.314,4.332,2.5,4.913,3.5,2.938,4.236,7.613,6.926,11.125,1.14,1.488-.815,3.167-2.462,4.076-3.591.015-5.659-1.527-6.517-5.243s-2.078-7.38-4.987-10.277c-1.826-1.818-1.308-4.436-1.136-6.812A2.923,2.923,0,0,1,830.73,628.185Z" fill="#ad2010"/>
    <path id="Path_70922" data-name="Path 70922" d="M830.73,629.974c.166,2.929-.668,5.731,2.942,8.008,2.05,1.293,3.205,5.358,3.23,8.188.036,4.173,3,4.7,5.449,6.16a1.808,1.808,0,0,0-.872,1.781c-2.224.4-4.172-.956-6.328-.995-3-7.6-7.645-14.629-8-23.142C828.345,628.878,829.537,629.077,830.73,629.974Z" fill="#a51f0d"/>
    <path id="Path_70923" data-name="Path 70923" d="M875.437,657.7l-3.559-.01c.946-1.293,2.346-.752,3.579-.889l.892.006Z" fill="#c6281c"/>
    <path id="Path_70924" data-name="Path 70924" d="M781.536,602.245c3.294-4.82,5.117-10.746,10.574-13.944,1-.588,1.046-1.728,1.049-2.8.007-2.659-.556-5.54,3.554-5.913a1.927,1.927,0,0,0,1.253-2.847c-1.828-3.112.61-4.891,2.522-5.2,3.493-.57,4.513-3.432,4.834-5.475a21.5,21.5,0,0,1,6.345-11.854c4-4.011,4.484-9.768,8.294-13.726,3.636-3.779,4.795-9.274,8.718-12.981,3.059-2.89,2.391-7.563,4.877-11.024,1.976-2.752,3.746-4.2,7.021-3.666-.14.724-.646,1.67-.363,2.137,2.53,4.165-.529,6.018-3.369,7.376-1.73.828-2.675,1.435-2.56,3.4.112,1.9.132,3.407-2.408,4.451-2.575,1.058-.19,4.791-2.041,6.767-.655.268-1.85.481-1.884.812-.534,5.217-5.52,8.375-6.167,13.5-.932.051-2.032.276-2.248,1.163-1.145,4.7-5.782,7.465-6.627,12.327-.681,3.917-5.765,4.574-6.554,8.593a15.143,15.143,0,0,0-.671,2.963c-.975,1.988-1.761,4.112-4.282,4.752a2.308,2.308,0,0,0-1.734,1.891c-.642,5.3-4.615,8.474-7.66,12.247-1.016,1.259-2.134,2.519-1.547,4.362a19.869,19.869,0,0,1-6.208,2.708A2.2,2.2,0,0,1,781.536,602.245Z" fill="#d22719"/>
    <path id="Path_70925" data-name="Path 70925" d="M790.462,599.558c-3.84-1-.8-3.616-.338-4.094,3.856-4.018,7.623-7.762,8.8-13.74.509-2.582,5.253-2.549,6.758-5.418.679,4.414-2.976,6.8-4.924,9.884-1.079,1.707-1.089,4.277-3.6,5.263-.474.186-.912,3.116,1.448,3.671-.023.292-.032.583-.026.875a.564.564,0,0,1-.9.089l-1.819.8c-1.191.589-2.564.8-3.592,1.729Z" fill="#d4281b"/>
    <path id="Path_70926" data-name="Path 70926" d="M845.041,625.5c-3.113-.465-3.711-2.752-4.073-5.37a8.992,8.992,0,0,0-1.312-4.2c-4.979-6.345-4.057-15.363-9.788-21.318a3.82,3.82,0,0,1-.9-3.322,4.51,4.51,0,0,0-1.817-4.249c3.813.849,7.03,4.354,7.121,8.1.093,3.843,1.992,7.166,2.861,10.782.31,1.289,1.664,2.328,2.541,3.481,1.778,2.073,1.326,4.913,2.478,7.242a4.847,4.847,0,0,0,1.994,2.6,6.018,6.018,0,0,1,.9,3.578Q845.042,624.161,845.041,625.5Z" fill="#bd2415"/>
    <path id="Path_70927" data-name="Path 70927" d="M844.147,619.24c-1.86.187-2.571-.707-2.84-2.518-.366-2.467-1.072-4.883-1.632-7.321C842.254,612.186,842.41,616.072,844.147,619.24Z" fill="#c02416"/>
    <path id="Path_70928" data-name="Path 70928" d="M811.926,589.713c5.317.428,6.43,1.757,6.817,6.772.288,3.724,1.4,7.606,3.86,10.274,3.408,3.693,4.312,7.86,4.549,12.481-3.047-.612-1.891-4.39-4.2-5.555-1.693-1.333-2.295-3.4-3.438-5.1-2.468-5.2-5.462-10.21-5.777-16.177-1.793-.3-3.486-1.2-5.38-.9A5.064,5.064,0,0,1,811.926,589.713Z" fill="#ab200f"/>
    <path id="Path_70929" data-name="Path 70929" d="M798.529,496.7q.447,1.79.9,3.578c-.572,6.086-5.012,10.276-7.539,15.4-1.267,1.963-2.31,3.92-4.768,5.008-2.269,1.005-2.463,3.907-3.324,6.079-.542,1.366-.406,3.175-1.568,4.107-6,4.81-6.485,12.855-11.032,18.47-2.862,3.535-5.835,6.937-7.21,11.435-.456,1.491-2.043,2.07-3.5,2.493a3.815,3.815,0,0,0-2.5,2.015,2.161,2.161,0,0,1-.851.706,1.5,1.5,0,0,1-1.535-.42,5.418,5.418,0,0,1,3.9-6.192c1.917-.692,2.692-1.694,1.907-3.672-1.521-3.831,1.082-6.522,3.671-7.52,4.622-1.781,4.845-6.122,6.312-9.4.978-2.185.972-4.488,3.424-6.018,1.356-.847,2.1-2.624,2.336-4.582.393-3.275,2.152-5.707,4.428-8.395,3.314-3.911,7.126-8.246,9.021-12.566C792.58,502.708,795.864,500.148,798.529,496.7Z" fill="#a61f0d"/>
    <path id="Path_70930" data-name="Path 70930" d="M755.594,565.572h1.79a3.774,3.774,0,0,1,1.03,3.267c-.251,2.041-1.645,3.622-2.235,5.529-1.537,2.262-2.79,4.765-5.039,6.459-1.447,1.091-1.551,2.686-1.816,4.247a4.4,4.4,0,0,1-.519,1.178c-1.139.971-2.153,2.241-3.944,1.682h0c-1.745-3.7.777-6.635,1.79-9.838C749.355,573.723,750.161,567.995,755.594,565.572Z" fill="#a71f0d"/>
    <path id="Path_70931" data-name="Path 70931" d="M746.65,578.095c1.123,3.592-1.9,6.43-1.79,9.838-3.351.867-4.94,4.022-7.569,5.825-1.064.73-1.6,2.207-3.163,2.226,1.323-3.521,2.959-6.737,6.066-9.19,1.356-1.071,2.179-3.056,2.775-4.788C743.646,580.041,744.617,578.646,746.65,578.095Z" fill="#a41f0c"/>
    <path id="Path_70932" data-name="Path 70932" d="M762.75,520.848c-1.467-1.789.686-3.577,0-5.366h1.788C763.156,517.008,764.366,519.4,762.75,520.848Z" fill="#951c08"/>
    <path id="Path_70933" data-name="Path 70933" d="M728.964,564.642c.108.888-.543.871-1.106.883-.594.012-1.239-.063-1.406-.761a1,1,0,0,1,.825-1.314C728.1,563.352,728.552,564.022,728.964,564.642Z" fill="#8a1b07"/>
    <path id="Path_70934" data-name="Path 70934" d="M741.283,612.979l-6.261,2.684c-1.684-6.073,3.137-9.707,5.367-14.312a2.932,2.932,0,0,1,.869-1.674c2.032-1.957,4.1-3.806,4.574-6.9a5.973,5.973,0,0,1,2.459-3.65c4.857-3.324,6.087-8.577,7.591-13.669.673-2.274,2.392-4.115,2.535-6.573.769-2.349,2.542-3.991,4.125-5.74,2.6-2.866,5.145-5.7,6.533-9.442.538-1.451,1.166-3.7,3.737-2.374a5.85,5.85,0,0,1-1.117,5.3c-.278.5-.9,1.1-.783,1.481,1.017,3.473-.74,5.884-1.919,9-1.667,4.4-5.145,7.307-7.145,11.28-2.256,4.48-3.985,9.924-8.394,13.506-1.592,1.292-2.588,3.852-2.961,6.263-.152.986-.371,2.478-1.017,2.79C744.37,603.4,742.567,607.989,741.283,612.979Z" fill="#ae2110"/>
    <path id="Path_70935" data-name="Path 70935" d="M771.7,556.627c-.019-1.842-.172-3.706.9-5.367,1.392-4.155,4.457-7.783,3.718-12.622a2.354,2.354,0,0,1,2.489-2.614c3.184-.159,4.012-2.329,4.956-4.849,1.314-3.508,1.509-7.78,5.643-9.677,2.754-2.175,4.04-5.584,6.641-7.886.783-.693,1.061-2.275,2.668-1.478a1.946,1.946,0,0,1-.175,2.453,17.27,17.27,0,0,1-2.9,9.727c-3.729,5.938-9.514,10.842-10.91,18.29-.279,1.486-2.138,2.783-3.467,3.94-1.962,1.709-3.775,3.038-3.93,6.267C777.209,555.217,774.72,557.01,771.7,556.627Z" fill="#ae2110"/>
    <path id="Path_70936" data-name="Path 70936" d="M811.052,494.014h1.789c1.625,7.194-4.6,9.973-8.05,14.312-.134-.18-.268-.359-.4-.537C803.286,501.59,807.746,498.082,811.052,494.014Z" fill="#b02211"/>
    <path id="Path_70937" data-name="Path 70937" d="M798.53,514.587V511.9c-.005-.236-.009-.472-.017-.708,1-3.352,2.809-4.925,6.278-2.871h0C803.265,510.975,800.479,512.363,798.53,514.587Z" fill="#b02211"/>
    <path id="Path_70938" data-name="Path 70938" d="M744.86,620.109c-1.564.426-3.23.6-4.479,1.806-1.81-2.4,2.735-1.6,1.8-3.568l2.676-.009Q744.857,619.223,744.86,620.109Z" fill="#ba2415"/>
    <path id="Path_70939" data-name="Path 70939" d="M782.429,565.572v7.156c-2.151,7.349-7.663,12.454-12.164,18.24-1.168.872-2.023,2.615-3.937,1.438-.155-4.424,2.779-8.362,5.276-10.384,3.591-2.908,3.532-6.268,4.576-9.695C777.164,569.1,778.083,565.727,782.429,565.572Z" fill="#bc2315"/>
    <path id="Path_70940" data-name="Path 70940" d="M759.455,613.993c-1.582-.182-3.2,1.215-4.757-.121-2.9-2.807.585-4.516,1.131-6.744,1.128-4.6,4.25-7.955,7.062-11.5.3-.378,1.087-.37,1.648-.541,2.258,2.492-.137,4.64-.5,6.936.089,3.17-1.395,5.758-3.073,8.273-2.288.556-1.3,1.858-.7,3.071Z" fill="#bc2414"/>
    <path id="Path_70941" data-name="Path 70941" d="M762.751,602.245c-.063-2.55,2.811-4.366,1.788-7.156.546-.928,1.934-1.294,1.789-2.683l3.578-1.789c.828,4.18-1.37,7.46-3.224,10.846A3.6,3.6,0,0,1,762.751,602.245Z" fill="#bf2314"/>
    <path id="Path_70942" data-name="Path 70942" d="M784.217,572.727c.493-.742,1.3-1.435,1.421-2.236.387-2.446,2.281-4.043,3.2-5.8,2-3.853,5.494-6.679,6.663-11.474a25.5,25.5,0,0,1,6.612-10.9c1.867-2.229,5.029-1.867,7.155-3.579h0c1.507,1.766.616,3.327-.467,4.818a117.767,117.767,0,0,0-10.553,16.994c-1.267,2.568-3.734,4.057-5.461,6.221-3.3,4.133-2.708,9.255-5,13.476a3.593,3.593,0,0,1-2.118.485,2.634,2.634,0,0,1-1.975-1.125C782.726,577.226,782.57,574.907,784.217,572.727Z" fill="#c42517"/>
    <path id="Path_70943" data-name="Path 70943" d="M787.795,579.883a18.782,18.782,0,0,1,5.524-16.063c6.662-6.376,8.873-15.422,15.229-21.7.983-.97.625-2.224.716-3.383,3.32-.986,5.437-2.48,5.262-6.678-.181-4.329,3.244-7.754,5.879-10.438,3.3-3.361,5.153-7.193,6.943-11.2,1.187-2.652,2.754-3.106,5.172-2.1-1.607,3.581-.247,8.323-4.525,10.89-5.138,3.082-4.82,9.4-7.8,13.826-1.661,2.464-2.591,5.24-5.363,7.008-2.339,1.491-3.022,4.209-4.091,6.876-1.909,4.759-3.882,10.035-8.612,13.126-2.251,1.47-4.723,2.6-3.9,6.034.286,1.2-.76,1.825-1.506,2.535a11.675,11.675,0,0,0-3.552,7.23c-.228,1.8-.378,3.626-2.683,4.032A1.888,1.888,0,0,1,787.795,579.883Z" fill="#c72517"/>
    <path id="Path_70944" data-name="Path 70944" d="M784.217,572.727q0,3.579,0,7.156a4.406,4.406,0,0,1-2.534,4.319,10.554,10.554,0,0,0-5.314,7.257c-1.217,4.959-4.416,8.151-8.827,10.351a1.954,1.954,0,0,1-1.215-.459l3.578-10.734c-.345-3.051,2.656-3.991,4.07-5.722,3.156-3.861,5.033-8.548,8.453-12.167Z" fill="#c12516"/>
    <path id="Path_70945" data-name="Path 70945" d="M820,608.507c2.723.266,1.362,3.8,3.578,4.472,1.392,1.985,1.576,4.454,2.157,6.649a19.9,19.9,0,0,0,5,8.557h0v1.789h-3.578a4.5,4.5,0,0,1-3.416-3.094c-2.14-5.675-3.265-11.727-6.343-17.061-.2-.34-.061-.871-.08-1.312A1.892,1.892,0,0,1,820,608.507Z" fill="#a71f0d"/>
    <path id="Path_70946" data-name="Path 70946" d="M820,608.507h-2.684a28.862,28.862,0,0,0-5.42-11.373c-1.824-2.212.814-3.293,1.841-4.727.625.371,1.838.865,1.79,1.1-1.013,4.829,1.915,8.261,4.013,12.02A8.878,8.878,0,0,1,820,608.507Z" fill="#a7200d"/>
    <path id="Path_70947" data-name="Path 70947" d="M809.263,617.451a9.258,9.258,0,0,1-3.9-6.659c-.465-2.761-3.457-5.125-4.653-8.083-.475-1.174-3.143-.782-2.276-2.6.615-1.289,2.425-.3,3.673-.549,1.555.03,2.952,1.468,2.963,2.25C805.153,607.418,811.35,611.347,809.263,617.451Z" fill="#961c09"/>
    <path id="Path_70948" data-name="Path 70948" d="M797.675,596.088l.9-.089c1.927-.1,3.8-.139,3.53,2.668Z" fill="#961c09"/>
    <path id="Path_70949" data-name="Path 70949" d="M792.264,598.615c.715-1.578,2.066-1.837,3.592-1.729q-.917.881-1.834,1.759Z" fill="#c12718"/>
    <path id="Path_70950" data-name="Path 70950" d="M850.411,652.338c.929.792,2.556.458,3.236,2.091-1.633,1.013-3.393.412-5.028.59-.639-.275-1.684-.41-1.837-.854-.4-1.148.712-.874,1.316-.918C848.978,653.181,849.856,653.2,850.411,652.338Z" fill="#b62317"/>
    <path id="Path_70951" data-name="Path 70951" d="M853.98,657.721l1.8-.027c1.228.146,2.622-.385,3.574.878q-2.656-.081-5.313-.164A6.613,6.613,0,0,1,853.98,657.721Z" fill="#9d2012"/>
    <path id="Path_70952" data-name="Path 70952" d="M767.223,601.351c3.683-3.192,7.637-5.9,8.419-11.566.335-2.424,2.024-5.623,5.416-6.391,1.9-.429,1.722-2.688,3.16-3.511h1.789a1.69,1.69,0,0,1,.316,2.032c-2.416,3.857-3.253,8.437-5.683,12.28-3.136,1.858-2.384,5.4-3.514,8.126-.9,1.246-2.5,1.483-3.732,2.453,1.207.834,2.791-.228,3.693,1.061l-1.851,1.753c-.3,0-.593,0-.889.013-3.847-1.052-6.911,2.545-10.706,1.8A12.024,12.024,0,0,1,767.223,601.351Z" fill="#c62517"/>
    <path id="Path_70953" data-name="Path 70953" d="M777.087,605.835c-1.868-.772-4.782,2.506-5.431-.3-.6-2.577,3.108-2.321,4.964-3.238a1.359,1.359,0,0,1,.44-.053c.193.006.386.012.579.016a6.052,6.052,0,0,0,3.894-.013l0,0,2.717.021A18.832,18.832,0,0,1,777.087,605.835Z" fill="#c92618"/>
    <path id="Path_70954" data-name="Path 70954" d="M767.223,601.351c-.966,2.785-1.016,5.978-3.582,8.052l-2.679.895c-1.336-3.113,3.285-4.9,1.789-8.053a6.006,6.006,0,0,1,3.577-.894Z" fill="#c12516"/>
    <path id="Path_70955" data-name="Path 70955" d="M759.172,569.15c-1.778,5.452-3.265,11.025-5.465,16.3-1,2.407-4.25,3.228-5.764,5.78-1.684,2.839-1.524,6.823-5.073,8.525-.521.25-1.058.468-1.587.7a1.886,1.886,0,0,1,0-2.685l1.789-3.577c1.163-.909.836-2.564,1.789-3.578,1.19-1.493,2.24-3.1,3.578-4.472v-.9c1.892-3.906,5.706-6.532,7.155-10.734-.686-2.216,1.315-3.537,1.79-5.366A1.192,1.192,0,0,1,759.172,569.15Z" fill="#ac1f0e"/>
    <path id="Path_70956" data-name="Path 70956" d="M729.574,628.109a2.394,2.394,0,0,0-2.573.1c-.464-1.263-4.508,2.837-2.714-1.811.717-.834,2.039.153,2.686-.892h2.682Z" fill="#b22210"/>
    <path id="Path_70957" data-name="Path 70957" d="M748.439,586.145c.043,2.479-1.4,3.773-3.578,4.472v-2.683C746.1,587.43,746.883,586.014,748.439,586.145Z" fill="#aa1f0e"/>
    <path id="Path_70958" data-name="Path 70958" d="M741.283,597.772v2.685l-.894.894h-2.684A4.68,4.68,0,0,1,741.283,597.772Z" fill="#aa1f0e"/>
    <path id="Path_70959" data-name="Path 70959" d="M744.861,590.617c-.169,1.406.607,3.285-1.789,3.578C742.988,592.662,743.232,591.293,744.861,590.617Z" fill="#aa1f0e"/>
    <path id="Path_70960" data-name="Path 70960" d="M726.973,625.5c-.208,2.366-1.8.558-2.686.892C724.714,624.686,726.113,625.908,726.973,625.5Z" fill="#ac1f0e"/>
    <path id="Path_70961" data-name="Path 70961" d="M780.64,594.2c.514-5.249,3.857-9.436,5.367-14.312h4.472c-.454,1.992-.967,3.476-3.45,4.336-2.609.9-3.684,4.267-3.235,6.654C784.429,594.255,782.962,594.3,780.64,594.2Z" fill="#c92618"/>
    <path id="Path_70962" data-name="Path 70962" d="M777.06,602.244c-.569-3.467-.884-6.821,3.58-8.049-1.734,2.1.9,5.293-1.789,7.155-.341.808-.834,1.313-1.788.9Z" fill="#c92618"/>
    <path id="Path_70963" data-name="Path 70963" d="M777.063,602.246l1.788-.9,2.682.9C780.043,603.658,778.553,604.964,777.063,602.246Z" fill="#d22719"/>
    <path id="Path_70964" data-name="Path 70964" d="M798.529,511.9l-8.05,10.733c-1.82-2.65.062-4.837.9-7.156.565-2.849,1.236-5.7,4.086-7.174a2.443,2.443,0,0,0,1.237-2.966c-.42-2.476,1.13-3.752,2.727-5.066l6.261-2.683h0c.35,3.451-.112,6.826-3.162,8.815A10.077,10.077,0,0,0,798.529,511.9Z" fill="#ac200f"/>
    <path id="Path_70965" data-name="Path 70965" d="M798.529,511.9c.242-2.925,1.187-5.167,4.08-6.755,2.711-1.489,2.11-4.986,3.076-7.557,2.326-.388,1.909-4.888,5.367-3.578-.405,1.082-.494,2.562-1.269,3.177-3.647,2.89-4.336,6.978-4.993,11.134C801.55,507.5,799.988,509.612,798.529,511.9Z" fill="#ae2110"/>
    <path id="Path_70966" data-name="Path 70966" d="M830.73,628.185c-7.23-2.789-6.244-9.444-7.155-15.206,2.713,1.218,2.054,4.363,3.577,6.261C829.163,621.9,831.286,624.5,830.73,628.185Z" fill="#ab1f0e"/>
    <path id="Path_70967" data-name="Path 70967" d="M791.374,515.481q-.449,3.578-.9,7.156c-3.381-.209-3.3,2.93-4.281,4.769-1.084,2.035-1.442,4.46-2.092,6.722-.493,1.713-1.309,3-3.376,2.816-3.376-.306-3.329,1.043-3.278,4.191.06,3.636-1.219,7.728-4.862,10.125-.521.231-1.417.364-1.507.707-1.884,7.19-8.141,11.325-11.911,17.183h-1.788v-3.578c.926-.674.878-2,1.788-2.684,3.138-1.12,5.084-3.146,5.443-6.625a6.548,6.548,0,0,1,2.665-4.477c4-3.145,6.1-7.656,7.826-12.16,1.011-2.643,1.467-5.094,4.155-6.83,3.609-2.332,3.1-7.008,4.893-10.446.849-1.627,1.144-3.494,3.467-3.292C790.315,519.294,788.838,515.31,791.374,515.481Z" fill="#aa1f0e"/>
    <path id="Path_70968" data-name="Path 70968" d="M759.172,562.888c.014,1.3.026,2.6-1.788,2.684C757.371,564.271,757.358,562.971,759.172,562.888Z" fill="#a71f0d"/>
    <path id="Path_70969" data-name="Path 70969" d="M755.594,574.516c-.274,4.985-3.672,7.888-7.155,10.734-.208-2.269-.044-4.379,2.368-5.525C753.106,578.635,753.113,575.439,755.594,574.516Z" fill="#aa1f0e"/>
  </g>
</svg>
