<svg xmlns="http://www.w3.org/2000/svg" width="286.812" height="255.485" viewBox="0 0 286.812 255.485">
  <g id="bank_habib_metro-ic" data-name="bank habib metro-ic" transform="translate(-313.188 -451.873)">
    <path id="Path_70642" data-name="Path 70642" d="M551.369,684.544a3.8,3.8,0,0,0,1.745-3.443c0-.255-.092-.608.34-.624.408-.015.554.233.532.613-.006.119,0,.238,0,.357q0,11.017,0,22.035c0,.357-.047.713-.072,1.069a1.1,1.1,0,0,1-.661,1.217l-1.89,1.44h-.478a3.239,3.239,0,0,0-1.526-.116q-93.073-.01-186.146-.012a4.234,4.234,0,0,1-1.537-.089c-1.784-.535-2.717-1.507-2.73-3.3-.055-7.479-.029-14.96-.04-22.44,0-.462.116-.8.638-.805.633-.007.406.511.39.791-.155,2.742,1.689,3.807,4.188,3.8q35.215-.05,70.432-.019,57,0,114-.01a3.472,3.472,0,0,0,2.09-.243A.725.725,0,0,1,551.369,684.544Z" fill="#00654a"/>
    <path id="Path_70643" data-name="Path 70643" d="M313.2,675.68c.655-.407.391-1.208.762-1.751,2.526-3.7,6.135-5.433,11.016-4.814a15.788,15.788,0,0,1,2.419.461c2.434.712,4.32,2.038,4.951,4.676.111,3.263.169,6.527-.03,9.789-3.694-.014-7.393.068-11.083-.075-2.571-.1-4.034-1.612-3.757-3.756a21.316,21.316,0,0,0,.019-3.1,3.515,3.515,0,0,1,2.253-3.59c.352-.154.681-.367,1.043-.488,2.952-.99,3.152-.845,3.159,2.177,0,1.43.026,2.859.04,4.288a2.173,2.173,0,0,0,1.477.025c2.459-.237,4.6-1.038,5.9-3.331a1.994,1.994,0,0,0,.012-1.35c-.6-2.831-2.753-3.822-5.23-4.437-.387-.234-.847.01-1.24-.186-2.812-.267-5.459.084-7.67,2.058a1.888,1.888,0,0,1-1.225,1.23c-1.93,1.759-2.2,5.792-.721,7.684.436.267.554.748.778,1.158a6.138,6.138,0,0,0,5.008,2.632c8.23.054,16.46.048,24.689.03,2.455-.005,3.6-1.2,3.724-3.668.015-.283-.275-.825.3-.825.5,0,.4.5.4.844q0,11.093,0,22.183c0,1.95-1.253,2.933-2.834,3.66h-.239a1.773,1.773,0,0,0-1.046-.118q-13.883-.009-27.767,0a1.774,1.774,0,0,0-1.046.118h-.239a5.955,5.955,0,0,1-2.512-1.24,4.566,4.566,0,0,1-1.31-2.581Z" fill="#00664a"/>
    <path id="Path_70644" data-name="Path 70644" d="M597.718,674.676a4.919,4.919,0,0,0-1.9-2.351c-.241-.171-.563-.222-.732-.5l-.971-.655c-.291.089-.5-.082-.713-.229a11,11,0,0,0-9.607.586,3.992,3.992,0,0,0-1.865,2.323c-.738,2.086-.115,3.515,1.933,4.456.392.228.919.219,1.179.677a6.75,6.75,0,0,0,2.744.54c1.438.2,1.415.2,1.446-1.253a54.169,54.169,0,0,1,.1-5.7,7.644,7.644,0,0,1,2.8.4c2.615.862,3.6,2.235,3.574,5a18.615,18.615,0,0,1-.118,3.678.535.535,0,0,1-.306.648,5.81,5.81,0,0,1-4.659,1.749c-2.976-.049-5.953-.035-8.929,0-.71.009-.955-.153-.941-.913.054-2.934.041-5.87.038-8.805,0-.938.632-1.622.921-2.442a1.675,1.675,0,0,1,.968-.982,12.847,12.847,0,0,1,10.639-1.334,9.331,9.331,0,0,1,6.135,5.349c.079.176.08.491.4.513V704.1c-.714,2.1-1.928,2.962-4.222,2.982q-14.208,0-28.412.006a2.432,2.432,0,0,0-1.286.117h-.478c-.177-.479-.786-.336-1.032-.715a1.349,1.349,0,0,1-.879-.91,2.642,2.642,0,0,1-.521-1.486,15.894,15.894,0,0,1-.067-2.733q-.015-9.834.008-19.668c0-.4-.234-.873.2-1.215.63-.116.947.05.868.783-.284,2.631,1.674,3.8,3.835,3.783,7.555-.059,15.115-.172,22.665.041a7.944,7.944,0,0,0,8.152-5.987,5.506,5.506,0,0,0,0-2.29c-.169-.459-.153-.99-.528-1.37A3.252,3.252,0,0,1,597.718,674.676Z" fill="#00654a"/>
    <path id="Path_70645" data-name="Path 70645" d="M361.672,706.991c.636-.007,1.271-.021,1.907-.021q92.93,0,185.859.012c.478,0,1.028-.251,1.443.226H361.694A.224.224,0,0,0,361.672,706.991Z" fill="#00654a"/>
    <path id="Path_70646" data-name="Path 70646" d="M455.53,453.55a3.352,3.352,0,0,1,.519-1.677H457a62.176,62.176,0,0,1,.044,7.637c-.5.956-1.009.58-1.514,0A46.68,46.68,0,0,1,455.53,453.55Z" fill="#00654a"/>
    <path id="Path_70647" data-name="Path 70647" d="M565.93,707.208c.17-.317.476-.236.741-.236q14.688,0,29.376.016.1.083.057.153c-.026.045-.052.067-.076.067Z" fill="#00654a"/>
    <path id="Path_70648" data-name="Path 70648" d="M317.264,707.208c.282-.444.723-.229,1.087-.23q13.72-.017,27.441,0c.442,0,.953-.22,1.331.227Z" fill="#00664a"/>
    <path id="Path_70649" data-name="Path 70649" d="M313.2,703.387a6.63,6.63,0,0,0,3.822,3.821c-1.114,0-2.23-.025-3.343.013-.417.015-.506-.074-.492-.491C313.229,705.617,313.2,704.5,313.2,703.387Z" fill="#00664a"/>
    <path id="Path_70650" data-name="Path 70650" d="M596.028,707.208a.286.286,0,0,1,.019-.22c1.846-.2,2.889-1.457,3.8-2.885,0,1.035.4,2.474-.114,2.992s-1.956.113-2.991.113Z" fill="#00664a"/>
    <path id="Path_70651" data-name="Path 70651" d="M373.185,662.675c.018-.555.051-1.109.051-1.663q0-61.476,0-122.952c0-.356-.034-.711-.052-1.067.2-.406.006-.864.168-1.275.853-6.366,5.864-11.12,12.951-11.75a3.965,3.965,0,0,1,1.3-.073q68.8-.006,137.6,0a4.2,4.2,0,0,1,1.3.07,14.207,14.207,0,0,1,12.433,9.149,10.982,10.982,0,0,1,.717,4.314c-.027,2.825-.006,5.651-.006,8.477q0,57.791-.012,115.58c0,5.826-2.785,10.032-7.9,12.711a12.618,12.618,0,0,1-5.881,1.382q-25.732.046-51.465.024-43.465,0-86.931,0c-.275,0-.551.033-.827.051-.409-.2-.872,0-1.285-.173A13.552,13.552,0,0,1,373.36,663.97C373.186,663.554,373.382,663.088,373.185,662.675Z" fill="#00654a"/>
    <path id="Path_70652" data-name="Path 70652" d="M476.25,498.815a4.238,4.238,0,0,1-3.4-.426,22.7,22.7,0,0,0-3.2-1.417,2.79,2.79,0,0,0-1.423.014,5.667,5.667,0,0,0-2.916,1.7c-.219.55-.219.65.412.71l.117.009c.069-.059.145-.129.229-.21a2.244,2.244,0,0,1,2.07-.117,24.771,24.771,0,0,0,3.071,1.231c.605.172.677.645.089.884-4.023,1.645-7.89,3.827-12.384,3.968a15.336,15.336,0,0,1-10.619-3.834c-.366-.306-.712-.638-1.1-.913a2.753,2.753,0,0,0-3.929.442c-1.293,1.508-2.512,3.079-3.76,4.625a1.9,1.9,0,0,1-2.29.789,1.314,1.314,0,0,1-.958-1.241,3.027,3.027,0,0,1,1.168-2.492c.271-.223.51-.065.772.011a2.3,2.3,0,0,0,2.991-1.211c.643-1.1,1.228-2.226,1.873-3.318a15.474,15.474,0,0,1,1.27-1.869c1.24-1.534,2.024-1.4,2.717.43,2.34,6.162,10.56,8.222,15.845,3.958.614-.494,1.164-1.068,1.744-1.608.039.067.074.129.108.186a.342.342,0,0,0,.036-.04,1.725,1.725,0,0,0,.306-.7,19.284,19.284,0,0,0,2.06-4.314c.523-1.984.077-4.455-1.556-5.2a2.171,2.171,0,0,0-1.183-.012c-1.594.34-2.8,1.432-4.173,2.192-1.446.8-2.835,1.74-4.589,1.7-.486.22-1.019-.009-1.509.168a8.131,8.131,0,0,1-.948.043c-.806-.053-.961-.521-.548-1.116a10.237,10.237,0,0,1,2.457-2.558,1.571,1.571,0,0,1,1.669-.05c.485.282.968.464.554,1.236-.165.315.33.274.588.186.892-.308,1.2-1.164.691-2.526-.218-.584-.136-.722.385-.918a13.941,13.941,0,0,1,4.529-1.126c2.381-.05,3.31-1.685,4.675-3.609H452.566c-.49.222-1.038-.024-1.528.182a1.226,1.226,0,0,0-.349.055,3.33,3.33,0,0,0-1.682,3.353c.224,1.171,1.319.848,2.089,1.114.934.322,2.029.227,2.923,1.054a12.918,12.918,0,0,0-3.86,3.117c-.653.678-1.083.458-1.5-.18a1.648,1.648,0,0,1-.277-1.245c-.215-.4,0-.856-.175-1.26-.021-.447-.045-.891-.067-1.338-.232-.571.027-1.193-.177-1.766-.019-.605-.04-1.207-.062-1.812-.215-.492.012-1.035-.172-1.53a.413.413,0,0,0-.691-.107,2.754,2.754,0,0,0-1.23,1.972c-.017.858-.008,1.716-.008,2.576.218.488-.009,1.025.17,1.515a7,7,0,0,0,.177,2.1,1.251,1.251,0,0,1-.495,1.723,8.571,8.571,0,0,0-3.131,4.1,5.063,5.063,0,0,1-1.984,2.2c-.92.619-1.761.2-1.742-.913.026-1.372-.139-2.792.645-4.049.16-.256.227-.581,0-.769-.256-.22-.478.143-.717.227-.3.1-.414.437-.565.724a10.806,10.806,0,0,0-1.02,3.984,13.2,13.2,0,0,0,.012,3.335c.131.42.392.654-.136,1.218-.973,1.045-2.235,1.987-2.489,3.567a3.457,3.457,0,0,0-.016,1.661,3.9,3.9,0,0,0,.836,1.678c.182.186.06.442.153.65.242.036.485.071.727.1a2.732,2.732,0,0,0,1.422,0,8.63,8.63,0,0,0,3.322-3.865c.469-.886.885-1.219,1.611-.258a2.252,2.252,0,0,0,1.767,1.018,2.712,2.712,0,0,0,1.422,0c.282-.1.564-.206.846-.311a1.824,1.824,0,0,0,1.071-.636c.389-.215.676-.1,1.07.129a12.792,12.792,0,0,0,3.466,1.728c.275.316.7-.009.99.235.387-.043.71.184,1.1.217a21.587,21.587,0,0,0,9.574-1.654,2.532,2.532,0,0,0,.992-.442,26.045,26.045,0,0,1,4.04-1.941,2.691,2.691,0,0,0,.977-.452,12.86,12.86,0,0,1,4.386-1.434,3.022,3.022,0,0,0,2.7-2.392C477.21,499.03,477.144,498.509,476.25,498.815Zm-24.672-13.777a3.366,3.366,0,0,1,2.1-.437c2.416,0,4.833.021,7.247.05.287,0,.715-.1.765.327.038.3-.321.435-.562.54-1.119.5-2.247.973-3.375,1.454-.107.045-.251.117-.339.081C455.568,486.319,453.572,485.992,451.578,485.038Zm1.315,11.031c.433-.043.875-.008,1.31-.008a6.277,6.277,0,0,0,4.414-1.479,50.192,50.192,0,0,1,4.135-3.22c1.549-.913,2.183-.549,2.214,1.226.1,5.577-4.209,9.2-9.523,8.008a4.685,4.685,0,0,1-3.473-2.967C451.519,496.523,451.717,496.183,452.893,496.069Zm-6.977,8.348A1.8,1.8,0,0,1,444.5,503c-.07-.359.248-.732.774-.787.514.473,1.434.619,1.542,1.463A.765.765,0,0,1,445.916,504.417Z" fill="#00654a"/>
    <path id="Path_70653" data-name="Path 70653" d="M564.468,679.191c-.836.2-2.042.13-2.413.654-.438.621-.179,1.751-.182,2.66-.01,3.461,0,6.921,0,10.382,0,1.528,0,1.519-1.487,1.179a3.994,3.994,0,0,0-.827-.016,5.437,5.437,0,0,0-2.293,0l-1.132.065a1.543,1.543,0,0,1-1.185-.062c.009-4.52.011-9.039.035-13.559,0-.586-.157-.693-.778-.818a14.11,14.11,0,0,1-6.5-2.8,1.847,1.847,0,0,1-1.344-1.227l-.777-1.886a3.8,3.8,0,0,1,.014-1.66c.558-2.346,2.405-3.38,4.381-4.253a24.192,24.192,0,0,1,6.168-1.528,26.23,26.23,0,0,1,4.287,0,39.008,39.008,0,0,1,5.954,1.285,7.434,7.434,0,0,1,4.853,5.13,6.526,6.526,0,0,1-.538,2.446c-.218.348-.256.842-.767.955l-.2.205c-.1.512-.559.591-.933.774h0a1.729,1.729,0,0,1-1.042.685l-2.576,1.121C565.059,679.317,564.754,679.228,564.468,679.191Z" fill="#00654a"/>
    <path id="Path_70654" data-name="Path 70654" d="M367.472,673.762c-.957,2.752-3.252,3.98-5.723,4.988a7.1,7.1,0,0,1-2.159.649c-1.394.083-1.557.816-1.535,2.01.071,3.9.006,7.8.043,11.7.008.811-.143,1.139-1.039.994a15.466,15.466,0,0,0-4.994.011c-.808.133-.9-.144-.895-.844.029-4.178-.007-8.357.033-12.535.007-.789-.238-1.066-1.007-1.226a13.822,13.822,0,0,1-7.406-3.791,4.04,4.04,0,0,1,.111-5.707,10.645,10.645,0,0,1,4.638-2.667,30.8,30.8,0,0,1,4.845-1.017,24.653,24.653,0,0,1,4.288-.005,22.11,22.11,0,0,1,6.966,1.969,7.213,7.213,0,0,1,3.821,3.811A3.765,3.765,0,0,1,367.472,673.762Z" fill="#00654a"/>
    <path id="Path_70655" data-name="Path 70655" d="M476.556,491.528a36.638,36.638,0,0,1,2.02-6.738,51.885,51.885,0,0,0,2.623-9.8,10.059,10.059,0,0,0-.287-4.912c-1.578-4.359-5.861-7.508-10.992-6.357a19.857,19.857,0,0,0-9.211,5.062,23.733,23.733,0,0,0-3.042,3c-.629.835-1.218.739-1.927-.02a27.956,27.956,0,0,0-8.35-6.67c-2.752-1.291-5.634-2.123-8.726-1.219a9.612,9.612,0,0,0-6.462,10.456c.189.392-.054.849.183,1.234a24.955,24.955,0,0,0,1.556,6.62c.964,3.049,2.283,5.982,3.035,9.1.179.415-.022.882.178,1.294v1.241c-.2.406,0,.865-.169,1.275a1.547,1.547,0,0,1-.565,1.148c-.4-.251-.387-.651-.363-1.031a15.954,15.954,0,0,0-1.958-8.075,116.474,116.474,0,0,1-5.082-11.172,11.733,11.733,0,0,1,4-13.622c2.369-1.773,4.878-2.889,7.847-2.524a15.05,15.05,0,0,1,7.035,3.155,50.257,50.257,0,0,1,7.612,7.14c.669.749,1.1.746,1.794.008,1.528-1.636,3.1-3.236,4.741-4.759a21.147,21.147,0,0,1,8.2-5.151c3.941-1.193,7.193.124,10.191,2.555a12.983,12.983,0,0,1,4.307,7.259c.2.4-.039.859.189,1.251.208,3.815-1.375,7.1-2.991,10.4a76.133,76.133,0,0,0-3.781,8.232,11.736,11.736,0,0,0-.65,4.889c.051.628.074,1.2-.813,1.416l-.14-1.6A12.327,12.327,0,0,1,476.556,491.528Z" fill="#00654a"/>
    <path id="Path_70656" data-name="Path 70656" d="M476.854,480.3c-.633-1.236-1.338-2.395-2.947-2.7a10.2,10.2,0,0,0,2.249-4,5.214,5.214,0,0,0,0-1.9,9.328,9.328,0,0,0-.88-1.922,6.877,6.877,0,0,0-4.426-2.426,3.819,3.819,0,0,0-1.662,0,12.679,12.679,0,0,0-4.837,1.855,30.515,30.515,0,0,0-7.481,7.254c-.287.392-.529.641-.811.086a11.6,11.6,0,0,0-2.07-2.581c-2.834-3.021-5.841-5.811-10.131-6.616a3.962,3.962,0,0,0-1.662,0,7.1,7.1,0,0,0-3.628,1.436c-1.929,1.814-1.785,4.054-1.389,6.375.239,1.381,1.055,2.71.428,4.18a6.9,6.9,0,0,0,0,2.137,12.393,12.393,0,0,0,.1,1.522c.059.311.463.662-.027.866s-.707-.235-.865-.6c-.253-.585-.54-1.049-1.455-.628.556.377.525.989.882,1.4.21.4,0,.856.169,1.26a4.277,4.277,0,0,0,1.231,2.9,1.293,1.293,0,0,0,1.931.444,1.688,1.688,0,0,0,.024-1.188c-.217-1.3-.815-2.526-.755-3.881.012-.246.024-.526.28-.581.129-.029.344.158.463.3a4.331,4.331,0,0,0,2.374,1.585,2.193,2.193,0,0,0,1.181-.01c1.532-.791,1.878-2.337,2.289-3.778.708-2.489.034-5.691-2.526-6.564a2.091,2.091,0,0,0-1.181-.021c-.466,0-1.068.836-1.362-.058a2.165,2.165,0,0,1,.284-2.125c1.776-2.287,4.508-1.893,7.034-.793,3.031,1.317,5.335,3.588,7.587,5.925,1.231,1.279,1.424,1.257,2.541-.026.284-.33.552-.677.843-1,2.269-2.517,4.793-4.714,8.148-5.6,3.112-.824,6.133.99,5.851,4.539-.124,1.578-.248,3.115-1.481,4.279a.737.737,0,0,0-.218.858c.151.37.442.1.7.076,1.625-.129,2.466.34,2.629,2.118a8.858,8.858,0,0,1-.66,3.824,7.977,7.977,0,0,0-.2,5.681c.086.23.12.823.634.7.368-.093.246-.538.368-.815-.206-.406,0-.868-.177-1.276a4.144,4.144,0,0,1,.4-2.613,30.757,30.757,0,0,0,2.226-5.521A6.857,6.857,0,0,0,476.854,480.3ZM440.8,479.11a1.213,1.213,0,0,1,1.281-.994,2.269,2.269,0,0,1,2.223,2.017,1.385,1.385,0,0,1-1.362,1.4C442.226,481.551,440.651,479.784,440.8,479.11Z" fill="#00654a"/>
    <path id="Path_70657" data-name="Path 70657" d="M478.817,502.013c-.309-.375-.715-.61-1.131-.3-.937.689-.954,1.92-.4,3.079,1.2,2.512,1.589,3.4.148,4.675a2.262,2.262,0,0,1-1.355.01c-.161-.294-.476-.357-.741-.49-.361-.88-.636-1-1.212-.063a1.723,1.723,0,0,1-3.081-.2c-.129-.243-.22-.547-.588-.456-.227.057-.528.165-.5.423.072.729-.6.7-.942,1.006a3.726,3.726,0,0,1-1.838.007c-.648-.035-.913-.5-1.169-1.006-.231-.464-.566-.655-1-.184-1.943,2.113-4.505,2.526-7.187,2.62a39.575,39.575,0,0,1-4.955,0,8.909,8.909,0,0,1-4.46-1.516c-.263-.449-.8-.425-1.18-.664l-3.124-1.47a2.652,2.652,0,0,0-1.425.019c-1.644.578-2.553,2.01-3.631,3.217a6.665,6.665,0,0,1-2.277,1.881c-1.3.562-1.886.168-1.815-1.214a3.74,3.74,0,0,1,.55-1.778c.16-.268.383-.548-.153-.65a1.244,1.244,0,0,1-.124.425,5.644,5.644,0,0,0-1.539,4.446c.136.968.315,2.07,1.3,2.447a2.245,2.245,0,0,0,2.607-.946c.459-.591.887-1.21,1.346-1.8.815-1.052,1.083-1.033,1.63.172a3.346,3.346,0,0,0,1.871,1.974,1.873,1.873,0,0,0,1.184.01,4.722,4.722,0,0,0,2.065-2.207c.277-.6.64-.576.982-.38a16.748,16.748,0,0,0,6.281,1.874c.493.187,1.035-.045,1.525.172a27.881,27.881,0,0,0,8.873-2.617,1.26,1.26,0,0,1,1.386.093,3.373,3.373,0,0,0,3.965-.035c.423-.294.593-.228.985.038a3.325,3.325,0,0,0,3.74.141,1.276,1.276,0,0,1,1.3-.041,2.482,2.482,0,0,0,2.663-.122C480.3,510.522,481.1,504.781,478.817,502.013Zm-35.164,10.471a1.771,1.771,0,0,1-1.454-1.506.974.974,0,0,1,.832-1.011c.4-.1,1.948,1.186,1.955,1.693C444.676,512.052,444.174,512.57,443.653,512.484Z" fill="#00654a"/>
    <path id="Path_70658" data-name="Path 70658" d="M526.51,523.964c-.676.005-1.351.013-2.027.013H388.451c-.716,0-1.432-.007-2.148-.01.377-.336.837-.194,1.259-.194q68.844-.01,137.688,0C525.672,523.774,526.131,523.633,526.51,523.964Z" fill="#00654a"/>
    <path id="Path_70659" data-name="Path 70659" d="M456.208,461.989a2.293,2.293,0,0,0,.923,2.046c.606.392,1.073.1,1.555-.33.583-.521.127-.751-.166-1.131a2.16,2.16,0,0,1-.086-2.164c.131-.364.511-.423.9-.422.491,0,.624.36.67.688.227,1.606.263,3.163-1.2,4.327a1.6,1.6,0,0,1-2.318.07c-.315-.284-.486-.358-.869-.049-1.162.938-2.133.587-2.7-.779-.178-.426-.034-.93-.414-1.307-.113-.111-.187-.6.182-.676.295-.063.49.173.522.5a1.277,1.277,0,0,0,.144.323c.517,1.271,1.112,1.366,2.046.388C455.743,463.115,455.771,462.63,456.208,461.989Z" fill="#00654a"/>
    <path id="Path_70660" data-name="Path 70660" d="M463.2,518.855a3.651,3.651,0,0,1,2.135-2.69c1.235-.509,2.622-.626,3.685-1.588.228-.207.764-.117,1.152-.087.2.015.544.237.271.455-.675.54-.879,1.463-1.91,1.769C466.783,517.234,465.126,518.061,463.2,518.855Z" fill="#00654a"/>
    <path id="Path_70661" data-name="Path 70661" d="M468.139,475.517a2.148,2.148,0,0,1-1.773,1.873,20.38,20.38,0,0,0-3.789,1.837c-.252.13-.655.469-.935.128-.238-.289.157-.567.279-.832a2.954,2.954,0,0,1,2.268-1.766C465.514,476.5,466.667,475.652,468.139,475.517Z" fill="#00654a"/>
    <path id="Path_70662" data-name="Path 70662" d="M571.293,675.716q.036,3.859.076,7.719c.005.452-.1.773-.639.785-.626.015-.433-.448-.435-.752-.015-1.981-.01-3.962-.006-5.943a1.313,1.313,0,0,1,.407-1.182C570.8,676.043,570.906,675.746,571.293,675.716Z" fill="#00654a"/>
    <path id="Path_70663" data-name="Path 70663" d="M341.686,675.81a2.519,2.519,0,0,1,1.1,2.113c-.056,1.822-.017,3.647-.017,5.471,0,.4.042.8-.561.831-.683.031-.513-.45-.514-.8C341.682,680.939,341.686,678.458,341.686,675.81Z" fill="#00664a"/>
    <path id="Path_70664" data-name="Path 70664" d="M477.62,516.548a9.788,9.788,0,0,0-1.2,1.076c-.7.879-1.377.816-2.009,0-.38-.493-1.494-.771-.551-1.753,1.088-1.131,1.611-1.247,2.651-.37C476.845,515.776,477.144,516.093,477.62,516.548Z" fill="#00654a"/>
    <path id="Path_70665" data-name="Path 70665" d="M367.34,684.26c-.61,0-.88-.227-.861-.915.052-1.894.066-3.793-.007-5.686-.028-.741.568-1.093.733-1.684.288-.071.33.118.331.327.009,2.564.016,5.127,0,7.691C367.535,684.147,367.417,684.18,367.34,684.26Z" fill="#00654a"/>
    <path id="Path_70666" data-name="Path 70666" d="M546.568,676.878c0,2.1-.051,4.2.01,6.3.024.81-.3.956-.966.86-.225-2.591-.05-5.187-.093-7.781,0-.228.1-.368.351-.36l.205.317A.769.769,0,0,1,546.568,676.878Z" fill="#00654a"/>
    <path id="Path_70667" data-name="Path 70667" d="M563.16,680.481a3.357,3.357,0,0,0-.123,1.415q-.013,11.1-.017,22.2c-.329-.378-.188-.836-.189-1.258q-.013-10.537.005-21.075C562.837,681.33,562.594,680.79,563.16,680.481Z" fill="#00654a"/>
    <path id="Path_70668" data-name="Path 70668" d="M471.4,487.226c-.507.4-.795,1.2-1.535,1.1a1.492,1.492,0,0,1-1.35-1.407,1.14,1.14,0,0,1,1.305-1.057A1.967,1.967,0,0,1,471.4,487.226Z" fill="#00654a"/>
    <path id="Path_70669" data-name="Path 70669" d="M470.728,495.324a5.207,5.207,0,0,1-1.528-1.558,1.427,1.427,0,0,1,1.166-1.017c.547-.055,1.758.82,1.665,1.248C471.874,494.714,471.043,494.812,470.728,495.324Z" fill="#00654a"/>
    <path id="Path_70670" data-name="Path 70670" d="M441.916,487.23c.051-.422.383-.455.693-.462.478-.011.242.4.324.616s.131.452.194.679c-.247.738.034,1.518-.174,2.26-.143.291.156.824-.285.888-.466.068-.322-.5-.492-.742-.2-.286-.148-.591-.269-.865A8.106,8.106,0,0,1,441.916,487.23Z" fill="#00654a"/>
    <path id="Path_70671" data-name="Path 70671" d="M456.262,468.338c-1.114.236-.968-.829-1.07-1.3-.127-.581.693-.473,1.056-.511.712-.074.67.6.749,1.082C457.089,468.167,456.855,468.446,456.262,468.338Z" fill="#00654a"/>
    <path id="Path_70672" data-name="Path 70672" d="M440.544,489.777v-1.34a4.882,4.882,0,0,1,.934,3.8c-.1.245-.259.252-.457.231-.228-.024-.482-.009-.457-.369.015-.23-.011-.463-.019-.7A2.882,2.882,0,0,0,440.544,489.777Z" fill="#00654a"/>
    <path id="Path_70673" data-name="Path 70673" d="M332.321,684.041l.03-9.789c.316.33.2.744.2,1.125q.015,3.777,0,7.554C332.546,683.309,332.675,683.729,332.321,684.041Z" fill="#00664a"/>
    <path id="Path_70674" data-name="Path 70674" d="M545.87,675.9c-.363.008-.322.29-.32.511.015,2.543.04,5.087.062,7.63-.346-.318-.219-.738-.221-1.118q-.015-3.377,0-6.754C545.391,675.84,545.317,675.287,545.87,675.9Z" fill="#00654a"/>
    <path id="Path_70675" data-name="Path 70675" d="M367.34,684.26c.387-2.339.084-4.694.152-7.04.012-.407.288-.946-.287-1.245.058-.1.1-.267.176-.286.446-.108.277.263.278.43.013,2.011.044,4.022-.011,6.031C367.629,682.852,367.988,683.64,367.34,684.26Z" fill="#00654a"/>
    <path id="Path_70676" data-name="Path 70676" d="M589.331,672.573c-.023,1.972-.051,3.944-.067,5.917-.012,1.415-.005,1.415-1.48,1.034,1.005.131,1.414-.226,1.342-1.314-.1-1.5-.033-3.011-.02-4.517C589.109,673.311,588.978,672.889,589.331,672.573Z" fill="#00664a"/>
    <path id="Path_70677" data-name="Path 70677" d="M546.568,676.878l-.493-.66.282-.57a4.209,4.209,0,0,1,1.344,1.227A2,2,0,0,1,546.568,676.878Z" fill="#00654a"/>
    <path id="Path_70678" data-name="Path 70678" d="M560.43,666.319l-4.287,0A9.843,9.843,0,0,1,560.43,666.319Z" fill="#00654a"/>
    <path id="Path_70679" data-name="Path 70679" d="M356.672,666.322l-4.288.005A9.623,9.623,0,0,1,356.672,666.322Z" fill="#00664a"/>
    <path id="Path_70680" data-name="Path 70680" d="M316.018,673.51a3.485,3.485,0,0,1,1.225-1.23Q317.466,673.727,316.018,673.51Z" fill="#00664a"/>
    <path id="Path_70681" data-name="Path 70681" d="M553.249,705.768l.661-1.217C554.535,705.416,554.161,705.738,553.249,705.768Z" fill="#00654a"/>
    <path id="Path_70682" data-name="Path 70682" d="M571.293,675.716a1.363,1.363,0,0,1-.6.627c-.209-.237-.5-.175-.764-.208l.767-.955C570.722,675.553,570.96,675.687,571.293,675.716Z" fill="#00654a"/>
    <path id="Path_70683" data-name="Path 70683" d="M557.262,694.051a4.442,4.442,0,0,1,2.292,0Z" fill="#00654a"/>
    <path id="Path_70684" data-name="Path 70684" d="M582.678,670.913c-.148.5-.6.694-.968.982C581.635,671.175,581.956,670.846,582.678,670.913Z" fill="#00664a"/>
    <path id="Path_70685" data-name="Path 70685" d="M598.676,676.811a3.153,3.153,0,0,1,0,2.29Q598.677,677.957,598.676,676.811Z" fill="#00664a"/>
    <path id="Path_70686" data-name="Path 70686" d="M585.04,678.984c-.415-.187-.922-.216-1.179-.677C584.38,678.313,584.953,678.225,585.04,678.984Z" fill="#00664a"/>
    <path id="Path_70687" data-name="Path 70687" d="M316.075,682.352a3.069,3.069,0,0,1-.778-1.158C316.036,681.257,316.02,681.828,316.075,682.352Z" fill="#00664a"/>
    <path id="Path_70688" data-name="Path 70688" d="M367.472,673.762l-.013-1.66A1.609,1.609,0,0,1,367.472,673.762Z" fill="#00654a"/>
    <path id="Path_70689" data-name="Path 70689" d="M545.594,672.1l-.014,1.66A1.613,1.613,0,0,1,545.594,672.1Z" fill="#00654a"/>
    <path id="Path_70690" data-name="Path 70690" d="M563.541,705.583l.879.91C563.779,706.525,563.5,706.2,563.541,705.583Z" fill="#00654a"/>
    <path id="Path_70691" data-name="Path 70691" d="M568.8,677.114l.933-.774C569.854,677.121,569.345,677.14,568.8,677.114Z" fill="#00654a"/>
    <path id="Path_70692" data-name="Path 70692" d="M567.755,677.8l1.042-.685C568.741,677.785,568.295,677.864,567.755,677.8Z" fill="#00654a"/>
    <path id="Path_70693" data-name="Path 70693" d="M595.28,682.3c-.052-.288.2-.434.306-.648a.541.541,0,0,1,.049.817C595.516,682.595,595.362,682.445,595.28,682.3Z" fill="#00664a"/>
    <path id="Path_70694" data-name="Path 70694" d="M325.472,679.526c-.495.13-.993.449-1.477-.025Z" fill="#00664a"/>
    <path id="Path_70695" data-name="Path 70695" d="M564.468,679.191l.711-.271c0,.225.014.462-.272.526C564.7,679.493,564.565,679.361,564.468,679.191Z" fill="#00654a"/>
    <path id="Path_70696" data-name="Path 70696" d="M551.369,684.544a.685.685,0,0,1-.727.228C550.744,684.248,550.968,684.116,551.369,684.544Z" fill="#00654a"/>
    <path id="Path_70697" data-name="Path 70697" d="M595.084,671.826c.384-.038.576.205.732.5C595.449,672.339,595.087,672.346,595.084,671.826Z" fill="#00664a"/>
    <path id="Path_70698" data-name="Path 70698" d="M554.945,694.054c.385.217.794-.032,1.185.062A.825.825,0,0,1,554.945,694.054Z" fill="#00654a"/>
    <path id="Path_70699" data-name="Path 70699" d="M593.4,670.942c.316-.167.481.134.713.229C593.745,671.5,593.505,671.431,593.4,670.942Z" fill="#00664a"/>
    <path id="Path_70700" data-name="Path 70700" d="M373.352,535.718a2.8,2.8,0,0,1-.168,1.274C373.2,536.563,373.019,536.106,373.352,535.718Z" fill="#00654a"/>
    <path id="Path_70701" data-name="Path 70701" d="M597.718,674.676c.291.172.583.344.43.765C597.648,675.386,597.7,675.02,597.718,674.676Z" fill="#00664a"/>
    <path id="Path_70702" data-name="Path 70702" d="M324.913,670.222a1.879,1.879,0,0,1,1.24.186C325.735,670.378,325.284,670.569,324.913,670.222Z" fill="#00664a"/>
    <path id="Path_70703" data-name="Path 70703" d="M331.383,674.845a1.242,1.242,0,0,1-.012,1.35Z" fill="#00664a"/>
    <path id="Path_70704" data-name="Path 70704" d="M385.349,675.482a2.724,2.724,0,0,1,1.285.173C386.2,675.635,385.739,675.825,385.349,675.482Z" fill="#00654a"/>
    <path id="Path_70705" data-name="Path 70705" d="M373.185,662.675a2.583,2.583,0,0,1,.175,1.295C373.012,663.577,373.207,663.111,373.185,662.675Z" fill="#00654a"/>
    <path id="Path_70706" data-name="Path 70706" d="M382.853,702.166h-4.7c1.618-.368,1.425-1.66,1.429-2.844.008-2.653.005-2.653-2.643-2.653-2.82,0-2.835,0-2.811,2.816.009,1.092-.378,2.447,1.409,2.665h-4.725c2.047-.624,1.37-2.3,1.411-3.636.059-1.988-.009-3.98.025-5.97.018-1.049-.109-1.934-1.393-2.21h4.694c-1.284.15-1.5,1.042-1.431,2.13.064,1.025-.426,2.356.189,2.994s1.961.185,2.985.2c2.292.029,2.292.009,2.292-2.3,0-.119,0-.239,0-.358.04-1.174.1-2.358-1.464-2.712h4.69c-1.607.245-1.353,1.5-1.358,2.591-.013,2.349.02,4.7-.015,7.046C381.417,700.986,381.582,701.846,382.853,702.166Z" fill="#fdfefd"/>
    <path id="Path_70707" data-name="Path 70707" d="M428.1,695.867c.579.295.966.489,1.35.69a2.531,2.531,0,0,1,1.415,2.548,2.733,2.733,0,0,1-1.756,2.6,5.257,5.257,0,0,1-1.955.48c-2.21.013-4.42.005-6.644.005a1.551,1.551,0,0,1,.045-.29c1.446-.083,1.632-.99,1.6-2.21-.067-2.381-.053-4.767-.005-7.15.024-1.148-.181-1.994-1.782-1.9a1.6,1.6,0,0,1,1.345-.3c2.176.043,4.381-.248,6.506.455a2.54,2.54,0,0,1,1.945,2.665A2.34,2.34,0,0,1,428.1,695.867Z" fill="#fdfefd"/>
    <path id="Path_70708" data-name="Path 70708" d="M488.673,695.936c-1.519.336-1.509,1.3-1.493,2.26.006.358,0,.716,0,1.074,0,2.2-.077,2.293-2.243,2.881a8.208,8.208,0,0,1-3.893.209,6.221,6.221,0,0,1,2.451-12.2c1.013.167,2.1.991,3.24-.364v3.943c-.5-.021-.526-.547-.7-.886a3.6,3.6,0,0,0-3.755-2.181,3.727,3.727,0,0,0-3.535,2.736c-.7,2.358-.876,4.726.94,6.746a4.732,4.732,0,0,0,4.954,1.149,1.017,1.017,0,0,0,.827-1.117,22.876,22.876,0,0,1,0-2.386c.05-.995-.179-1.743-1.493-1.782A12.617,12.617,0,0,1,488.673,695.936Z" fill="#fdfdfd"/>
    <path id="Path_70709" data-name="Path 70709" d="M496.242,701.38c1.795,0,3.3.021,4.8-.006a2.725,2.725,0,0,0,2.909-1.984,1.418,1.418,0,0,1,.254-.388c.016-.022.071-.016.219-.043a12.751,12.751,0,0,1-.284,2.742c-.05.357-.3.417-.607.416-3.1-.008-6.207-.008-9.31-.023-.139,0-.278-.119-.512-.226l7.765-10.893c-1.721,0-3.258-.054-4.79.016-1.3.06-1.86,1-2.176,2.191-.36-.935.044-1.776.1-2.629.022-.37.386-.332.66-.332,2.895,0,5.789,0,8.92,0Z" fill="#fcfdfd"/>
    <path id="Path_70710" data-name="Path 70710" d="M450.564,690.518c2.112-.58,2.112-.58,2.112,1.6V697.5c.946-.845,1.754-1.512,2.493-2.249.418-.417.544-.9-.293-1.107h3.354c-1.457.4-2.451,1.509-3.6,2.4-.5.389-.648.674-.2,1.215,1.275,1.538,2.236,3.37,4.323,4.38h-3.844c.292-.221.828-.318.3-.889-.851-.925-1.554-1.987-2.433-2.964.123,1.366-.661,2.825.669,4.223-1.119,0-2.118,0-3.117,0-.185,0-.418.036-.475-.233s.152-.321.345-.361c.751-.156.865-.7.863-1.349-.009-2.9,0-5.8-.007-8.7,0-.388.066-.829-.488-.937A.237.237,0,0,1,450.564,690.518Z" fill="#fcfdfd"/>
    <path id="Path_70711" data-name="Path 70711" d="M392.785,690.54c1.845-.581,1.845-.581,1.845,1.364v2.955c.2.161.3.024.418-.076,2.029-1.733,4.178-1.082,4.935,1.494a4.814,4.814,0,0,1-1.326,5.016,4.438,4.438,0,0,1-4.821.416,1.354,1.354,0,0,1-.839-1.4c.045-2.666.027-5.333.01-8,0-.455.17-.965-.256-1.349C392.61,690.81,392.605,690.667,392.785,690.54Z" fill="#fcfdfd"/>
    <path id="Path_70712" data-name="Path 70712" d="M407.118,690.54c1.844-.581,1.844-.581,1.844,1.364v2.955c.2.161.3.024.418-.076,2.029-1.733,4.178-1.082,4.935,1.494a4.814,4.814,0,0,1-1.325,5.016,4.44,4.44,0,0,1-4.822.416,1.354,1.354,0,0,1-.838-1.4c.044-2.666.026-5.333.009-8,0-.455.17-.965-.256-1.349C406.943,690.81,406.937,690.667,407.118,690.54Z" fill="#fcfdfd"/>
    <path id="Path_70713" data-name="Path 70713" d="M465.978,701.915h-3a3.291,3.291,0,0,0,1.447-1.812q1.9-4.551,3.823-9.093c.15-.358.324-.707.488-1.062.522.2.545.644.7.985q1.993,4.512,3.956,9.037a3.426,3.426,0,0,0,1.433,1.933h-4.366c.474-.428,1.514-.26,1.132-1.362-.718-2.072-.9-2.33-2.363-2.33a8.768,8.768,0,0,1-1.547-.015c-1.433-.26-2.132.362-2.535,1.707C464.85,700.878,464.579,701.633,465.978,701.915Z" fill="#fdfdfd"/>
    <path id="Path_70714" data-name="Path 70714" d="M441.254,694.82a9.511,9.511,0,0,0,1-.38c.837-.425,1.433-.481,1.2.912.6-.382,1.035-.705,1.51-.954a2.094,2.094,0,0,1,3.26,1.491,23.323,23.323,0,0,1,.138,4.63c.017.751.046,1.436.918,1.8h-3.546c1.392-.471,1.2-1.538,1.2-2.527,0-1.032.044-2.069-.036-3.1-.06-.77-.279-1.565-1.336-1.435-.936.115-1.687.473-1.674,1.614.013,1.191.01,2.383,0,3.574-.007.846-.045,1.7,1.028,2.064-1.222,0-2.443,0-3.665,0-.188,0-.414.025-.462-.245s.173-.3.357-.355a1.043,1.043,0,0,0,.747-1.1c.03-1.588.019-3.177.016-4.765a.884.884,0,0,0-.433-.8C441.348,695.136,441.114,695.078,441.254,694.82Z" fill="#fdfdfd"/>
    <path id="Path_70715" data-name="Path 70715" d="M509.533,694.223c2.73-.309,2.73-.309,2.73,2.278,0,1.192.015,2.384,0,3.576-.012.693.091,1.264.981,1.384l-2.184.761c-.437-.277-.076-.769-.34-1.107a15.762,15.762,0,0,1-1.445.926A2.106,2.106,0,0,1,506,700.158c-.072-1.467-.027-2.94-.022-4.41a1.656,1.656,0,0,0-.6-1.574.718.718,0,0,1,.2-.089c1.991-.056,1.99-.056,1.991,1.969,0,1.271.009,2.543.008,3.814,0,.892.4,1.457,1.321,1.493a1.92,1.92,0,0,0,1.815-1.526c.023-1.39-.005-2.781.009-4.172A1.354,1.354,0,0,0,509.533,694.223Z" fill="#fcfdfd"/>
    <path id="Path_70716" data-name="Path 70716" d="M391.373,701.091c-1.067,1.568-2.046,1.531-2.876.028a5.155,5.155,0,0,1-2.452,1.106,1.862,1.862,0,0,1-1.792-.939,1.605,1.605,0,0,1,.141-1.786c.779-1.347,2.175-1.775,3.472-2.35a1.632,1.632,0,0,0,.762-2.23c-.339-.828-1.054-.732-1.723-.6a1.027,1.027,0,0,0-.881,1.209.98.98,0,0,1-.559,1.083.581.581,0,0,1-.72-.277,1.177,1.177,0,0,1,.13-1.334,3.447,3.447,0,0,1,3.654-1.1,2.234,2.234,0,0,1,1.627,2.459c-.035,1.229.017,2.461-.013,3.691C390.124,700.863,390.128,701.571,391.373,701.091Z" fill="#fcfdfd"/>
    <path id="Path_70717" data-name="Path 70717" d="M436.933,700.986c-1.094,1.263-2.664,1.625-3.616.828a1.553,1.553,0,0,1-.451-2.108c.754-1.5,2.222-1.95,3.59-2.555.891-.393,1.164-1.148.745-2.223-.362-.927-1.134-.724-1.816-.57a1.073,1.073,0,0,0-.809,1.277.883.883,0,0,1-.513.979.622.622,0,0,1-.727-.272.955.955,0,0,1,0-1.116,3.29,3.29,0,0,1,3.535-1.38,2.227,2.227,0,0,1,1.884,2.388c.047,1.309.051,2.621,0,3.93-.027.766.124,1.249,1.066,1.055-.864,1.375-1.83,1.382-2.6.1a1.719,1.719,0,0,0-.321-.309c-.074-.826.326-1.6.221-2.443-.068-.536-.267-.706-.769-.5a3.2,3.2,0,0,0-1.189.752,1.245,1.245,0,0,0-.4,1.387,1.117,1.117,0,0,0,1.275.632C436.35,700.81,436.671,700.723,436.933,700.986Z" fill="#fcfdfd"/>
    <path id="Path_70718" data-name="Path 70718" d="M533.993,690.634l2.636-.866c0,3.28-.01,6.427.006,9.574,0,.867-.05,1.81,1.341,1.967-.2.116-.249.172-.3.175-2.767.124-2.767.123-2.767-2.64,0-2.222-.01-4.445,0-6.668C534.915,691.491,534.865,690.888,533.993,690.634Z" fill="#fbfcfc"/>
    <path id="Path_70719" data-name="Path 70719" d="M532.187,700.11a3.1,3.1,0,0,1-2.61,2.36,3.384,3.384,0,0,1-3.339-1.835,4.749,4.749,0,0,1,.3-4.768,3.94,3.94,0,0,1,3.882-1.819,2.3,2.3,0,0,1,1.917,1.231.823.823,0,0,1-.352,1.3c-.568.246-.913-.085-1.082-.6-.2-.6-.281-1.3-1.121-1.327a2.2,2.2,0,0,0-2.073,1.15,4.362,4.362,0,0,0,.277,4.509,2.445,2.445,0,0,0,3.5.348C531.714,700.474,531.812,700.12,532.187,700.11Z" fill="#fcfdfd"/>
    <path id="Path_70720" data-name="Path 70720" d="M514.05,694.758c.42-.432.944-.356,1.367-.547.4-.18.789-.364,1.249-.576l.116,1.5c.441-.483.748-.836,1.073-1.172a1.382,1.382,0,0,1,1.426-.384.885.885,0,0,1,.678,1.188c-.171.618-.616.631-1.135.44-1.374-.505-1.9-.133-1.934,1.385-.022,1.035.007,2.07-.008,3.1-.013.9-.046,1.8,1.17,2.031h-3.005a26.463,26.463,0,0,0,.194-6.026C515.24,694.975,514.5,695.027,514.05,694.758Z" fill="#fbfcfc"/>
    <path id="Path_70721" data-name="Path 70721" d="M537.761,694.111c2.157-1.035,3.615-.221,3.753,2.149.071,1.23.023,2.467.023,3.7,0,.757-.15,1.582,1.189,1.679l-.282.316h-3.595c1.329-.567,1.058-1.735,1.068-2.784s.01-2.069-.017-3.1c-.027-1.057-.469-1.753-1.646-1.735C538.018,694.416,537.76,694.553,537.761,694.111Z" fill="#fbfcfc"/>
    <path id="Path_70722" data-name="Path 70722" d="M520.384,694.831l2.956-.988c0,2.116.012,4.095-.005,6.075-.009.931-.015,1.827,1.181,2.135h-3.747a1.364,1.364,0,0,0,1.105-1.494c.006-1.472.04-2.944,0-4.413C521.846,695.189,521.659,695.051,520.384,694.831Z" fill="#f6f9f8"/>
    <path id="Path_70723" data-name="Path 70723" d="M405.5,702.068H401.6a1.387,1.387,0,0,0,1.183-1.547c-.018-1.432-.012-2.864,0-4.295.008-.91-.32-1.444-1.373-1.423l2.808-.963c0,2.144.007,4.171,0,6.2C404.208,700.979,404.248,701.866,405.5,702.068Z" fill="#fbfcfc"/>
    <path id="Path_70724" data-name="Path 70724" d="M522.669,689.953a.9.9,0,0,1,.913.95.859.859,0,0,1-.966.832c-.59-.005-1.01-.319-.978-.935C521.665,690.268,522.028,689.959,522.669,689.953Z" fill="#f7faf9"/>
    <path id="Path_70725" data-name="Path 70725" d="M402.371,690.933c.107-.482.259-.922.846-.972a.849.849,0,0,1,.964.812.8.8,0,0,1-.808.947A.9.9,0,0,1,402.371,690.933Z" fill="#f6f9f8"/>
    <path id="Path_70726" data-name="Path 70726" d="M392.785,690.54l-.034.423-.829-.052A.959.959,0,0,1,392.785,690.54Z" fill="#80b2a5"/>
    <path id="Path_70727" data-name="Path 70727" d="M407.118,690.54l-.035.423-.829-.052A.96.96,0,0,1,407.118,690.54Z" fill="#80b2a5"/>
    <path id="Path_70728" data-name="Path 70728" d="M450.564,690.518l0,.4c-.242.005-.637.219-.658-.153C449.89,690.418,450.3,690.508,450.564,690.518Z" fill="#c3dad4"/>
    <path id="Path_70729" data-name="Path 70729" d="M537.761,694.111l.493.221c-.287.153-.6.428-.878.084C537.286,694.3,537.566,694.143,537.761,694.111Z" fill="#c5dcd6"/>
    <path id="Path_70730" data-name="Path 70730" d="M441.254,694.82l.228.427c-.233-.026-.581.21-.652-.188C440.788,694.821,441.056,694.809,441.254,694.82Z" fill="#bcd6cf"/>
    <path id="Path_70731" data-name="Path 70731" d="M322.968,676.693v1.552c0,1.7-.023,1.715-1.6,1.165a4.432,4.432,0,0,1-1.547-.875,2.382,2.382,0,0,1,.5-4.193c2.268-1.214,2.65-.995,2.65,1.515Z" fill="#00664a"/>
    <path id="Path_70732" data-name="Path 70732" d="M590.086,673.63a6.254,6.254,0,0,1,2.9.834,2.194,2.194,0,0,1,.79,3.423,4.63,4.63,0,0,1-3.1,1.795c-.506.119-.6-.124-.6-.566C590.094,677.3,590.086,675.481,590.086,673.63Z" fill="#00664a"/>
    <path id="Path_70733" data-name="Path 70733" d="M477.057,570.149c-1.4-.289-2.8-.589-4.2-.863a5.542,5.542,0,0,0-3.846.434c-2.392,1.369-5.006,1.71-7.65,2.063a22.69,22.69,0,0,0-3.727.783c-4.969,1.541-4.332,6.49-1.723,8.717a12.719,12.719,0,0,0,5.91,2.665c4.6.933,9.177.482,13.747-.333,6.535-1.165,13.054-2.464,19.727-2.6a22.844,22.844,0,0,1,8.6,1.025c3.548,1.326,6.276,3.539,6.976,7.461.579,3.243-.787,5.992-2.758,8.463-.993,1.246-1.38,2.608-.447,3.953,2.276,3.281,1.914,6.751.978,10.3a2.312,2.312,0,0,1-.089.346c-1.663,3.762-.1,6.87,2.03,9.838a3.871,3.871,0,0,0,3.6,1.726,8.47,8.47,0,0,1,1.313.023,2.727,2.727,0,0,1,2.715,3.4,14.934,14.934,0,0,1-.794,2.864,26.089,26.089,0,0,0-1.412,8.9,20.986,20.986,0,0,1-.684,6.617,4.994,4.994,0,0,1-1.519,2.513,2.943,2.943,0,0,1-3.083.728c-1.142-.454-.582-1.493-.7-2.377-.679.332-.634.956-.663,1.489-.039.732-.326,1.1-1.091,1.087-.817-.015-1.413-.282-1.491-1.185a5.451,5.451,0,0,1,.445-2.206,2.331,2.331,0,0,0-1.266,2.149c-.023.849-.314,1.358-1.293,1.244-.909-.107-1.378-.535-1.318-1.477.023-.357.026-.715.038-1.073.04-.237.318-.591-.258-.528a3.066,3.066,0,0,0-.514,1.914c-.06.821-.49.9-1.138.585-1.643-.8-2.313-2.382-1.926-4.561.366-2.065,1.561-3.285,3.39-3.441a12.216,12.216,0,0,1,3.665.365c1.47.323,1.992-.1,2.052-1.6a22.306,22.306,0,0,0-.04-4.407,3.628,3.628,0,0,0-3.416-3.4,18.7,18.7,0,0,1-5.856-1.506,35.416,35.416,0,0,1-14.4-10.692,22.8,22.8,0,0,0-3.126-3.439c-.375-.311-.739-.753-1.49-.548l3.872,4.153c-1.427.3-2.819.562-4.193.9-2.772.67-5.195,2.162-7.743,3.356a62.718,62.718,0,0,1-17.743,5.684,33.846,33.846,0,0,1-5.83.37c-1.351-.041-1.784-.525-1.624-1.871a38.7,38.7,0,0,1,1.347-6.041,1.974,1.974,0,0,0,.2-1.313,3.538,3.538,0,0,0-.945,1.6,23.285,23.285,0,0,0-2.2,7.629,5.989,5.989,0,0,1-3.092,4.941,37.55,37.55,0,0,1-6.908,3.713c-1.854.651-2.735,2.222-3.228,4.02a19.649,19.649,0,0,1-1.208,3.731,5.015,5.015,0,0,1-5.82,2.891,1.261,1.261,0,0,1-1.179-1.386c0-.372.181-.776-.14-1.207a1.5,1.5,0,0,0-.547,1.57c.058.841-.187,1.258-1.127,1.181-.848-.069-1.742.086-1.768-1.189-.008-.407.189-.843-.128-1.307a1.823,1.823,0,0,0-.566,1.724c.007.461-.109.589-.62.507-1.479-.238-1.778-.659-1.826-2.919-1,.294-.571,1.235-.9,1.926-1.3-.827-1.341-2.127-1.322-3.35a3.058,3.058,0,0,1,2.162-3.108,6.846,6.846,0,0,1,3.651-.113,3.809,3.809,0,0,0,2.227-.024,14.122,14.122,0,0,0-5.173-.7c-2.622.3-3.891,1.814-3.688,4.446.073.935.149,1.659-1.13,1.666-1.241.008-1.32-.748-1.272-1.665.012-.231,0-.463,0-.774-.719.238-.465.8-.563,1.2-.118.484.188,1.237-.73,1.206-.824-.028-1.5-.326-1.586-1.27a9.754,9.754,0,0,1,.048-1.31c-.03-.2.415-.638-.258-.524a4.438,4.438,0,0,0-.614,1.656c-.088.284-.052.675-.485.729-.457.057-.613-.309-.789-.61a4.577,4.577,0,0,1,3.775-6.792,22.024,22.024,0,0,1,4.036.345c2.622.338,4.439-1.2,4.395-3.837a48.152,48.152,0,0,0-.975-7.2c-.032-.193-.03-.391-.062-.828,1.07,1.549,2.6,2.052,4.021,2.69a3.194,3.194,0,0,1,2.206,3.5,22.788,22.788,0,0,1-.371,4.044c.723-.081,1.046-.43,1.05-1.022a16.226,16.226,0,0,1,1.185-6.25,5.872,5.872,0,0,0-.389-4.646c1.958-.462,3.267,1.505,3.575,5.32,2.137-1.115,2.67-2.841,2.7-7.51,1.8.919,1.431,2.632,1.651,4.248.918-1,.653-2.119.765-3.134.047-.422-.141-.871.156-1.265.155-.214-.055-.522.184-.715a1.691,1.691,0,0,1,1.139-1.138c1.011-.208,1.131-.914,1.257-1.729a7.071,7.071,0,0,1,1.742-4.1c.2-.2.345-.632.737-.245.274.27.135.488-.107.694-.119.1-.285.217-.307.348-.1.6-.461,1.417.136,1.742.615.336.845-.493,1.145-.931a17.8,17.8,0,0,0,3.114-10.454,4.19,4.19,0,0,1,1.02-2.955c1.709-1.956,1.936-4.4,2.02-6.838a9.043,9.043,0,0,0-.383-4.223c-.32-.709.287-.571.644-.5,2.142.431,4.292.836,6.416,1.341,7.091,1.688,14.207,3.089,21.554,3.069a42.254,42.254,0,0,0,11.717-1.915,36.728,36.728,0,0,1,9.018-1.589,12.494,12.494,0,0,1,6,1.707c2.671,1.317,3.014,1.265,4.241-1.768,1.089-2.694-.515-6.006-3.365-7.306a15.746,15.746,0,0,0-6.407-1.169c-6.124-.1-12.121,1-18.112,2.051-5.038.886-10.073,1.535-15.185.8a18.03,18.03,0,0,1-8.835-3.28,8.538,8.538,0,0,1-3.221-9.12,6.745,6.745,0,0,1,4.075-4.816,24.924,24.924,0,0,1,9.051-1.874,6.42,6.42,0,0,0,2.843-.772c4.731-2.742,9.418-2.385,14.042.246,1.691.963,3.3,2.06,4.991,3.033a20.19,20.19,0,0,0,2.189.924c.21.089.506.164.477.457-.034.352-.345.391-.629.385-.517-.011-1.038-.01-1.55-.071a14.261,14.261,0,0,0-6.347.683,17.121,17.121,0,0,1-9.153.831,8.863,8.863,0,0,1-3.826-1.85c-.416-.342-.45-.56.044-.868a7.276,7.276,0,0,1,5.21-1.236,19.713,19.713,0,0,0,5.108.336c.369-.276.8-.213,1.221-.313A1.981,1.981,0,0,1,477.057,570.149Z" fill="#fefefe"/>
    <path id="Path_70734" data-name="Path 70734" d="M435.973,568.644a5.1,5.1,0,0,0-4.276,2.978,6.663,6.663,0,0,1-.451.7,1.332,1.332,0,0,1-1.981.377c-1-.579-.08-1.173.108-1.776-1.121-.089-1.122.973-1.644,1.55-.968-1.368.3-2.082.829-3.067a2.05,2.05,0,0,0-2.014,1.578c-.278.8-.526.4-.834.078-.383-.21.305-.967-.493-.967-.447.259-.316.841-.674,1.223a1.424,1.424,0,0,1-.229-2.058c.3-.393.274-.875.445-1.3.128-.725.768-1.19,1.006-2.055-.632.581-.525,1.515-1.279,1.795-1.048-.888-1.136-.819-1.666.453-1.4,3.366,1.931,5.643,4.442,5.989a4.812,4.812,0,0,0,2.7-.205.76.76,0,0,1,.989.139c.717,1.106,1.575.777,2.557.214a6.221,6.221,0,0,1-.175,3.083c-.13.455-.181.842.259,1.164s.762.042,1.089-.159a3.025,3.025,0,0,1,2.831-.334,1.812,1.812,0,0,1,1.274,2.326,2.4,2.4,0,0,0-3.4-1.5,1.75,1.75,0,0,0-1.3,1.769,8.241,8.241,0,0,0,.538,2.674,8.669,8.669,0,0,1-.117,5.728,2.949,2.949,0,0,0-.188,1.162c.019,1.593-.1,3.177-.2,4.766a8.909,8.909,0,0,1-2.044,5.1c-1.193,1.492-2.74,2.653-3.856,4.212a1.1,1.1,0,0,1-1.16.451c-.532-.11-.629-.532-.681-.991a4.37,4.37,0,0,0-.827-2.07,1.42,1.42,0,0,1,.083-1.945c.249-.248.46-.522.268-.825a.69.69,0,0,0-.874-.156,3.642,3.642,0,0,1-2.036.5.306.306,0,0,0-.359.239c-.048.225.1.333.255.478,1.611,1.533,1.658,2.7.232,4.23-.324.346-.645.5-1.025.187a27.345,27.345,0,0,0-4.467-2.475,6.8,6.8,0,0,1-3.641-4.488,41.729,41.729,0,0,0-3.243-8.293,5.818,5.818,0,0,1-.7-2.5c.051-2.982-.468-5.942-.319-8.924.1-2.05.7-2.6,2.71-2.571.557.008,1.119-.031,1.67.031,1.769.2,3.288-.07,4.3-1.782a3.32,3.32,0,0,1,1.76-1.17c1.847-.729,2.366-2.72,1.151-4.5-.306.437-.043.937-.221,1.372-.587.055-.6-.673-1.056-.8a3.437,3.437,0,0,0-.253,1.643c-.023.535-.005,1.073-.005,1.719-.734-.409-.709-1.237-1.375-1.49-.213.553-.065,1.18-.452,1.7-.363-.749-.464-1.676-1.5-1.925-.18.606.537,1.061.3,1.665-.416-.082-.6-.683-1.235-.464.227.4.656.768.449,1.286-.249.624-.814.33-1.249.4-.236.036-.37.117-.32.371.248,1.262-.5.8-1.1.643-1.385-.372-2.853-.015-4.243-.506-.427-.151-.349.348-.207.555a11.558,11.558,0,0,0,.942,1.065c-.734.151-.938.639-1.115,1.243a6.663,6.663,0,0,1-1.075,2.113c-.149.2-.477.42-.18.707.279.27.591.142.856-.077a1.932,1.932,0,0,1,.88-.582c-.117,2.115-.117,2.115-1.879,4.3.387.512,1.022-.519,1.32.177s-.417,1.046-.671,1.555c-.123.248-.279.48-.422.718s-.178.463.1.608c.256.135.343-.116.418-.272.17-.35.426-.678.807-.541.454.163.162.62.158.937a3.708,3.708,0,0,1-1.446,3.221,1.909,1.909,0,0,0-.885,1.211c.278.3.407-.009.594-.109a4.252,4.252,0,0,1,.548-.211c.12.68,1.161,1.028,1.049,1.466q-1.053,4.134-1.975,8.3c-.017.077-.026.156-.039.234-.316.445.283,1.144-.413,1.484-.468.628-.762.191-.948-.209a9.863,9.863,0,0,1-.248-8.621c.126-.276.5-.559.186-.827-.4-.339-.588.189-.85.369-.279.192-.417.742-.794.592-.438-.174-.232-.7-.25-1.079-.027-.555.028-1.115-.014-1.669a4.592,4.592,0,0,1,1.275-3.932c.194-.186.427-.436.206-.721-.205-.264-.426.029-.637.075-.375.083-.87.355-.826-.36.143-2.322-.39-4.677.421-6.972a5.117,5.117,0,0,1,1.383-2.036c.137-.13.369-.263.239-.479-.154-.255-.393-.166-.623-.05-.288.144-.572.56-.915.113a1.163,1.163,0,0,1-.13-1.123c.5-1.707,1.149-3.247,3.231-3.5.334-.04.541-.178.371-.652-.406-1.13-.125-1.624,1.083-1.932.772-.2,1.488-.329,1.6-1.331a1.049,1.049,0,0,1,.576-.714c1.672-.6,2.664-2.329,4.29-2.812,1.453-.432,2.411-1.413,3.6-2.13,1.507-.905,3.292-.482,4.879-.187a22.3,22.3,0,0,0,3.135.5,2.223,2.223,0,0,1,2.144,1.351c.392.77.616,1.839,2,1.9.955.046,1.475,1.133,1.938,1.966s.931,1.015,1.807.509c1.483-.856,2.223-.649,3.384.713.024.561-.411.335-.668.373C436.83,568.606,436.389,568.461,435.973,568.644Z" fill="#fefefe"/>
    <path id="Path_70735" data-name="Path 70735" d="M420.69,541.208l-1.45-.858c-.37.167-.294.385-.24.555.663,2.108,1,4.333,2.38,6.177a2.767,2.767,0,0,0,2.62,1.336c.938-.113.878.365.713.95a2.738,2.738,0,0,1-2.289,2.007,3.5,3.5,0,0,1-3.6-.991,4.083,4.083,0,0,1-1.087-2.221c-.213-2.185-1.822-3.019-3.488-3.835-.177-.087-.377-.128-.556-.211-.477-.22-1.252-.261-1.07-1.015.169-.7.876-.894,1.535-.88a7.721,7.721,0,0,1,1.386.278c-.1-2.266-1.41-3.773-3.443-3.884-.558-.03-.563-.254-.523-.653a2.834,2.834,0,0,1,1.761-2.616,3.4,3.4,0,0,1,3.79,1.008,8.131,8.131,0,0,1,1.47,3.6c1.995-1.029,3.958-2.015,6-2.829a78.85,78.85,0,0,1,21.629-5.02,93.988,93.988,0,0,1,21.436.269c13.765,1.794,26.785,5.685,38.247,13.847a39.652,39.652,0,0,1,6.8,6.158c.335.381.644.784,1.156,1.41-2.19,0-4.12.06-6.043-.025-.977-.043-1.185.291-1.15,1.193.068,1.781.02,3.567.02,5.583-.819-.954-1.479-1.766-2.183-2.537a53.6,53.6,0,0,0-17.879-12.459,82.008,82.008,0,0,0-28.535-7.034c-10.1-.682-20.014.2-29.613,3.624a42.43,42.43,0,0,0-6.185,2.777c-.4.222-.92.673-1.285.253-.384-.442.231-.827.466-1.206a10.491,10.491,0,0,1,.648-.847,2.028,2.028,0,0,0-.215-1.268c-.259-.411-.758-.3-1.108-.513Z" fill="#fefefe"/>
    <path id="Path_70736" data-name="Path 70736" d="M473.2,644.6c-.259.428-.4.556-.4.675.084,1.469-.628,2.067-2.063,2.187-1.024.086-1.673-.408-1.489-1.478a6.049,6.049,0,0,1,.324-1.018c.1-.289.23-.571.373-.921-1.01.5-1.3.7-1.709,2.227-.374,1.379-1.294,1.066-2.154.9a1.262,1.262,0,0,1-1.022-1.71c.124-.567.275-1.127.467-1.906a2.588,2.588,0,0,0-1.145,1.619c-.233.553-.093,1.513-1.167,1.283a2.16,2.16,0,0,1-1.672-2.176,2.849,2.849,0,0,1,.883-1.655c1.156-1.091,2.314-2.181,3.53-3.2a3.261,3.261,0,0,1,2.855-.444c.971.189,1.923.486,2.875.764a3.63,3.63,0,0,0,4.182-1.159c.786-.947,1.676-1.808,2.478-2.744,1.508-1.761,1.22-3.23-.927-4.081a15.676,15.676,0,0,1-5.71-3.316c-1.612-1.638-1.528-2.429.467-3.543a30.374,30.374,0,0,1,11.1-4.086,1.7,1.7,0,0,1,1.76.607,12.462,12.462,0,0,1,2.059,3.46,26.666,26.666,0,0,0,1.226,2.835,4.049,4.049,0,0,0,2.817,2.178c1.96.456,2.566,1.861,1.754,3.723a5.016,5.016,0,0,1-2.068,2.243c-1.416.88-2.834,1.761-4.288,2.575a17.171,17.171,0,0,0-6.317,5.861,5.792,5.792,0,0,1-5.008,2.894c-1.476.069-1.931-.3-1.934-1.8C473.28,645.235,473.253,645.084,473.2,644.6Z" fill="#fefefe"/>
    <path id="Path_70737" data-name="Path 70737" d="M414.983,622.571l-1.536-.852c-.228.375.224.679.055,1.028-.053.021-.137.085-.173.065a5.19,5.19,0,0,1-2.94-4.575c-.013-.437-.082-.872-.108-1.309-.108-1.821-.173-3.564.99-5.225a7.815,7.815,0,0,0,1.1-4.927,10.237,10.237,0,0,1,.712-5.258c.628-1.24.844-1.276,1.609-.184a8.893,8.893,0,0,0,1.834,1.7,7.587,7.587,0,0,1,2.995,6.211,4.65,4.65,0,0,0,.1.82c.009.05.117.082.222.15.618-1.334.069-3,1.306-4.253-.43,3.264,1.329,5.5,3.294,7.68.263-.649-.162-1.023-.467-1.422a7.758,7.758,0,0,1-1.507-2.681,3.49,3.49,0,0,1,.892-3.613c.416.307.225.691.213,1.005a5.813,5.813,0,0,0,1.243,4.123c1.655,2,1.533,4.338,1.291,6.7-.031.294-.341.608.106.8.417.18.572-.127.669-.452.075-.247.171-.451.476-.418a.538.538,0,0,1,.54.535c.018.985.785,1.381,1.416,1.912a6.315,6.315,0,0,1,1.818,6.839c-.2.568-.436.724-.886.255a5.032,5.032,0,0,1-.7-.8,5.527,5.527,0,0,0-2.986-2.262,13.2,13.2,0,0,1-3.437-1.665c1.37,2.508,3.819,4.7,2.191,8.1-.665-.853-1.266-1.719-1.974-2.488-.338-.367-.9-1.4-1.3.033-.086.3-.4.151-.621.1a3.152,3.152,0,0,1-1.98-1.6,14.728,14.728,0,0,1-2.164-10.257,15.719,15.719,0,0,0-.109-6.871,6.348,6.348,0,0,0-1.08-2.107c-.11-.142-.24-.351-.472-.137-.143.131-.113.27-.029.422s.124.295.206.43c1.623,2.676,1.161,5.41-.077,7.985a8.684,8.684,0,0,0-.773,5.652A6.764,6.764,0,0,1,414.983,622.571Z" fill="#fefefe"/>
    <path id="Path_70738" data-name="Path 70738" d="M439.373,602.752a11.7,11.7,0,0,0-1.133-4.213c-.624-1.565-1.73-3.043-1.713-4.748.019-2.036.553-4.06.39-6.125-.016-.206.042-.419.284-.449a.585.585,0,0,1,.6.328c.841,1.7,2,3.361,1.806,5.333a9.065,9.065,0,0,0,1.534,5.611,8.421,8.421,0,0,1,1.484,5.173.63.63,0,0,0,0,.237c.848,2.873-.463,5.567-.709,8.348a2.183,2.183,0,0,1-.479,1.069c-.276.356-.6.874-1.138.667-.466-.18-.2-.711-.21-1.077a10.659,10.659,0,0,0-.882-4.042c-1-2.333-1.938-4.691-2.963-7.012a9.978,9.978,0,0,1-.542-5.715c1.252,2.424,2.714,4.731,3.436,7.391C439.5,603.475,439.5,603.475,439.373,602.752Z" fill="#fefefe"/>
    <path id="Path_70739" data-name="Path 70739" d="M401.357,551.009c-.277-1.361.515-2.213,2.172-2.095.891.064,1.238-.049,1.413-1.018a2.024,2.024,0,0,1,2.361-1.559c.544.028.721-.047.861-.6a2.107,2.107,0,0,1,2.408-1.677,8.223,8.223,0,0,1,5.262,2.251c.734.705,1.379,1.524.272,2.514-.2.182-.194.589-.312.88a2.686,2.686,0,0,1-2.61,1.9c-.3,0-.534-.145-.66.362-.413,1.656-.864,1.984-2.524,2.1a4.287,4.287,0,0,1-2.1-.125,2.379,2.379,0,0,1-.319-.116c-.648-.264-1.179-.734-1.8-1.041a10.108,10.108,0,0,1-1.008-.711,3.29,3.29,0,0,0-1.284-.571c-.638-.3-1.37-.084-2.009-.371C401.439,551.092,401.4,551.051,401.357,551.009Z" fill="#fefefe"/>
    <path id="Path_70740" data-name="Path 70740" d="M407.077,600.678c.306-.462.628-.914.913-1.388.15-.25.312-.554.607-.449.342.123.151.475.093.719-.067.285-.442.631-.081.829s.64-.193.854-.481a6.388,6.388,0,0,0,.782-2.472c.075-.3.038-.838.527-.791.378.037.546.478.577.826.467,5.244.712,10.472-1.233,15.529-.241.627-.47.77-.948.216-.157-.182-.413-.218-.76-.1.2.952,1.235,1.822.37,2.982-3.246-4.464-4.576-9.174-2.18-14.471C406.758,601.311,406.635,600.852,407.077,600.678Z" fill="#fefefe"/>
    <path id="Path_70741" data-name="Path 70741" d="M434.786,622.644c-.006.253.05.521-.184.715-.06-.2,0-.548-.393-.376-.356.158-.316.605-.684,1.018-1.342-2.224-3.374-3.811-4.725-5.96a5.939,5.939,0,0,1-.737-2.369,28.393,28.393,0,0,1,.534-9.712,3.9,3.9,0,0,1,2.127-2.98c0,1.547.02,3.035-.007,4.523a8.77,8.77,0,0,0,.685,3.593c1.406,3.379,2.672,6.8,2.738,10.537C434.146,621.978,433.978,622.7,434.786,622.644Z" fill="#fefefe"/>
    <path id="Path_70742" data-name="Path 70742" d="M499.258,659.515c1.462,0,2.925-.023,4.386.011a.873.873,0,0,0,1.009-.733c.42-1.386.914-2.749,1.461-4.368.455,1.235.826,2.23,1.19,3.228.678,1.861.676,1.86,2.706,1.862q1.549,0,3.1.017c.021,0,.042.059.148.218-1.162.839-2.312,1.715-3.511,2.517a1.014,1.014,0,0,0-.473,1.456c.5,1.23.867,2.514,1.391,4.077-1.48-1.011-2.71-1.8-3.88-2.674a.938.938,0,0,0-1.334.028c-1.156.867-2.354,1.679-3.786,2.691.567-1.656.983-2.991,1.489-4.291a.828.828,0,0,0-.359-1.174c-1.235-.85-2.438-1.746-3.654-2.624Z" fill="#fefefe"/>
    <path id="Path_70743" data-name="Path 70743" d="M425.431,659.515c1.3,0,2.6-.059,3.9.02.932.057,1.434-.177,1.694-1.156.331-1.249.868-2.443,1.428-3.964.541,1.622,1.012,2.936,1.409,4.271a1,1,0,0,0,1.18.846,24.6,24.6,0,0,1,4.425.2c-1.058.767-2.07,1.609-3.187,2.277a1.412,1.412,0,0,0-.7,2.105c.477,1.073.783,2.223,1.284,3.692-1.113-.783-1.936-1.359-2.756-1.94-1.65-1.17-1.649-1.17-3.376.01q-1.231.842-2.47,1.668c-.054.036-.152.005-.314.005.451-1.3.841-2.6,1.354-3.84a1.011,1.011,0,0,0-.484-1.449c-1.182-.793-2.318-1.655-3.472-2.489Z" fill="#fefefe"/>
    <path id="Path_70744" data-name="Path 70744" d="M488.61,659.754c-1.186.853-2.357,1.73-3.567,2.548a.966.966,0,0,0-.432,1.373c.507,1.283.9,2.611,1.422,4.163-1.33-.95-2.494-1.707-3.567-2.576a1.191,1.191,0,0,0-1.742.021c-1.1.834-2.266,1.57-3.685,2.538.517-1.522.883-2.742,1.351-3.922a1.2,1.2,0,0,0-.5-1.742,17.435,17.435,0,0,1-3.2-2.642c1.376,0,2.753-.049,4.125.018a1.166,1.166,0,0,0,1.426-1c.344-1.283.836-2.526,1.376-4.111.551,1.642,1.028,2.962,1.43,4.3a.945.945,0,0,0,1.09.8c1.461-.042,2.923-.013,4.385-.013Z" fill="#fdfefe"/>
    <path id="Path_70745" data-name="Path 70745" d="M403.209,667.826c.583-1.692,1-3.011,1.5-4.3a.841.841,0,0,0-.378-1.172,27.148,27.148,0,0,1-3.486-2.843c1.436,0,2.874-.041,4.308.017a1.055,1.055,0,0,0,1.244-.917c.369-1.293.841-2.556,1.385-4.174.523,1.513,1.03,2.722,1.346,3.979.234.931.691,1.166,1.586,1.115a19.275,19.275,0,0,1,4.1.2c-1.136.821-2.246,1.683-3.42,2.446a1.13,1.13,0,0,0-.551,1.64c.514,1.233.876,2.53,1.37,4-1.394-.988-2.617-1.817-3.8-2.707a.871.871,0,0,0-1.238-.015C405.977,665.982,404.724,666.8,403.209,667.826Z" fill="#fdfefe"/>
    <path id="Path_70746" data-name="Path 70746" d="M464.277,659.515c-1.356,1.013-2.376,1.882-3.5,2.581a1.3,1.3,0,0,0-.562,1.938,13.453,13.453,0,0,1,.956,3.545c-1.109-.762-2.246-1.487-3.316-2.3a1.188,1.188,0,0,0-1.741-.014c-1.04.847-2.18,1.571-3.562,2.548.537-1.609.928-2.923,1.423-4.2a.9.9,0,0,0-.39-1.278,25.029,25.029,0,0,1-3.537-2.824c1.374,0,2.75-.05,4.12.019a1.169,1.169,0,0,0,1.427-1c.345-1.294.831-2.551,1.354-4.112.541,1.581,1.042,2.9,1.436,4.256a1,1,0,0,0,1.173.852C461.006,659.481,462.459,659.515,464.277,659.515Z" fill="#fefefe"/>
    <path id="Path_70747" data-name="Path 70747" d="M442.8,593.574c-.257,2.3.958,4.453.614,6.853a21.438,21.438,0,0,1-2.669-8.1,14.674,14.674,0,0,0-1.711-4.92,5.148,5.148,0,0,0-1.9-2.238,1.112,1.112,0,0,1-.547-1.517c.315-.6.969-.455,1.491-.214a5.735,5.735,0,0,1,2.935,3.436c.315.851.487,1.754.728,2.633a2.292,2.292,0,0,0,.89,1.509c-.207-1.879.777-3.2,1.418-4.94a30.634,30.634,0,0,1,1.873,8.661c.025,1.349-.086,2.7-.143,4.05-.021.5-.154,1.088-.664,1.138-.588.057-.445-.61-.531-.98A26.087,26.087,0,0,0,442.8,593.574Z" fill="#fefefe"/>
    <path id="Path_70748" data-name="Path 70748" d="M407.6,553.625l.251.022a1.386,1.386,0,0,0,1.085.344c.324-.026.64,0,.737.4-.856,2.246-1.668,2.711-4.684,2.647.078.3.167.578.223.865a1.4,1.4,0,0,1-.7,1.718c-.746.378-1.186-.111-1.613-.6q-2.109-2.421-4.211-4.849c-.471-.544-1.036-1.087-.3-1.83.693-.7,1.336-.436,2,.076.251.194.407.614.91.466.077-.621-1.568-1.346.054-1.879l-.026-.019c.761.277,1.611.021,2.358.392.366.255.864.225,1.2.554a1.306,1.306,0,0,1,.87.733C406.422,552.886,406.848,553.572,407.6,553.625Z" fill="#fefefe"/>
    <path id="Path_70749" data-name="Path 70749" d="M434.5,576.069c1.565-3.153,6.194-2.511,7.4-.134,1.851,3.659,2.446,7.445.525,11.311a2.721,2.721,0,0,1-.313.4,5.332,5.332,0,0,1-1.2-3.915,8.843,8.843,0,0,0-.718-4.863,4.465,4.465,0,0,0-4.534-2.8C435.315,576.08,434.967,576.069,434.5,576.069Z" fill="#fefefe"/>
    <path id="Path_70750" data-name="Path 70750" d="M434.3,599.035c.711,3.241,2.461,6.026,3.6,9.055a10.244,10.244,0,0,1-.117,6.892c-.124.391-.319.964-.78.934-.421-.027-.441-.616-.5-.986-.4-2.54-1.605-4.811-2.371-7.228A13.789,13.789,0,0,1,434.3,599.035Z" fill="#fdfefe"/>
    <path id="Path_70751" data-name="Path 70751" d="M432.606,602.9c.109,1.167.2,2.336.333,3.5a19.615,19.615,0,0,0,1.975,5.824c1.1,2.432.8,4.973.675,7.51a3.363,3.363,0,0,1-.761-2.163,25.275,25.275,0,0,0-1.851-6.244,15.391,15.391,0,0,1-1.019-7.228,3.137,3.137,0,0,1,.149-.7c.05-.178.13-.348.2-.522Z" fill="#fcfdfc"/>
    <path id="Path_70752" data-name="Path 70752" d="M396.736,555.841c.057-.521-.2-1.54.389-1.814s.988.707,1.418,1.17c1.292,1.39,2.531,2.829,3.78,4.259.147.169.357.432.313.587-.087.307-.444.264-.717.273a7.065,7.065,0,0,1-3.765-.869C396.839,558.7,396.735,557.359,396.736,555.841Z" fill="#fdfdfd"/>
    <path id="Path_70753" data-name="Path 70753" d="M436.434,569.971c2.744-.011,4.952,1.609,5.376,3.946.054.3.259.672-.153.826-.328.124-.433-.265-.6-.459a9.455,9.455,0,0,0-3.552-2.719,4.479,4.479,0,0,0-3.012-.3c-.267.078-.7.308-.848-.059-.169-.432.325-.57.611-.737A4.968,4.968,0,0,1,436.434,569.971Z" fill="#fbfcfc"/>
    <path id="Path_70754" data-name="Path 70754" d="M425.636,606.172c-.575,2.269,1.6,3.914,1.309,6.165C424.7,610.829,424.056,608.074,425.636,606.172Z" fill="#fbfcfc"/>
    <path id="Path_70755" data-name="Path 70755" d="M421.9,542.885c-.373.211-.7.877-1.184.348a1.4,1.4,0,0,1-.03-2.025l-.009-.014c.416.277,1.018.179,1.334.659C422.269,542.228,422.37,542.587,421.9,542.885Z" fill="#f2f7f6"/>
    <path id="Path_70756" data-name="Path 70756" d="M424.486,567.7a4.9,4.9,0,0,0,.605-1.622.647.647,0,0,1,.82-.489c.412.162.09.564.021.8-.187.653-.783,1.04-1.173,1.566Z" fill="#18745b"/>
    <path id="Path_70757" data-name="Path 70757" d="M477.057,570.149h1.9a2.609,2.609,0,0,1-1.671.4Z" fill="#4d9380"/>
    <path id="Path_70758" data-name="Path 70758" d="M409.674,554.4c-.506-.5-1.453.081-1.822-.749l2.148.421Z" fill="#237b62"/>
    <path id="Path_70759" data-name="Path 70759" d="M435.973,568.644c.555-.547,1.39.058,1.949-.474.326.306.244.462-.182.469C437.151,568.647,436.562,568.643,435.973,568.644Z" fill="#a4c8be"/>
    <path id="Path_70760" data-name="Path 70760" d="M407.077,600.678a1.781,1.781,0,0,1-.479.949l-.19-.213.413-1.484C406.916,600.176,406.773,600.5,407.077,600.678Z" fill="#30826c"/>
    <path id="Path_70761" data-name="Path 70761" d="M421.9,542.885c.151-.323.332-.647-.028-.955a.319.319,0,0,1,.267-.271.99.99,0,0,1-.019,1.449Z" fill="#418d78"/>
    <path id="Path_70762" data-name="Path 70762" d="M408.768,643.92a1.217,1.217,0,0,1,.645-.723,2.13,2.13,0,0,1-.387,1.247C408.959,644.26,408.99,644.028,408.768,643.92Z" fill="#31836d"/>
    <path id="Path_70763" data-name="Path 70763" d="M439.373,602.752c.282.41.172.867.223,1.33-.419-.03-.447-.288-.464-.554C439.4,603.326,439.263,603,439.373,602.752Z" fill="#2c8069"/>
    <path id="Path_70764" data-name="Path 70764" d="M425.217,570.095c.208-.3.4-.356.475.07a5.949,5.949,0,0,1,.018.9C425.282,570.874,425.6,570.3,425.217,570.095Z" fill="#2b7f68"/>
    <path id="Path_70765" data-name="Path 70765" d="M503.115,646.3c.046-.2.242-.473.343-.382.324.288.1.617-.085.91Z" fill="#1d775e"/>
    <path id="Path_70766" data-name="Path 70766" d="M424.011,698.786a1.414,1.414,0,0,1,.007-.474c.243-.623-.609-1.629.493-1.9,1.516-.37,3.579.474,4.014,1.472a2.593,2.593,0,0,1-.732,3.014,4.647,4.647,0,0,1-3.214.562c-.449-.037-.565-.372-.565-.768,0-.636,0-1.272,0-1.908Z" fill="#00664a"/>
    <path id="Path_70767" data-name="Path 70767" d="M424.01,693.464a1.449,1.449,0,0,1,0-.355c.174-.667-.491-1.727.458-1.96a3.383,3.383,0,0,1,3.142.613,2.186,2.186,0,0,1,.522,2.511c-.382,1.035-2.993,2.007-3.918,1.475-.262-.15-.2-.4-.2-.624C424.005,694.571,424.011,694.018,424.01,693.464Z" fill="#01664a"/>
    <path id="Path_70768" data-name="Path 70768" d="M394.631,698.486c0-.6.037-1.193-.01-1.784a1.479,1.479,0,0,1,1.084-1.637,1.737,1.737,0,0,1,1.953.5,5.012,5.012,0,0,1,.506,5.05,2.534,2.534,0,0,1-3.055.874.807.807,0,0,1-.478-.858C394.636,699.914,394.632,699.2,394.631,698.486Z" fill="#01664a"/>
    <path id="Path_70769" data-name="Path 70769" d="M408.964,698.507c0-.6.037-1.193-.011-1.784a1.471,1.471,0,0,1,.956-1.607,1.725,1.725,0,0,1,1.98.348,4.828,4.828,0,0,1,.484,5.326,2.57,2.57,0,0,1-2.911.7.792.792,0,0,1-.5-.843C408.968,699.935,408.965,699.221,408.964,698.507Z" fill="#01664a"/>
    <path id="Path_70770" data-name="Path 70770" d="M468.568,692.51c.6,1.506,1.106,2.838,1.667,4.146.257.6.22.871-.518.845-.986-.034-1.975-.008-3.137-.008C467.257,695.795,467.879,694.235,468.568,692.51Z" fill="#02674b"/>
    <path id="Path_70771" data-name="Path 70771" d="M388.716,697.43c0,.811-.039,1.523.01,2.228.063.892-.428,1.29-1.186,1.506a1.33,1.33,0,0,1-1.625-.654,1.457,1.457,0,0,1,.379-1.825A4.923,4.923,0,0,1,388.716,697.43Z" fill="#01664b"/>
    <path id="Path_70772" data-name="Path 70772" d="M436.933,700.986c-.039-.006-.083-.027-.116-.015-.956.324-1.966.522-2.406-.658-.418-1.119.465-1.736,1.278-2.258a7.158,7.158,0,0,1,1.189-.521c.262-.107.472-.083.458.273-.043,1.082.229,2.207-.431,3.207Z" fill="#05694e"/>
    <path id="Path_70773" data-name="Path 70773" d="M429.923,579.754a2.36,2.36,0,0,1-1.508.615,2.7,2.7,0,0,0-1.2.486c-1.006.784-.992,1.092.1,1.73l-.837,1.333a6.317,6.317,0,0,1,4.486-.419c.651.166,1.008.364.43,1.084a2.866,2.866,0,0,1-2.229,1.355c-1.145.046-2.278.324-3.421.468-.606.077-1.068-.129-.489-.74.843-.891.249-1.791.141-2.674-.053-.433-.513-.185-.784-.177-.391.011-.619-.047-.515-.52C424.533,580.3,428.04,578.754,429.923,579.754Z" fill="#01664b"/>
    <path id="Path_70774" data-name="Path 70774" d="M421.845,587.213c-.211-.061-.271-.062-.281-.084-1.107-2.492-3.193-3.751-5.676-4.512-.221-.068-.505-.117-.442-.442.068-.351.357-.351.651-.358.414-.009.991.481,1.193.021.25-.571-.529-.762-.834-1.136a1.74,1.74,0,0,0-1.367-.6,1.562,1.562,0,0,1-1.482-.6c1.135.042,2.063-.544,3.04.06,1.246.772,2.5,1.539,3.712,2.359.943.635.9.937-.032,1.464-.753.424-.141.789.172.889C422.049,584.764,421.819,585.993,421.845,587.213Z" fill="#03674b"/>
    <path id="Path_70775" data-name="Path 70775" d="M417.072,586.6c-1.449-.1-2.762.3-3.736-.949-.658-.841-.459-1.205.456-1.467,1.632-.468,3.213-.609,4.583.671a1.846,1.846,0,0,0,.848.405c.541.141.275.576.313.889.048.4-.251.445-.541.448C418.28,586.608,417.564,586.6,417.072,586.6Z" fill="#02674b"/>
    <path id="Path_70776" data-name="Path 70776" d="M423.032,596.147a13.16,13.16,0,0,0,4.7-.45c.3-.117.782-.25.883.261.108.546-.34.611-.757.661a49.837,49.837,0,0,1-7.721.739c-.447-.015-.951.082-.981-.541-.027-.577.413-.679.9-.673C421.05,596.155,422.041,596.147,423.032,596.147Z" fill="#05694e"/>
    <path id="Path_70777" data-name="Path 70777" d="M426.557,592.2c-.2,2.156-1.587,3.015-3.995,2.778-1.61-.158-2.308-.883-2.184-2.286C422.464,593.837,424.512,594.127,426.557,592.2Z" fill="#04684d"/>
    <path id="Path_70778" data-name="Path 70778" d="M422.143,541.659l-.267.271-1.2-.736C421.159,541.378,421.8,541.05,422.143,541.659Z" fill="#147158"/>
    <path id="Path_70779" data-name="Path 70779" d="M405.71,548.972c2.758-1.19,4.088,1.7,6.475,2.085-.973.291-1.313.364-1.909-.063A8.421,8.421,0,0,0,405.71,548.972Z" fill="#0f6f54"/>
    <path id="Path_70780" data-name="Path 70780" d="M407.6,553.625c-.843.119-1.32-.466-1.846-.956C406.531,552.676,407.013,553.253,407.6,553.625Z" fill="#398872"/>
    <path id="Path_70781" data-name="Path 70781" d="M403.743,551.442a7.787,7.787,0,0,1-2.412-.452,4.749,4.749,0,0,1,2.4.314Z" fill="#1f785f"/>
    <path id="Path_70782" data-name="Path 70782" d="M403.743,551.442a1.277,1.277,0,0,1-.008-.138c.418.147.936.114,1.15.632A2.167,2.167,0,0,1,403.743,551.442Z" fill="#217961"/>
    <path id="Path_70783" data-name="Path 70783" d="M430.013,584.465a.822.822,0,0,1-.907.552c-.263-.017-.565-.07-.446-.489s.342-.671.832-.558C429.77,584.034,430.039,584.074,430.013,584.465Z" fill="#eef5f3"/>
    <path id="Path_70784" data-name="Path 70784" d="M415.136,584.651c.492-.054.607.358.712.665.149.439-.279.432-.511.416-.4-.028-.837-.148-.83-.664C414.512,584.718,414.865,584.7,415.136,584.651Z" fill="#f2f7f5"/>
  </g>
</svg>
