<svg xmlns="http://www.w3.org/2000/svg" width="186.26" height="190.976" viewBox="0 0 186.26 190.976">
  <g id="miletap_logo" data-name="miletap logo" transform="translate(-1432.872 -205.024)">
    <path id="Path_72092" data-name="Path 72092" d="M1432.872,358.252c1.111-2.282,1.852-4.709,2.756-7.072,1.694-4.428,3.407-8.849,5.072-13.288,1.334-3.555,2.584-7.141,3.914-10.7,1.388-3.712,2.843-7.4,4.238-11.108,1.077-2.867,2.089-5.758,3.158-8.627,1.386-3.718,2.858-7.4,4.185-11.144a8.3,8.3,0,0,1,7.641-5.152c4.793.189,9.6.071,14.4.026.875-.008,1.106.224,1.1,1.1q-.066,6.889,0,13.78c.006.8-.187,1.056-1.023,1.038-2.647-.057-5.3,0-7.945-.037a1.265,1.265,0,0,0-1.454.945q-8.065,21.878-16.207,43.726c-.372,1-.346,1.322.864,1.322q72.378-.039,144.755-.023c1.438,0,1.443-.009.949-1.323q-8.123-21.606-16.226-43.218a1.808,1.808,0,0,0-2.037-1.43c-2.6.089-5.213.01-7.82.042-.679.008-1.022-.049-1.014-.9.047-4.717.039-9.434.005-14.152-.005-.735.248-.872.917-.869,5.173.026,10.348-.08,15.517.054a7.215,7.215,0,0,1,6.44,4.632q5.605,14.971,11.183,29.953,6.112,16.323,12.294,32.619c.324.85.079,1.777.6,2.541v.745a1.331,1.331,0,0,0-.126.841,7.183,7.183,0,0,1-6.927,7c-.372.014-.745.009-1.117.009q-85.215,0-170.431.017a8.251,8.251,0,0,1-6.52-2.722,6.736,6.736,0,0,1-1.139-2.163Z" fill="#363634"/>
    <path id="Path_72093" data-name="Path 72093" d="M1541.4,251.929c.391-8.928-7.206-15.923-15.754-15.839a15.786,15.786,0,0,0-.459,31.559C1534.564,267.947,1541.9,260,1541.4,251.929Zm-15.587,7.463a7.529,7.529,0,1,1,7.4-7.537A7.619,7.619,0,0,1,1525.813,259.392Z" fill="#00acee"/>
    <path id="Path_72094" data-name="Path 72094" d="M1572.427,254.483c-.156-3.1.259-6.2-.39-9.331-.462-2.22-.827-4.426-1.475-6.627a55.258,55.258,0,0,0-2.345-6.442,42.444,42.444,0,0,0-4.8-8.088,45.711,45.711,0,0,0-4.9-5.6,47.736,47.736,0,0,0-8.874-6.853,55.538,55.538,0,0,0-6.7-3.21,59.919,59.919,0,0,0-9.112-2.578c-1.2-.306-2.506-.01-3.612-.728h-8.443c-.08.261-.3.233-.5.248a42.206,42.206,0,0,0-6.664,1.118,51.384,51.384,0,0,0-6.382,2.049,45.008,45.008,0,0,0-8.056,4.184,62.164,62.164,0,0,0-6.126,4.762,35.964,35.964,0,0,0-6.2,6.933,48.367,48.367,0,0,0-4.789,8.28,62.049,62.049,0,0,0-3.267,9.889c-.248.932.045,1.972-.308,2.78-.812,1.863-.614,3.873-.529,5.678a47.631,47.631,0,0,0,.474,7.18c.524,2.643.887,5.313,1.528,7.961a90.7,90.7,0,0,0,2.954,8.953c.837,2.37,2.017,4.593,3.063,6.874,1.445,3.15,3.107,6.178,4.841,9.159,2.271,3.9,4.715,7.71,7.351,11.382,2.186,3.046,4.412,6.066,6.759,8.985q4.032,5.016,8.319,9.82a107.736,107.736,0,0,0,9.741,10.006c.581.5.869,1.441,1.639,1.558.942.144,1.183-.954,1.779-1.451a64.407,64.407,0,0,0,6.528-6.437c3.289-3.634,6.491-7.35,9.681-11.074a169.114,169.114,0,0,0,10.18-13.511,132.993,132.993,0,0,0,9.166-15.056,94.318,94.318,0,0,0,5.833-13.34,76.406,76.406,0,0,0,2.651-9.626A32.745,32.745,0,0,0,1572.427,254.483Zm-16.462,3.048c-.353,1.821-.82,3.627-1.227,5.428a47.07,47.07,0,0,1-2.323,6.645c-.658,1.679-1.475,3.294-2.191,4.953a86.209,86.209,0,0,1-5.11,9.341,121.884,121.884,0,0,1-8.168,12.169c-2.466,3.237-4.936,6.471-7.517,9.614-1.006,1.227-2.091,2.4-3.11,3.627-.318.382-.556.454-.978.01-1.953-2.045-3.756-4.221-5.523-6.419q-3.327-4.152-6.429-8.479c-1.679-2.357-3.318-4.744-4.864-7.206-1.654-2.638-3.276-5.289-4.821-7.992-1.2-2.094-2.229-4.27-3.264-6.443a70.954,70.954,0,0,1-3.637-9.629,37.319,37.319,0,0,1-1.359-6.27,31.181,31.181,0,0,1,1.056-14.314,29.724,29.724,0,0,1,3-6.617,31.514,31.514,0,0,1,9.424-9.768,31.864,31.864,0,0,1,9.609-4.176c2.328-.564,4.735-1.249,7.179-.75,2.579-.532,5.078.181,7.423.768a29.951,29.951,0,0,1,14.949,8.734,30.353,30.353,0,0,1,6.31,10.148,27.568,27.568,0,0,1,2.067,9.424A36.529,36.529,0,0,1,1555.965,257.531Z" fill="#00acee"/>
    <path id="Path_72095" data-name="Path 72095" d="M1450.753,396l-4.959-11.463-.238.006-1.242,6.808c-.148.812-.29,1.626-.441,2.437-.313,1.676-.972,2.084-2.654,1.715-.788-.173-.4-.716-.334-1.068.673-3.528,1.39-7.048,2.082-10.572.532-2.706,1.047-5.415,1.637-8.473l6.435,14.52c2.236-4.878,4.36-9.509,6.64-14.482.454,2.508.854,4.671,1.236,6.837.717,4.066,1.4,8.138,2.154,12.2.154.828.022,1.075-.851,1.061-1.824-.028-1.852.023-2.147-1.737-.5-3.009-.97-6.025-1.765-9.162L1451.249,396Z" fill="#747c86"/>
    <path id="Path_72096" data-name="Path 72096" d="M1541.4,251.929c.391-8.928-7.206-15.923-15.754-15.839a15.786,15.786,0,0,0-.459,31.559C1534.564,267.947,1541.9,260,1541.4,251.929Zm-15.587,7.463a7.529,7.529,0,1,1,7.4-7.537A7.619,7.619,0,0,1,1525.813,259.392Z" fill="#fefefe"/>
    <path id="Path_72097" data-name="Path 72097" d="M1591.486,394.337c-2.683-5.857-5.294-11.747-7.942-17.62-.139-.308-.179-.713-.606-.874-3.019,6.483-6.029,12.952-9.1,19.56,2.886.3,2.886.3,4-2.136.224-.49.5-.959.673-1.464a1.131,1.131,0,0,1,1.315-.824,20.578,20.578,0,0,0,3.964-.02c2.455-.39,3.908.464,4.4,2.926.273,1.369,1.115,1.779,2.494,1.659C1591.672,395.458,1591.98,395.413,1591.486,394.337Zm-11.37-6.083c.959-2.1,1.875-4.107,2.879-6.31.961,2.2,1.831,4.188,2.76,6.31Z" fill="#747c86"/>
    <path id="Path_72098" data-name="Path 72098" d="M1513.336,386.147c0-2.773.027-5.546-.017-8.319-.012-.8.22-1.065,1.043-1.051,2.772.048,5.547.079,8.317-.009,1.249-.04,1,.7,1.062,1.428.071.866-.123,1.274-1.126,1.227-1.817-.083-3.642.005-5.462-.037-.744-.017-.994.217-1.02.981-.123,3.631-.145,3.63,3.457,3.63.91,0,1.826.062,2.73-.017.945-.082,1.161.269,1.2,1.183.046,1.143-.295,1.493-1.438,1.426-1.691-.1-3.393,0-5.089-.038-.656-.014-.865.218-.85.859.034,1.489.052,2.981-.006,4.468-.032.82.324.959,1.034.945,1.862-.038,3.728.051,5.586-.036,1.193-.055.979.692.969,1.366-.008.652.266,1.406-.946,1.374-2.854-.075-5.711-.047-8.566-.008-.733.01-.9-.251-.888-.93C1513.355,391.775,1513.336,388.961,1513.336,386.147Z" fill="#747c86"/>
    <path id="Path_72099" data-name="Path 72099" d="M1609.513,376.881c-1.441-.082-2.889-.025-4.332-.1-.783-.04-.974.258-.964,1,.037,2.807.015,5.617.015,8.426v7.435c0,1.94,0,1.908,1.9,1.881.693-.008.951-.2.924-.912-.048-1.24-.043-2.479-.005-3.719.027-.939-.383-2.069.2-2.762.517-.619,1.635-.214,2.484-.311a5.32,5.32,0,0,0,4.966-5.723A5.163,5.163,0,0,0,1609.513,376.881Zm-2.047,8.392c-.427-.147-.412-.46-.417-.783-.01-.743,0-1.483-.005-2.223a1.749,1.749,0,0,1,.01-.614c.308-.745-.8-2.084.74-2.258,2.34-.266,3.957.748,4.158,2.36A3.388,3.388,0,0,1,1607.466,385.273Z" fill="#747c86"/>
    <path id="Path_72100" data-name="Path 72100" d="M1560.235,387.509c0,2.316-.076,4.635.031,6.946.058,1.261-.68,1.057-1.407,1.047-.708-.009-1.449.239-1.428-1.028.073-4.589,0-9.181.05-13.771.011-1.017-.257-1.447-1.31-1.316-.57.072-1.167-.059-1.733.028-1.2.183-1.43-.364-1.4-1.441.024-.88.185-1.223,1.159-1.2,3.1.065,6.2.075,9.3,0,1.159-.028.995.639,1,1.336s.155,1.389-1,1.326c-1.048-.056-2.5-.511-3.066.232-.528.688-.18,2.06-.19,3.131C1560.225,384.366,1560.235,385.937,1560.235,387.509Z" fill="#747c86"/>
    <path id="Path_72101" data-name="Path 72101" d="M1495.289,384.882c0,2.317.025,4.634-.014,6.951-.013.753.219,1.026.986.992,1.2-.055,2.4.031,3.6-.026,1.252-.06.846.835.881,1.446.035.628.217,1.325-.911,1.282-2.148-.082-4.3-.049-6.454-.009-.7.012-.919-.188-.916-.9.027-5.627.045-11.255-.008-16.883-.011-1.225.751-.922,1.39-.929.7-.009,1.511-.27,1.469,1C1495.233,380.162,1495.289,382.523,1495.289,384.882Z" fill="#747c86"/>
    <path id="Path_72102" data-name="Path 72102" d="M1475.091,386.059c0-2.768.052-5.537-.024-8.3-.033-1.2.7-.972,1.365-.952s1.505-.327,1.493.972c-.049,5.576-.038,11.153,0,16.729.006.854-.306,1.036-1.075,1.011-2.151-.071-1.729.222-1.751-1.774C1475.07,391.181,1475.091,388.62,1475.091,386.059Z" fill="#747c85"/>
    <path id="Path_72103" data-name="Path 72103" d="M1541.4,251.929c.391-8.928-7.206-15.923-15.754-15.839a15.786,15.786,0,0,0-.459,31.559C1534.564,267.947,1541.9,260,1541.4,251.929Zm-15.587,7.463a7.529,7.529,0,1,1,7.4-7.537A7.619,7.619,0,0,1,1525.813,259.392Z" fill="#363634"/>
  </g>
</svg>
