<svg xmlns="http://www.w3.org/2000/svg" width="23.995" height="25.757" viewBox="0 0 23.995 25.757">
  <g id="People_fav-ic" data-name="People fav-ic" transform="translate(876.908 -122.038)">
    <path id="Path_66457" data-name="Path 66457" d="M-864.234,138.918l-.144.068c-.018-.014-.024-.029-.019-.044s.011-.022.017-.022a.15.15,0,0,1,.074-.14C-864.219,138.795-864.214,138.851-864.234,138.918Z" fill="#17a39b"/>
    <path id="Path_66458" data-name="Path 66458" d="M-856.446,138.853c-.078.094-.188.066-.288.066h-4.8c-.1,0-.209.028-.287-.066Z" fill="#f9c90f"/>
    <g id="Group_25674" data-name="Group 25674">
      <path id="Path_66459" data-name="Path 66459" d="M-873.144,138.78c.177-.087.361-.017.541-.018q3.827-.013,7.653-.015c.215,0,.429.022.644.033a.216.216,0,0,1-.141.2.64.64,0,0,1-.2.028c-2.756,0-5.513.015-8.268-.007C-873.076,139.01-873.064,138.851-873.144,138.78Z" fill="#6c8b83"/>
      <g id="Group_25673" data-name="Group 25673">
        <path id="Path_66460" data-name="Path 66460" d="M-865.717,140.271a.952.952,0,0,0-.473-.05q-3.234,0-6.469,0c-.137,0-.274-.009-.412-.014.038-.218.221-.161.354-.164.528-.012,1.056,0,1.584-.005,1.792-.006,3.584.012,5.375-.01a.71.71,0,0,1,.607.3c-.051,2.012-.008,4.024-.023,6.036a.7.7,0,0,1-.085.485c-.2.012-.164-.15-.175-.254a5.558,5.558,0,0,1-.008-.6c-.009-1.816.016-3.633-.013-5.447-.008-.1-.086-.114-.166-.127C-865.667,140.377-865.639,140.291-865.717,140.271Z" fill="#6c8b83"/>
        <path id="Path_66461" data-name="Path 66461" d="M-865.691,140.064c-.113.116-.26.065-.391.065q-3.3,0-6.6.005c-.13,0-.279-.057-.387.071-.044.03-.114.024-.115-.015a4.074,4.074,0,0,1,.042-1.41l.15.037-.076.1a.34.34,0,0,1,.077.145,3.147,3.147,0,0,1,.013.376,2.423,2.423,0,0,1-.01.255c-.071.2,0,.291.216.272q3.282,0,6.559,0C-866.037,139.971-865.845,139.924-865.691,140.064Z" fill="#6c8b83"/>
        <path id="Path_66462" data-name="Path 66462" d="M-865.717,140.271c.076.013.094.069.1.131.125.144.086.319.086.483q0,3.1,0,6.2c0,.485,0,.484.493.487.206,0,.413-.009.619.011a.359.359,0,0,1,.177.089l-.016.122h0a3.819,3.819,0,0,0-1.129-.036c-.253.017-.313-.035-.312-.279.009-2.27.007-4.54.006-6.81A.941.941,0,0,0-865.717,140.271Z" fill="#6c8b83"/>
        <path id="Path_66463" data-name="Path 66463" d="M-864.234,138.918l.005,8.68c-.152.012-.153-.1-.168-.2a2.37,2.37,0,0,1-.011-.368v-7.178a3.5,3.5,0,0,0-.015-.5.573.573,0,0,1-.032-.239.3.3,0,0,1,.034-.109C-864.366,138.959-864.329,138.878-864.234,138.918Z" fill="#6c8b83"/>
        <path id="Path_66464" data-name="Path 66464" d="M-864.378,139.256c.117.112.065.254.065.383q0,3.792.005,7.586c0,.126-.06.272.079.373a.269.269,0,0,1,.016.053c0,.007-.014.015-.021.022l-.144-.008a.372.372,0,0,1-.092-.178,4.654,4.654,0,0,1-.019-.737q-.006-3.459,0-6.916C-864.489,139.637-864.535,139.427-864.378,139.256Z" fill="#6c8b83"/>
        <path id="Path_66465" data-name="Path 66465" d="M-864.38,138.92l0,.066v.068c-.1.064.065.271-.153.272-.069-.062-.083-.164-.169-.213a.858.858,0,0,0-.341-.03c-2.623.008-5.246-.02-7.868.015a.265.265,0,0,1-.161-.044v-.133Z" fill="#6c8b83"/>
        <path id="Path_66466" data-name="Path 66466" d="M-865.276,146.86v-5.6a3.868,3.868,0,0,1,.069-1c-.144-.235-.407-.2-.626-.263-2.186-.016-4.372,0-6.558-.008a1.2,1.2,0,0,1-.442-.032.084.084,0,0,1-.039-.109.712.712,0,0,1,.5-.085q2.752,0,5.505,0a5.148,5.148,0,0,1,1.3.051.2.2,0,0,0,.217-.06c.077-.207-.118-.191-.218-.258-.079-.054-.29-.047-.13-.232a.742.742,0,0,1,.6.038c.164.151.125.351.125.537q0,3.2,0,6.408a.928.928,0,0,0,.048.461c.036.045.09.072.13.113a.161.161,0,0,1,.028.151.219.219,0,0,1-.118.089c-.106.022-.134.085-.131.188a.366.366,0,0,1-.182.358.154.154,0,0,1-.167-.064,1.53,1.53,0,0,1-.062-.329A.388.388,0,0,1-865.276,146.86Z" fill="#6c8b83"/>
        <path id="Path_66467" data-name="Path 66467" d="M-865.345,147.532l.139.067a.437.437,0,0,1,.221-.078c.06-.007.121-.013.181-.021a1.721,1.721,0,0,1,.176.005c.084,0,.173-.046.248.028l0,.132c-.309,0-.619-.011-.928.005-.232.012-.319-.055-.318-.3.01-2.324.009-4.647.011-6.971.044-.013.087-.076.131,0a.357.357,0,0,1,.067.253q0,3.248,0,6.493A.64.64,0,0,0-865.345,147.532Z" fill="#6c8b83"/>
        <path id="Path_66468" data-name="Path 66468" d="M-865.483,147.264q0-3.431,0-6.862c.228.054.132.236.132.361.007,1.9,0,3.81.007,5.715,0,.128-.052.271.067.382a1.189,1.189,0,0,0-.07.4A.093.093,0,0,1-865.483,147.264Z" fill="#6c8b83"/>
        <path id="Path_66469" data-name="Path 66469" d="M-865.759,140a2.978,2.978,0,0,0,.3,0c.217-.023.274.087.253.271a1.122,1.122,0,0,1-.484-.2l-7.243,0c-.02-.051,0-.083.052-.1,2.284-.005,4.569,0,6.854,0A.469.469,0,0,1-865.759,140Z" fill="#6c8b83"/>
        <path id="Path_66470" data-name="Path 66470" d="M-865.207,139.727c-.025.233-.211.232-.361.192a4.158,4.158,0,0,0-1.09-.057h-6.207c-.13.043-.136-.094-.207-.135v-.269a.134.134,0,0,1,.165-.008.4.4,0,0,1,.08.09.872.872,0,0,0,.5.081c1.825,0,3.651.013,5.476-.006a5.405,5.405,0,0,1,1.29.006A.711.711,0,0,1-865.207,139.727Z" fill="#6c8b83"/>
        <path id="Path_66471" data-name="Path 66471" d="M-872.934,139.458h-.138v-.4a1.914,1.914,0,0,1,.507-.07q3.845.006,7.689.005c.121,0,.256-.045.358.065-.217.241-.495.049-.739.1-2.338.013-4.677.005-7.015,0C-872.55,139.158-872.8,139.183-872.934,139.458Z" fill="#6c8b83"/>
        <path id="Path_66472" data-name="Path 66472" d="M-873.072,139.727c.107-.011.135.094.207.135v.067c-.005.04-.046.045-.069.067,0,.022,0,.044,0,.066C-873.172,140.025-873.089,139.863-873.072,139.727Z" fill="#6c8b83"/>
        <path id="Path_66473" data-name="Path 66473" d="M-864.38,147.533l-.275.066a.479.479,0,0,1-.087-.224.838.838,0,0,1,0-.187,2.125,2.125,0,0,0-.015-.632q0-3.4,0-6.806a1.008,1.008,0,0,1,.029-.3.177.177,0,0,1,.206-.128c.112-.057.026-.211.138-.269v.2Q-864.379,143.395-864.38,147.533Z" fill="#6c8b83"/>
        <path id="Path_66474" data-name="Path 66474" d="M-864.517,139.323l-.138.068a.2.2,0,0,0-.16.121,3.108,3.108,0,0,0-.018.57q0,3.132,0,6.264c0,.175.039.361-.1.514-.227-.054-.134-.235-.134-.361q-.009-3.358-.005-6.718a.788.788,0,0,0-.068-.458.193.193,0,0,1,0-.269,1.371,1.371,0,0,0,.621,0Z" fill="#6c8b83"/>
        <path id="Path_66475" data-name="Path 66475" d="M-865.138,139.054v.269h-.621a.933.933,0,0,1-.794.236c-2,.013-3.995.009-5.993,0a.545.545,0,0,1-.388-.106h0c-.056-.338.115-.411.433-.409C-870.047,139.059-867.593,139.054-865.138,139.054Z" fill="#6c8b83"/>
        <path id="Path_66476" data-name="Path 66476" d="M-872.934,139.458q2.885,0,5.771,0a3.641,3.641,0,0,0,1.4-.134.547.547,0,0,0,.336.131c.177.022.223.123.216.273a2.3,2.3,0,0,1-.943-.107c-.162-.079-.316.117-.513.115-1.969-.013-3.939-.009-5.909-.007C-872.77,139.728-872.953,139.726-872.934,139.458Z" fill="#6c8b83"/>
        <path id="Path_66477" data-name="Path 66477" d="M-864.793,139.323a.146.146,0,0,1,.138.068q0,3.607,0,7.215c0,.22.094.439,0,.658-.278.023-.2-.125-.138-.269v-.135a.554.554,0,0,1-.068-.389q0-3.379,0-6.759A.554.554,0,0,1-864.793,139.323Z" fill="#6c8b83"/>
        <path id="Path_66478" data-name="Path 66478" d="M-864.793,139.323v7.537h-.138q0-3.588,0-7.177C-864.927,139.558-865.02,139.377-864.793,139.323Z" fill="#6c8b83"/>
        <path id="Path_66479" data-name="Path 66479" d="M-872.934,140l.069-.067q3.357,0,6.714,0c.131,0,.278-.051.392.065Z" fill="#6c8b83"/>
        <path id="Path_66480" data-name="Path 66480" d="M-864.932,147.6h-.274c.052-.137.173-.25.1-.427-.052-.126.065-.164.174-.177A.548.548,0,0,1-864.932,147.6Z" fill="#6c8b83"/>
        <path id="Path_66481" data-name="Path 66481" d="M-864.932,147.6v-.6h.138c.013.106-.047.247.138.269v.135a1.724,1.724,0,0,1-.137.134A.139.139,0,0,1-864.932,147.6Z" fill="#6c8b83"/>
        <path id="Path_66482" data-name="Path 66482" d="M-865.483,147.264h.137c0,.09.068.179,0,.268C-865.531,147.512-865.47,147.37-865.483,147.264Z" fill="#6c8b83"/>
        <path id="Path_66483" data-name="Path 66483" d="M-864.793,147.533a.123.123,0,0,1,.137-.134v.2Z" fill="#6c8b83"/>
      </g>
    </g>
    <g id="Group_25675" data-name="Group 25675">
      <path id="Path_66484" data-name="Path 66484" d="M-862.371,141.914c0-.953,0-1.906,0-2.859,0-.227.077-.325.318-.324q2.826.007,5.653,0c.3,0,.415.1.4.393a7.2,7.2,0,0,0-.006.974c.017.279-.088.377-.371.375-1.08-.009-2.16,0-3.241,0-.126,0-.253,0-.379,0-.784-.017-.645-.028-.647.652,0,1.211,0,2.421.009,3.632,0,.261-.055.394-.361.374a10.566,10.566,0,0,0-1.068,0c-.224.008-.3-.07-.3-.292.01-.976,0-1.951,0-2.926Z" fill="#d3cb8d"/>
      <path id="Path_66485" data-name="Path 66485" d="M-861.892,145.04h-.075a.18.18,0,0,1-.039-.186.547.547,0,0,0,.013-.355c-.028-1.6-.009-3.2-.01-4.794,0-.154-.007-.318.148-.425a1,1,0,0,1,.44-.049q2.307,0,4.615,0c.057,0,.115,0,.172,0,.2.01.428.009.417.281-.018.463-.062.6-.382.644a2.511,2.511,0,0,1-.378.015c-.827,0-1.654.017-2.48-.007a9.177,9.177,0,0,0-1.118.138c-.142.012-.158.147-.223.233a1.026,1.026,0,0,0-.059.715c.122,1.034.031,2.07.055,3.1.005.207.155.437-.066.624C-861.2,145.066-861.553,144.951-861.892,145.04Z" fill="#d3cb8d"/>
      <path id="Path_66486" data-name="Path 66486" d="M-860.792,140.534c0-.077-.005-.205.067-.208.31-.01.52-.274.843-.269,1.043.017,2.086.007,3.13.006.362,0,.529-.175.508-.534-.013-.238-.2-.205-.355-.205h-5.228a.113.113,0,0,1,.026-.171,1.078,1.078,0,0,1,.539-.069c1.4,0,2.8-.013,4.2.008.311,0,.592-.138.9-.1.154.3-.04.6-.01.908.041.435.01.438-.432.438-1.214,0-2.428,0-3.643,0A.605.605,0,0,0-860.792,140.534Z" fill="#d3cb8d"/>
      <path id="Path_66487" data-name="Path 66487" d="M-861.827,139.189v.134c-.118.111-.066.254-.066.382q-.006,2.468,0,4.935c-.047.051-.07.123-.14.153-.1-.12-.117.109-.205.049l0-5.587a1.573,1.573,0,0,1,.2-.086A.405.405,0,0,1-861.827,139.189Z" fill="#d3cb8d"/>
      <path id="Path_66488" data-name="Path 66488" d="M-861.827,139.189a.182.182,0,0,1-.2,0,.275.275,0,0,1,0-.267l.21-.068a.375.375,0,0,0,.233.033h4.913a.376.376,0,0,0,.233-.033l.277.134c-.459.332-.99.191-1.492.2C-859.049,139.2-860.438,139.189-861.827,139.189Z" fill="#d3cb8d"/>
      <path id="Path_66489" data-name="Path 66489" d="M-862.035,138.921a.212.212,0,0,1,0,.267c-.018.172-.116.11-.206.067C-862.222,139.114-862.318,138.907-862.035,138.921Z" fill="#d3cb8d"/>
      <path id="Path_66490" data-name="Path 66490" d="M-862.24,144.842c.062-.041.1-.144.205-.067a.08.08,0,0,1,.069.068v.2C-862.116,145.051-862.26,145.055-862.24,144.842Z" fill="#d3cb8d"/>
      <path id="Path_66491" data-name="Path 66491" d="M-861.892,145.04a3.36,3.36,0,0,1,1.03-.063A3.186,3.186,0,0,1-861.892,145.04Z" fill="#d3cb8d"/>
      <path id="Path_66492" data-name="Path 66492" d="M-860.661,140.118a.1.1,0,0,1-.124-.114c0-.071.02-.131.107-.129a.125.125,0,0,1,.137.113C-860.534,140.067-860.592,140.1-860.661,140.118Z" fill="#d3cb8d"/>
      <path id="Path_66493" data-name="Path 66493" d="M-861.966,144.843l-.069-.068a.126.126,0,0,1,.14-.135C-861.855,144.728-861.787,144.826-861.966,144.843Z" fill="#d3cb8d"/>
    </g>
    <g id="Group_25676" data-name="Group 25676">
      <path id="Path_66494" data-name="Path 66494" d="M-861.077,125.685q0,1.949.008,3.9c0,1.928.009,3.855-.005,5.782,0,.281.088.334.349.333,2.493-.009,4.986,0,7.478-.012.253,0,.359.049.33.309-.023.21-.014.424-.019.637a.087.087,0,0,1-.109-.046.754.754,0,0,1-.047-.329c-.013-.4-.015-.4-.439-.4q-3.574,0-7.149,0a.758.758,0,0,0-.387.062.236.236,0,0,1-.215-.156c-.162-.267.034-.564-.078-.836-.027-2.6-.005-5.192-.012-7.787,0-.213-.008-.425.011-.637.1-.21-.005-.432.031-.644-.07-.124-.174-.016-.259-.029-.233-.034-.478.046-.705-.069a.067.067,0,0,1,0-.1A3.708,3.708,0,0,1-861.077,125.685Z" fill="#c9ada9"/>
      <path id="Path_66495" data-name="Path 66495" d="M-862.363,136.9q0-5.449,0-10.9c0-.1-.044-.2.053-.283l.015.024a.879.879,0,0,1,.113.366.453.453,0,0,1-.017.179,4.37,4.37,0,0,0-.013.537q0,4.647,0,9.3a2.993,2.993,0,0,0,.016.5c.013.113.184.142.158.277Z" fill="#c9ada9"/>
      <path id="Path_66496" data-name="Path 66496" d="M-862.037,136.9l-.2-.132.05-.043c.215-.091.43,0,.645,0q4.026,0,8.052,0a1.549,1.549,0,0,0,.273-.025c.077-.017.15-.046.226-.068h.059c.036.18.018.289-.228.289q-4.4-.012-8.806-.008A.333.333,0,0,1-862.037,136.9Z" fill="#c9ada9"/>
      <path id="Path_66497" data-name="Path 66497" d="M-861.206,135.757a.233.233,0,0,0,.139.134.5.5,0,0,1,.237-.059c.058,0,.113.02.17.025,2.349.015,4.7,0,7.046.008a.989.989,0,0,1,.537.066.314.314,0,0,1,.016.315.522.522,0,0,1-.439.142q-3.987,0-7.974,0a.675.675,0,0,1-.364-.078.187.187,0,0,1-.1-.133c-.025-.148.3-.178.132-.375-.053-.188.078-.34.109-.512.011-.062.035-.141.12-.136s.133.077.154.155a2.378,2.378,0,0,1,.013.578.278.278,0,0,1,.061-.148A.119.119,0,0,1-861.206,135.757Z" fill="#c9ada9"/>
      <path id="Path_66498" data-name="Path 66498" d="M-861.343,135.757a1.152,1.152,0,0,0,.031.129c.042.113,0,.228-.1.23s-.089-.119-.081-.211a1.236,1.236,0,0,0-.065-.705c-.02.226-.2.4-.2.624.043.07.034.128-.051.152a.112.112,0,0,1-.134-.077.643.643,0,0,1-.008-.459,2.75,2.75,0,0,1,.15-.409.288.288,0,0,1,.09-.087c.277-.124.259-.366.259-.6q0-3.612,0-7.222a3.614,3.614,0,0,1,.018-.57.361.361,0,0,1,.048-.117.084.084,0,0,1,.111-.029v8.613A7.36,7.36,0,0,1-861.343,135.757Z" fill="#c9ada9"/>
      <path id="Path_66499" data-name="Path 66499" d="M-853.066,136.228v-.27a.3.3,0,0,0-.114-.058c-2.361-.021-4.721,0-7.081-.01a1.633,1.633,0,0,1-.478-.026.067.067,0,0,1-.051-.1q3.762,0,7.525-.011c.212,0,.286.07.272.272s0,.4,0,.6a.137.137,0,0,1-.072.134.32.32,0,0,1-.084-.243.746.746,0,0,1,.01-.157A.3.3,0,0,1-853.066,136.228Z" fill="#c9ada9"/>
      <path id="Path_66500" data-name="Path 66500" d="M-862.243,126.066c-.1-.1-.057-.212-.052-.323l1.063-.008c.008,0,.015.012.023.019l-.066.047a.291.291,0,0,1-.13.065.639.639,0,0,1-.1.011l-.194,0h-.188c-.139-.007-.267.007-.323.16Z" fill="#c9ada9"/>
      <path id="Path_66501" data-name="Path 66501" d="M-861.343,135.757c.036-.246-.079-.505.069-.741.152.236-.1.507.068.741Z" fill="#c9ada9"/>
      <path id="Path_66502" data-name="Path 66502" d="M-861.411,125.8h.136c-.053.2.184.4,0,.6h-.069A.7.7,0,0,1-861.411,125.8Z" fill="#c9ada9"/>
      <path id="Path_66503" data-name="Path 66503" d="M-860.79,135.767a.508.508,0,0,0,0,.056c-.033.048-.1.023-.137.067-.046.005-.091.075-.137,0C-861.041,135.708-860.9,135.765-860.79,135.767Z" fill="#c9ada9"/>
      <path id="Path_66504" data-name="Path 66504" d="M-861.411,125.8c.114.19.051.4.068.6h0c-.278.121-.306.351-.3.613q.006,3.709,0,7.42a.8.8,0,0,1-.11.58c-.189.074-.245-.053-.283-.188a1.38,1.38,0,0,1-.02-.369q0-3.781,0-7.563a.746.746,0,0,1,.083-.49c-.067-.059-.176-.027-.241-.1a.077.077,0,0,1-.022-.108l0-.135h.01c.062-.149.252-.143.336-.264h.21c.069.052.137.085.206,0Z" fill="#c9ada9"/>
      <path id="Path_66505" data-name="Path 66505" d="M-862.24,126.2l.005.067c.135.155.09.342.09.516q0,4.4,0,8.8c0,.235.023.47,0,.705,0,.1,0,.209-.013.313a.317.317,0,0,1-.082.163l0,0c-.1-.089-.066-.209-.066-.316q0-4.968,0-9.936C-862.307,126.408-862.345,126.288-862.24,126.2Z" fill="#c9ada9"/>
      <path id="Path_66506" data-name="Path 66506" d="M-862.237,136.763v-.132a.31.31,0,0,1,.327-.2.507.507,0,0,1,.123.024c1.33.027,2.659.008,3.988.01,1.536,0,3.072.008,4.607,0a.2.2,0,0,1,.126.033v.268a.689.689,0,0,1-.4.068q-4.046,0-8.09,0C-861.784,136.829-862.011,136.786-862.237,136.763Z" fill="#c9ada9"/>
      <path id="Path_66507" data-name="Path 66507" d="M-862.237,136.361q0-5.046,0-10.093c.167-.008.37.145.487-.145a3.967,3.967,0,0,0-.2,2.218c-.036,2.1-.013,4.192-.011,6.287,0,.159-.058.358.205.388.06.276-.209.495-.137.773.015.055-.018.15.1.121.02-.005.027-.056.039-.086.1.009.155.055.119.153-.042.116-.151.117-.256.116-.049.087-.063.2-.174.241C-862.121,136.362-862.173,136.4-862.237,136.361Z" fill="#c9ada9"/>
      <path id="Path_66508" data-name="Path 66508" d="M-862.1,136.295l.208-.2v.135a.639.639,0,0,0,.457.1h8.141c.079,0,.161-.024.231.033v.135h-.067a.47.47,0,0,1-.269.032h-8.225a.465.465,0,0,1-.268-.032h-.069C-862.025,136.439-862.208,136.461-862.1,136.295Z" fill="#c9ada9"/>
      <path id="Path_66509" data-name="Path 66509" d="M-853.066,136.362q-4.2,0-8.4,0c-.152,0-.331.055-.425-.133a1.922,1.922,0,0,0,.541.069q3.873,0,7.747,0a1.886,1.886,0,0,0,.541-.069Z" fill="#c9ada9"/>
      <path id="Path_66510" data-name="Path 66510" d="M-860.93,135.89a.146.146,0,0,1,.137-.067q3.669,0,7.337,0c.13,0,.278-.054.389.068a.514.514,0,0,1-.269.029h-7.187a.473.473,0,0,1-.268-.031Z" fill="#c9ada9"/>
      <path id="Path_66511" data-name="Path 66511" d="M-860.791,135.892l7.724,0a.46.46,0,0,1,0,.064q-3.684,0-7.368,0C-860.554,135.957-860.689,136-860.791,135.892Z" fill="#c9ada9"/>
      <path id="Path_66512" data-name="Path 66512" d="M-861.758,135.016c0-2.738.006-5.477-.007-8.215,0-.327.094-.453.421-.4,0,2.721-.005,5.442.008,8.163C-861.334,134.888-861.445,135.02-861.758,135.016Z" fill="#c9ada9"/>
      <path id="Path_66513" data-name="Path 66513" d="M-861.9,125.8c.035.266-.233.164-.336.264C-862.292,125.77-862.093,125.786-861.9,125.8Z" fill="#c9ada9"/>
      <path id="Path_66514" data-name="Path 66514" d="M-861.481,125.8c-.012.06.025.155-.065.162s-.1-.1-.141-.161Z" fill="#c9ada9"/>
      <path id="Path_66515" data-name="Path 66515" d="M-862.1,136.295c-.011.1.1.132.139.2-.119-.01-.18.094-.273.134v-.27Z" fill="#c9ada9"/>
      <path id="Path_66516" data-name="Path 66516" d="M-861.9,136.5h8.762c-.1.11-.237.065-.357.065q-4.024,0-8.049,0C-861.659,136.562-861.794,136.607-861.9,136.5Z" fill="#c9ada9"/>
      <path id="Path_66517" data-name="Path 66517" d="M-862.093,135.869v-9.31h.035v9.324Z" fill="#c9ada9"/>
    </g>
    <g id="Group_25678" data-name="Group 25678">
      <path id="Path_66518" data-name="Path 66518" d="M-864.248,122.228l-.133-.063a.342.342,0,0,1-.147.074,1.629,1.629,0,0,1-.279.012.386.386,0,0,1-.262-.085l-.23.073c-.094-.132-.011-.189.106-.193.28-.011.562-.008.842,0C-864.217,122.044-864.221,122.134-864.248,122.228Z" fill="#224232"/>
      <path id="Path_66519" data-name="Path 66519" d="M-864.38,122.634c-.071-.015-.068-.247-.206-.067a.272.272,0,0,1,.069-.4h.136Z" fill="#224232"/>
      <g id="Group_25677" data-name="Group 25677">
        <path id="Path_66520" data-name="Path 66520" d="M-864.931,123.173c-.132-.079-.007-.258-.138-.337v-.67l.276,0c.109.062.089.135.02.213-.1.129-.054.279-.066.42S-864.816,123.067-864.931,123.173Z" fill="#224232"/>
        <path id="Path_66521" data-name="Path 66521" d="M-864.38,122.769c-.13.079-.006.257-.137.336-.252-.112-.143-.316-.135-.5.036-.082.068-.188.179-.171s.028.143.093.195Z" fill="#224232"/>
        <path id="Path_66522" data-name="Path 66522" d="M-876.66,135.843c.137-.006.275-.015.412-.015q5.289,0,10.578,0c.288,0,.351-.068.354-.357.053-4.144,0-8.288.02-12.433,0-.267,0-.535,0-.8.076-.086.157-.145.268-.05a1.834,1.834,0,0,1,.059.679c-.138,1.765-.042,3.533-.058,5.3-.018,2.036,0,4.073-.01,6.109,0,.46.086.912.071,1.371-.016.49-.028.5-.478.341-3.533-.005-7.065,0-10.6,0a1.621,1.621,0,0,1-.546-.038A.108.108,0,0,1-876.66,135.843Z" fill="#224232"/>
        <path id="Path_66523" data-name="Path 66523" d="M-864.248,122.228c.005.235.014.47.014.7q0,5.875,0,11.75c0,.112-.012.223-.018.334a.116.116,0,0,1-.175-.037,1.259,1.259,0,0,1-.049-.531q0-5.8,0-11.6c0-.062,0-.124,0-.185a1.367,1.367,0,0,1,.052-.463C-864.349,122.1-864.3,122.158-864.248,122.228Z" fill="#224232"/>
        <path id="Path_66524" data-name="Path 66524" d="M-876.66,135.843l0,.049a.384.384,0,0,1-.029.13,1.082,1.082,0,0,0-.024.354.7.7,0,0,0,.029.27.35.35,0,0,0,.131.082c.506.024,1.011.009,1.516.009q4.957,0,9.915,0a7.228,7.228,0,0,1,.883.027l.055.129h0c-.436,0-.872.012-1.308.012-3.7,0-7.394,0-11.091.007-.28,0-.364-.065-.316-.334a1.75,1.75,0,0,0,0-.536C-876.924,135.834-876.827,135.809-876.66,135.843Z" fill="#224232"/>
        <path id="Path_66525" data-name="Path 66525" d="M-864.237,136.765c-.267.141-.555.036-.832.067a.064.064,0,0,1,.013-.093c.158-.1.348-.034.513-.1.127-.149.047-.325.067-.487-.009-.267-.007-.534,0-.8a.413.413,0,0,1,.1-.34h.126Z" fill="#224232"/>
        <path id="Path_66526" data-name="Path 66526" d="M-876.794,136.364c.019-.135-.061-.286.067-.4a.456.456,0,0,1,.268-.032H-866c.092,0,.184,0,.274.012.087-.038.173.028.261.009a.341.341,0,0,1,.048-.053c.169-.068.269-.024.276.19.021-4.434-.075-8.842.071-13.248.222.057.142.272.222.4a1.826,1.826,0,0,1,.018.369q0,5.523,0,11.045a10.457,10.457,0,0,0-.061,1.37.276.276,0,0,1-.007.131.26.26,0,0,1-.144.134,1.967,1.967,0,0,1-.547.033q-5.146,0-10.295,0c-.14,0-.3-.062-.416.073,0,.1.091.184.072.29-.25.169-.323-.142-.5-.175C-876.776,136.474-876.749,136.4-876.794,136.364Z" fill="#224232"/>
        <path id="Path_66527" data-name="Path 66527" d="M-865.552,135.96a1.742,1.742,0,0,1-.544,0q-5.316.006-10.631,0l.069-.067,11.242,0c0,.021,0,.041,0,.062A.1.1,0,0,1-865.552,135.96Z" fill="#224232"/>
        <path id="Path_66528" data-name="Path 66528" d="M-864.378,135.017l0,1.211c-.106.151-.211.307-.377.054.022-.1.145-.173.087-.3a.624.624,0,0,1-.015-.113c.144-4.165.028-8.331.067-12.5a.96.96,0,0,1,.016-.2c.079-.133,0-.348.223-.407Z" fill="#224232"/>
        <path id="Path_66529" data-name="Path 66529" d="M-876.728,136.5c.051.011.082-.157.135-.027.066.163.2.2.347.229.14-.138.321-.1.488-.1q5.176,0,10.351,0a.535.535,0,0,0,.326-.061,3.066,3.066,0,0,1,.332-.077c.219-.023.353.06.3.305l-.62,0a.58.58,0,0,1-.3.03h-11.054a.561.561,0,0,1-.3-.032l-.066-.068C-876.732,136.644-876.794,136.55-876.728,136.5Z" fill="#224232"/>
        <path id="Path_66530" data-name="Path 66530" d="M-876.729,136.766h11.66v.065q-5.652,0-11.3,0C-876.492,136.831-876.627,136.876-876.729,136.766Z" fill="#224232"/>
        <path id="Path_66531" data-name="Path 66531" d="M-876.728,136.5c0,.073.011.152-.067.2v-.334A.142.142,0,0,1-876.728,136.5Z" fill="#224232"/>
        <path id="Path_66532" data-name="Path 66532" d="M-864.449,136.766c-.059-.183-.122-.364-.367-.177-.1.074-.171,0-.253-.025s-.159-.093-.153-.2c.051-.08.168-.058.222-.135l.068-.068a.353.353,0,0,1,.151.02.133.133,0,0,1,.057.048c.114.284.228.026.343,0C-864.409,136.407-864.311,136.6-864.449,136.766Z" fill="#224232"/>
        <path id="Path_66533" data-name="Path 66533" d="M-864.517,122.164l-.069.4c.03.179-.069.373.069.538-.036,4.307.078,8.615-.069,12.921-.21.1-.274-.026-.291-.189a3.215,3.215,0,0,1,0-.7,1.124,1.124,0,0,0,.046-.431V123.523c0-.29-.056-.579-.035-.87.008-.122-.02-.249.069-.355.076-.045.006-.09,0-.134Z" fill="#224232"/>
        <path id="Path_66534" data-name="Path 66534" d="M-864.793,122.3c.148,4.131.033,8.263.068,12.395a.772.772,0,0,1-.068.458,2.476,2.476,0,0,0-.036.654c-.01.1.039.228-.1.288a1.684,1.684,0,0,1-.049-.919,5.821,5.821,0,0,0,.048-.632q0-5.685,0-11.369c0-.208,0-.416,0-.623C-864.929,122.445-864.959,122.32-864.793,122.3Z" fill="#224232"/>
        <path id="Path_66535" data-name="Path 66535" d="M-865.276,136.7h-10.97l-.138-.2a.3.3,0,0,1,.183-.086c2.1-.022,4.2,0,6.3-.009q2.1,0,4.2,0a1.055,1.055,0,0,1,.376.03C-865.154,136.494-865.128,136.587-865.276,136.7Z" fill="#224232"/>
        <path id="Path_66536" data-name="Path 66536" d="M-876.246,136.5h-.138c-.131-.209-.014-.284.18-.284q5.6,0,11.2.015c-.007.136-.107.135-.207.134a.714.714,0,0,1-.467.066l-10.1,0A.714.714,0,0,0-876.246,136.5Z" fill="#224232"/>
        <path id="Path_66537" data-name="Path 66537" d="M-864.931,136.093c.11-.181.052-.381.07-.573.011-.124-.049-.263.068-.369,0,.219.005.437,0,.656,0,.148.044.232.209.219v.067c-.046.079-.158.06-.207.135a.144.144,0,0,1-.139-.068C-864.931,136.138-864.931,136.116-864.931,136.093Z" fill="#224232"/>
        <path id="Path_66538" data-name="Path 66538" d="M-865.552,135.96l.137,0c.046.039.078.091.005.119C-865.508,136.112-865.543,136.044-865.552,135.96Z" fill="#224232"/>
        <path id="Path_66539" data-name="Path 66539" d="M-864.793,136.228c.006-.137.106-.136.207-.135.094.182-.068.113-.138.135Z" fill="#224232"/>
        <path id="Path_66540" data-name="Path 66540" d="M-876.246,136.5c.056-.221.241-.13.37-.131q5.334-.008,10.669,0c.042.07.149.1.138.2-.007.137-.107.136-.207.135.027-.08.1-.177-.059-.2a2.286,2.286,0,0,0-.275-.005Z" fill="#224232"/>
      </g>
    </g>
  </g>
</svg>
